{"glyphs":{"0":{"ha":775,"x_min":33,"x_max":707,"o":"m 531 203 q 508 132 531 158 q 439 106 486 106 l 251 106 q 183 132 206 106 q 160 203 160 158 l 160 715 q 183 788 160 761 q 251 814 206 814 l 439 814 q 508 788 486 814 q 531 715 531 761 l 531 203 m 458 0 q 594 48 554 0 q 633 183 633 96 l 633 736 q 594 872 633 824 q 458 919 554 919 l 232 919 q 97 872 136 919 q 58 736 58 824 l 58 183 q 97 48 58 96 q 232 0 136 0 l 458 0 m 285 -74 q 188 -53 233 -74 q 108 1 142 -33 q 53 83 74 36 q 33 183 33 129 l 33 736 q 79 890 33 835 q 232 944 125 944 l 458 944 q 556 924 510 944 q 635 867 601 903 q 688 784 668 832 q 707 683 707 736 l 707 131 q 661 -19 707 35 q 511 -74 615 -74 l 285 -74 m 506 715 q 505 732 506 724 q 492 740 504 740 l 304 740 q 233 664 233 740 l 233 131 q 242 129 238 129 q 251 129 247 129 l 439 129 q 489 149 472 129 q 506 203 506 169 l 506 715 z "},"1":{"ha":451,"x_min":22,"x_max":367,"o":"m 293 0 l 293 919 l 47 919 l 47 814 l 192 814 l 192 0 l 293 0 m 22 789 l 22 944 l 318 944 l 367 888 l 367 -74 l 224 -74 l 167 -25 l 167 740 l 79 740 l 22 789 z "},"2":{"ha":756,"x_min":35,"x_max":686,"o":"m 603 0 l 603 106 l 163 106 l 163 289 q 188 371 163 344 q 276 397 214 397 l 407 397 q 562 452 511 397 q 613 608 613 507 l 613 693 q 561 863 613 806 q 393 919 510 919 l 275 919 q 119 868 171 919 q 67 704 67 817 l 67 633 l 167 633 l 167 704 q 274 814 167 814 l 393 814 q 483 785 456 814 q 510 693 510 756 l 510 608 q 483 519 510 550 q 397 489 456 489 l 268 489 q 109 439 158 489 q 60 289 60 389 l 60 0 l 603 0 m 236 129 l 628 129 l 676 74 l 676 -74 l 92 -74 l 35 -25 l 35 289 q 90 458 35 401 q 268 514 146 514 l 397 514 q 463 539 442 514 q 485 608 485 564 l 485 693 q 482 728 485 715 q 446 740 479 740 l 326 740 q 240 651 240 740 l 240 560 l 99 560 l 42 608 l 42 704 q 99 888 42 831 q 275 944 157 944 l 393 944 q 509 921 456 944 q 602 857 563 897 q 664 761 642 817 q 686 642 686 706 l 686 556 q 629 383 686 443 q 458 324 572 324 l 329 324 q 258 302 279 324 q 236 236 236 281 l 236 129 z "},"3":{"ha":751,"x_min":33,"x_max":688,"o":"m 407 0 q 614 215 614 0 l 614 311 q 583 424 614 382 q 504 474 551 465 q 575 517 550 481 q 600 625 600 554 l 600 747 q 410 919 600 919 l 258 919 q 113 872 163 919 q 63 719 63 824 l 63 633 l 163 633 l 163 718 q 188 790 163 767 q 258 814 213 814 l 410 814 q 504 715 504 814 l 504 610 q 481 537 504 564 q 408 510 458 510 l 261 510 l 261 432 l 399 432 q 483 400 454 432 q 511 317 511 368 l 511 219 q 400 106 511 106 l 256 106 q 157 193 157 106 l 157 286 l 58 286 l 58 192 q 109 46 58 92 q 256 0 160 0 l 407 0 m 38 608 l 38 719 q 94 890 38 836 q 258 944 150 944 l 410 944 q 508 926 461 944 q 591 875 556 908 q 649 796 626 842 q 674 694 671 750 l 674 574 q 657 482 674 519 q 614 422 640 444 l 638 400 q 674 340 663 376 q 688 258 686 303 l 688 163 q 458 -74 688 -74 l 308 -74 q 206 -54 256 -74 q 117 1 156 -35 q 56 85 79 36 q 33 192 33 133 l 33 311 l 182 311 l 231 254 l 231 131 q 256 129 235 129 l 400 129 q 486 219 486 129 l 486 317 q 483 346 486 333 q 451 358 479 358 l 293 358 l 236 407 l 236 535 l 408 535 q 463 555 446 535 q 481 610 481 575 l 481 715 q 478 733 481 726 q 461 740 476 740 l 311 740 q 236 667 236 740 l 236 560 l 94 560 l 38 608 z "},"4":{"ha":725,"x_min":8,"x_max":674,"o":"m 431 256 l 129 256 l 431 774 l 431 256 m 531 0 l 531 167 l 600 167 l 600 256 l 531 256 l 531 918 l 410 918 l 33 246 l 33 167 l 431 167 l 431 0 l 531 0 m 604 281 l 625 281 l 674 224 l 674 93 l 604 93 l 604 -74 l 461 -74 l 406 -25 l 406 93 l 64 93 l 8 142 l 8 253 l 393 943 l 556 943 l 604 886 l 604 281 m 406 547 l 250 281 l 406 281 l 406 547 z "},"5":{"ha":751,"x_min":35,"x_max":679,"o":"m 408 0 q 606 211 606 0 l 606 344 q 418 538 606 538 l 161 538 l 161 814 l 597 814 l 597 919 l 69 919 l 69 446 l 410 446 q 504 344 504 446 l 504 211 q 408 104 504 104 l 249 104 q 160 189 160 104 l 160 286 l 60 286 l 60 188 q 109 46 60 92 q 250 0 158 0 l 408 0 m 235 563 l 418 563 q 519 541 472 563 q 602 483 567 519 q 658 398 638 447 q 679 293 679 349 l 679 158 q 460 -74 679 -74 l 303 -74 q 202 -54 250 -74 q 117 1 154 -35 q 57 83 79 36 q 35 188 35 131 l 35 311 l 185 311 l 233 254 l 233 129 l 408 129 q 479 211 479 129 l 479 344 q 478 364 479 356 q 461 372 476 372 l 101 372 l 44 421 l 44 944 l 622 944 l 669 888 l 669 740 l 235 740 l 235 563 z "},"6":{"ha":750,"x_min":33,"x_max":681,"o":"m 507 204 q 411 104 507 104 l 260 104 q 160 215 160 104 l 160 431 l 415 431 q 507 339 507 431 l 507 204 m 411 0 q 557 49 507 0 q 607 203 607 99 l 607 340 q 561 479 607 438 q 424 521 515 521 l 160 521 l 160 717 q 261 814 160 814 l 410 814 q 506 728 506 814 l 506 633 l 606 633 l 606 728 q 556 872 606 825 q 410 919 506 919 l 261 919 q 58 717 58 919 l 58 215 q 260 0 58 0 l 411 0 m 233 546 l 424 546 q 526 526 479 546 q 606 473 572 507 q 660 391 640 439 q 681 288 679 343 l 681 151 q 626 -19 681 35 q 463 -74 571 -74 l 313 -74 q 203 -51 254 -74 q 115 10 153 -29 q 55 101 76 49 q 33 215 33 154 l 33 717 q 261 944 33 944 l 410 944 q 513 924 464 944 q 599 867 561 903 q 658 781 636 831 q 679 675 679 732 l 679 560 l 538 560 l 489 608 l 481 608 l 481 728 q 478 738 481 736 q 469 740 475 740 l 461 740 l 314 740 q 233 665 233 740 l 233 546 m 482 339 q 481 352 482 347 q 468 357 479 357 l 233 357 l 233 149 q 238 134 233 139 q 260 129 242 129 l 411 129 q 482 204 482 129 l 482 339 z "},"7":{"ha":674,"x_min":24,"x_max":661,"o":"m 206 0 l 576 919 l 49 919 l 49 815 l 429 815 l 93 0 l 206 0 m 24 790 l 24 944 l 615 944 l 661 888 l 272 -74 l 114 -74 l 56 -25 l 371 742 l 81 742 l 24 790 z "},"8":{"ha":754,"x_min":33,"x_max":686,"o":"m 613 422 q 668 346 650 385 q 686 258 686 307 l 686 163 q 458 -74 686 -74 l 317 -74 q 207 -51 258 -74 q 117 10 156 -29 q 56 101 78 49 q 33 215 33 154 l 33 311 q 54 406 33 364 q 104 472 75 449 q 58 529 71 492 q 46 625 46 567 l 46 747 q 263 944 46 944 l 408 944 q 506 926 460 944 q 588 875 553 908 q 646 796 624 842 q 671 694 668 750 l 671 574 q 654 482 671 521 q 613 422 638 443 m 406 0 q 613 215 613 0 l 613 311 q 581 424 613 382 q 501 474 549 465 q 599 625 599 488 l 599 747 q 408 919 599 919 l 263 919 q 71 747 71 919 l 71 625 q 169 474 71 489 q 90 424 121 465 q 58 311 58 382 l 58 215 q 265 0 58 0 l 406 0 m 508 219 q 397 106 508 106 l 271 106 q 160 219 160 106 l 160 317 q 189 400 160 368 q 272 432 218 432 l 396 432 q 480 400 451 432 q 508 317 508 368 l 508 219 m 503 610 q 480 537 503 564 q 407 510 457 510 l 264 510 q 190 537 214 510 q 167 610 167 564 l 167 715 q 263 814 167 814 l 408 814 q 503 715 503 814 l 503 610 m 483 317 q 480 346 483 333 q 449 358 476 358 l 325 358 q 257 332 281 358 q 233 264 233 306 l 233 167 l 233 153 q 242 132 233 135 q 271 129 251 129 l 397 129 q 483 219 483 129 l 483 317 m 478 715 q 476 733 478 725 q 460 740 475 740 l 315 740 q 240 663 240 740 l 240 538 q 264 535 254 535 l 407 535 q 461 555 444 535 q 478 610 478 575 l 478 715 z "},"9":{"ha":750,"x_min":33,"x_max":681,"o":"m 504 494 l 249 494 q 157 585 157 494 l 157 714 q 254 814 157 814 l 406 814 q 504 703 504 814 l 504 494 m 404 0 q 607 201 607 0 l 607 703 q 406 919 607 919 l 256 919 q 109 869 160 919 q 58 715 58 819 l 58 583 q 104 444 58 486 q 243 403 150 403 l 504 403 l 504 201 q 404 104 504 104 l 256 104 q 158 190 158 104 l 158 286 l 58 286 l 58 190 q 110 45 58 90 q 257 0 161 0 l 404 0 m 294 329 q 194 348 242 329 q 112 400 147 367 q 55 480 76 433 q 33 583 33 526 l 33 715 q 90 889 33 833 q 256 944 147 944 l 406 944 q 515 922 465 944 q 601 859 565 899 q 657 766 636 819 q 681 650 678 713 l 681 150 q 457 -74 681 -74 l 310 -74 q 207 -54 257 -74 q 119 0 157 -35 q 58 83 81 35 q 35 190 35 132 l 35 311 l 183 311 l 232 254 l 232 129 l 404 129 q 481 201 481 129 l 481 329 l 294 329 m 481 703 l 481 715 q 477 733 481 726 q 458 740 474 740 l 307 740 q 231 661 231 740 l 231 521 q 240 519 235 519 q 249 519 244 519 l 481 519 l 481 703 z "},"\u0017":{"ha":251,"x_min":0,"x_max":0,"o":""}," ":{"ha":251,"x_min":0,"x_max":0,"o":""},"!":{"ha":369,"x_min":69,"x_max":268,"o":"m 194 0 l 194 197 l 94 197 l 94 0 l 194 0 m 193 269 l 193 919 l 94 919 l 94 269 l 193 269 m 69 -25 l 69 944 l 218 944 l 268 888 l 268 -74 l 126 -74 l 69 -25 z "},"\"":{"ha":582,"x_min":38,"x_max":508,"o":"m 404 600 l 435 919 l 314 919 l 343 600 l 404 600 m 154 600 l 185 919 l 64 919 l 94 600 l 154 600 m 71 575 l 38 944 l 211 944 l 260 888 l 226 528 l 128 528 l 71 575 m 319 575 l 288 944 l 460 944 l 508 888 l 476 528 l 376 528 l 319 575 z "},"#":{"ha":868,"x_min":39,"x_max":792,"o":"m 575 0 l 575 263 l 718 263 l 718 325 l 575 325 l 575 606 l 718 606 l 718 669 l 575 669 l 575 919 l 508 919 l 508 669 l 279 669 l 279 919 l 213 919 l 213 669 l 64 669 l 64 606 l 213 606 l 213 325 l 64 325 l 64 263 l 213 263 l 213 0 l 279 0 l 279 263 l 508 263 l 508 0 l 575 0 m 508 325 l 279 325 l 279 606 l 508 606 l 508 325 m 649 350 l 743 350 l 792 293 l 792 189 l 649 189 l 649 -74 l 540 -74 l 483 -25 l 483 189 l 353 189 l 353 -74 l 244 -74 l 188 -25 l 188 189 l 96 189 l 39 238 l 39 350 l 188 350 l 188 532 l 96 532 l 39 581 l 39 693 l 188 693 l 188 944 l 304 944 l 353 888 l 353 693 l 483 693 l 483 944 l 600 944 l 649 888 l 649 693 l 743 693 l 792 638 l 792 532 l 649 532 l 649 350 m 483 532 l 353 532 l 353 350 l 483 350 l 483 532 z "},"$":{"ha":749,"x_min":39,"x_max":672,"o":"m 235 529 q 253 528 239 528 l 435 528 q 531 510 488 528 q 605 459 574 492 q 653 381 636 426 q 672 279 671 335 l 672 215 q 619 64 672 114 q 469 14 567 14 l 435 14 l 435 -74 l 335 -74 l 278 -25 l 278 14 l 96 14 l 39 63 l 39 207 l 411 207 q 463 226 447 207 q 479 282 479 246 l 479 319 q 478 337 479 329 q 463 344 476 344 l 282 344 q 188 363 232 344 q 110 413 143 381 q 58 491 76 446 q 39 590 39 536 l 39 651 q 244 857 39 857 l 278 857 l 278 944 l 388 944 l 435 888 l 435 857 l 610 857 l 658 800 l 658 663 l 306 663 q 251 642 267 663 q 235 583 235 622 l 235 529 m 363 0 l 363 88 l 417 88 q 551 132 504 88 q 599 268 599 176 l 599 332 q 592 402 599 371 q 567 456 585 433 q 517 492 549 479 q 435 504 485 504 l 253 504 q 183 529 204 504 q 161 601 161 554 l 161 636 q 183 710 161 685 q 253 736 204 736 l 585 736 l 585 832 l 363 832 l 363 919 l 303 919 l 303 832 l 244 832 q 64 651 64 832 l 64 590 q 71 520 64 551 q 96 466 78 489 q 147 431 114 443 q 229 418 179 418 l 411 418 q 483 392 463 418 q 504 319 504 367 l 504 282 q 483 208 504 233 q 411 182 461 182 l 64 182 l 64 88 l 303 88 l 303 0 l 363 0 z "},"%":{"ha":1090,"x_min":7,"x_max":1043,"o":"m 899 88 q 888 52 899 65 q 853 39 876 39 l 760 39 q 725 52 736 39 q 714 88 714 65 l 714 344 q 760 393 714 393 l 853 393 q 899 344 899 393 l 899 88 m 863 -12 q 930 11 910 -12 q 950 79 950 35 l 950 354 q 930 422 950 397 q 863 446 910 446 l 749 446 q 683 422 703 446 q 663 354 663 397 l 663 79 q 683 11 663 35 q 749 -12 703 -12 l 863 -12 m 124 -42 l 947 967 l 881 967 l 58 -42 l 124 -42 m 304 575 q 258 526 304 526 l 165 526 q 119 575 119 526 l 119 832 q 131 867 119 854 q 165 881 142 881 l 258 881 q 293 867 282 881 q 304 832 304 854 l 304 575 m 269 474 q 335 497 315 474 q 356 565 356 521 l 356 840 q 335 908 356 885 q 269 932 315 932 l 154 932 q 88 908 108 932 q 68 840 68 885 l 68 565 q 88 497 68 521 q 154 474 108 474 l 269 474 m 7 -67 l 871 992 l 997 992 l 1043 935 l 185 -115 l 67 -115 l 7 -67 m 207 400 q 147 414 176 400 q 95 451 118 428 q 58 503 72 474 q 43 565 43 533 l 43 840 q 69 926 43 896 q 154 957 96 957 l 269 957 q 329 942 300 957 q 381 903 358 928 q 416 849 403 879 q 429 788 429 818 l 429 513 q 404 430 429 460 q 321 400 379 400 l 207 400 m 801 -86 q 740 -72 769 -86 q 688 -35 711 -58 q 651 17 665 -12 q 638 79 638 47 l 638 354 q 663 440 638 410 q 749 471 689 471 l 863 471 q 922 456 893 471 q 972 418 950 442 q 1008 364 994 394 q 1022 301 1022 333 l 1022 26 q 998 -56 1022 -26 q 915 -86 974 -86 l 801 -86 m 279 807 l 218 807 q 193 779 193 807 l 193 551 l 258 551 q 279 575 279 551 l 279 807 m 874 319 l 811 319 q 786 293 786 319 l 786 64 l 853 64 q 874 88 874 64 l 874 319 z "},"&":{"ha":815,"x_min":33,"x_max":757,"o":"m 451 197 q 350 106 451 106 l 271 106 q 160 219 160 106 l 160 319 q 189 401 160 371 q 272 432 218 432 l 451 432 l 451 197 m 682 0 l 682 106 l 646 106 q 572 127 597 106 q 547 197 547 149 l 547 432 l 683 432 l 683 519 l 547 519 l 547 621 l 451 621 l 451 519 l 264 519 q 167 615 167 519 l 167 715 q 263 814 167 814 l 544 814 l 544 919 l 244 919 q 116 877 161 919 q 71 747 71 835 l 71 629 q 169 478 71 494 q 90 428 121 469 q 58 315 58 386 l 58 215 q 265 0 58 0 l 363 0 q 454 20 417 0 q 503 74 492 40 q 549 20 513 40 q 640 0 586 0 l 682 0 m 621 144 q 624 131 621 133 q 646 129 628 129 l 707 129 l 756 74 l 756 -74 l 693 -74 q 563 -32 606 -74 l 553 -22 q 495 -59 532 -44 q 414 -74 458 -74 l 317 -74 q 207 -51 258 -74 q 117 10 156 -29 q 56 101 78 49 q 33 215 33 154 l 33 315 q 53 413 33 371 q 104 478 72 454 q 46 629 46 517 l 46 747 q 97 896 46 847 q 244 944 149 944 l 569 944 l 618 888 l 618 740 l 315 740 q 240 663 240 740 l 240 553 q 264 544 246 544 l 426 544 l 426 646 l 572 646 l 621 589 l 621 544 l 708 544 l 757 488 l 757 358 l 621 358 l 621 144 m 426 358 l 325 358 q 257 333 281 358 q 233 268 233 308 l 233 167 q 239 138 233 146 q 271 129 244 129 l 350 129 q 426 197 426 129 l 426 358 z "},"'":{"ha":332,"x_min":38,"x_max":260,"o":"m 154 600 l 185 919 l 64 919 l 94 600 l 154 600 m 71 575 l 38 944 l 211 944 l 260 888 l 226 528 l 128 528 l 71 575 z "},"(":{"ha":565,"x_min":83,"x_max":506,"o":"m 424 -119 q 211 282 211 -31 l 211 633 q 263 891 211 793 q 424 1033 315 989 l 379 1113 q 270 1051 319 1089 q 185 956 221 1014 q 128 815 149 897 q 108 621 108 733 l 108 296 q 128 101 108 183 q 185 -40 149 18 q 270 -136 221 -99 q 379 -197 319 -174 l 424 -119 m 506 -161 l 440 -275 q 288 -183 354 -233 q 176 -66 221 -133 q 107 90 131 1 q 83 296 83 178 l 83 621 q 106 826 83 739 q 169 974 128 913 q 266 1076 210 1035 q 389 1143 322 1117 l 440 1086 l 506 971 q 339 829 393 924 q 285 581 285 735 l 285 229 q 292 118 285 171 q 319 22 300 65 q 372 -53 339 -21 q 458 -106 406 -86 l 506 -161 z "},")":{"ha":567,"x_min":26,"x_max":449,"o":"m 103 -197 q 213 -136 163 -174 q 299 -40 263 -99 q 355 101 335 18 q 375 296 375 183 l 375 621 q 355 815 375 733 q 299 956 335 897 q 213 1051 263 1014 q 103 1113 163 1089 l 60 1033 q 218 891 165 989 q 271 633 271 793 l 271 282 q 60 -119 271 -29 l 103 -197 m 26 -106 q 246 282 246 -14 l 246 633 q 233 767 246 708 q 192 871 219 825 q 124 953 165 917 q 26 1021 82 989 l 92 1143 q 247 1052 181 1110 q 359 919 314 994 q 426 755 404 844 q 449 568 449 665 l 449 244 q 426 42 449 128 q 364 -107 404 -44 q 268 -210 324 -169 q 146 -275 213 -250 l 92 -228 l 26 -106 z "},"*":{"ha":732,"x_min":31,"x_max":664,"o":"m 514 503 l 378 658 l 585 707 l 556 793 l 358 715 l 375 919 l 272 919 l 293 715 l 96 793 l 64 711 l 269 657 l 131 504 l 213 449 l 325 619 l 432 446 l 514 503 m 439 774 l 572 826 l 622 768 l 664 639 l 469 593 l 599 446 l 478 364 l 422 411 l 364 507 l 269 367 l 153 449 l 94 501 l 199 613 l 88 643 l 31 693 l 82 826 l 264 753 l 246 944 l 401 944 l 450 888 l 439 774 z "},"+":{"ha":893,"x_min":35,"x_max":824,"o":"m 457 129 l 457 424 l 750 424 l 750 524 l 457 524 l 457 818 l 356 818 l 356 524 l 60 524 l 60 424 l 356 424 l 356 129 l 457 129 m 529 549 l 775 549 l 824 492 l 824 350 l 529 350 l 529 56 l 388 56 l 331 104 l 331 350 l 92 350 l 35 399 l 35 549 l 331 549 l 331 843 l 481 843 l 529 786 l 529 549 z "},",":{"ha":339,"x_min":44,"x_max":269,"o":"m 149 -122 l 194 197 l 90 197 l 71 -122 l 149 -122 m 44 -147 l 67 222 l 222 222 l 269 165 l 219 -196 l 101 -196 l 44 -147 z "},"-":{"ha":547,"x_min":17,"x_max":496,"o":"m 422 414 l 422 482 l 42 482 l 42 414 l 422 414 m 17 389 l 17 507 l 447 507 l 496 451 l 496 340 l 74 340 l 17 389 z "},".":{"ha":326,"x_min":46,"x_max":244,"o":"m 171 0 l 171 197 l 71 197 l 71 0 l 171 0 m 46 -25 l 46 222 l 196 222 l 244 165 l 244 -74 l 103 -74 l 46 -25 z "},"/":{"ha":690,"x_min":-31,"x_max":683,"o":"m 113 -36 l 599 954 l 494 954 l 10 -36 l 113 -36 m -31 -61 l 479 979 l 638 979 l 683 924 l 178 -110 l 29 -110 l -31 -61 z "},":":{"ha":360,"x_min":67,"x_max":265,"o":"m 192 436 l 192 633 l 92 633 l 92 436 l 192 436 m 192 0 l 192 197 l 92 197 l 92 0 l 192 0 m 67 -25 l 67 222 l 217 222 l 265 165 l 265 -74 l 124 -74 l 67 -25 m 67 411 l 67 658 l 217 658 l 265 601 l 265 364 l 124 364 l 67 411 z "},";":{"ha":356,"x_min":46,"x_max":271,"o":"m 192 436 l 192 633 l 92 633 l 92 436 l 192 436 m 150 -122 l 196 197 l 92 197 l 72 -122 l 150 -122 m 46 -147 l 68 222 l 224 222 l 271 165 l 221 -196 l 103 -196 l 46 -147 m 67 411 l 67 658 l 217 658 l 265 601 l 265 364 l 124 364 l 67 411 z "},"<":{"ha":893,"x_min":35,"x_max":824,"o":"m 750 103 l 750 213 l 226 450 l 750 686 l 750 797 l 60 486 l 60 411 l 750 103 m 368 414 l 775 229 l 824 175 l 824 17 l 92 343 l 35 393 l 35 504 l 775 836 l 824 778 l 824 619 l 368 414 z "},"=":{"ha":893,"x_min":35,"x_max":824,"o":"m 750 576 l 750 678 l 60 678 l 60 576 l 750 576 m 750 267 l 750 367 l 60 367 l 60 267 l 750 267 m 35 242 l 35 392 l 775 392 l 824 336 l 824 193 l 92 193 l 35 242 m 35 551 l 35 703 l 775 703 l 824 646 l 824 504 l 92 504 l 35 551 z "},">":{"ha":893,"x_min":35,"x_max":824,"o":"m 750 411 l 750 486 l 60 797 l 60 686 l 583 450 l 60 213 l 60 103 l 750 411 m 35 669 l 35 836 l 775 504 l 824 449 l 824 343 l 92 17 l 35 63 l 35 229 l 494 438 l 92 619 l 35 669 z "},"?":{"ha":719,"x_min":22,"x_max":668,"o":"m 293 0 l 293 197 l 193 197 l 193 0 l 293 0 m 292 269 l 292 300 q 301 348 292 331 q 326 374 310 365 q 366 387 343 383 q 417 393 389 390 q 550 446 506 400 q 594 582 594 492 l 594 657 q 583 785 594 735 q 543 866 571 836 q 469 908 515 896 q 354 919 422 919 l 267 919 q 167 908 208 919 q 99 871 126 897 q 60 801 72 844 q 47 694 47 758 l 47 633 l 147 633 l 147 714 q 242 814 147 814 l 401 814 q 492 703 492 814 l 492 582 q 369 482 492 482 q 234 440 274 482 q 194 310 194 399 l 194 269 l 292 269 m 22 608 l 22 694 q 36 813 22 765 q 80 890 50 861 q 156 932 110 919 q 267 944 201 944 l 354 944 q 593 858 518 944 q 668 604 668 772 l 668 529 q 617 380 668 433 q 471 319 567 326 q 429 314 449 317 q 396 304 410 311 q 374 284 382 297 q 365 247 365 271 l 365 -74 l 224 -74 l 169 -25 l 169 310 q 215 459 169 411 q 369 507 261 507 q 467 582 467 507 l 467 703 q 463 740 467 724 l 293 740 q 221 661 221 740 l 221 560 l 79 560 l 22 608 z "},"@":{"ha":810,"x_min":29,"x_max":746,"o":"m 228 119 q 237 118 232 118 q 246 118 242 118 l 697 118 l 746 61 l 746 -74 l 276 -74 q 183 -56 228 -74 q 105 -6 139 -37 q 50 69 71 25 q 29 165 29 113 l 29 782 q 67 907 29 869 q 188 944 104 944 l 544 944 q 626 927 589 944 q 690 881 663 910 q 731 812 717 851 q 746 729 746 772 l 746 214 l 435 214 q 375 225 406 214 q 320 256 344 236 q 281 305 296 276 q 265 368 265 333 l 265 578 q 292 655 265 626 q 389 683 318 683 l 564 683 l 564 764 l 275 764 q 228 715 228 764 l 228 119 m 672 0 l 672 93 l 246 93 q 176 119 199 93 q 154 189 154 144 l 154 767 q 224 838 154 838 l 528 838 q 574 824 558 838 q 589 774 589 810 l 589 658 l 389 658 q 313 636 335 658 q 290 578 290 614 l 290 368 q 308 309 290 331 q 382 288 325 288 l 672 288 l 672 782 q 642 890 672 860 q 544 919 613 919 l 188 919 q 85 888 117 919 q 54 782 54 857 l 54 165 q 93 43 54 86 q 224 0 132 0 l 672 0 m 589 357 l 425 357 q 384 367 394 357 q 374 397 374 376 l 374 547 q 425 594 374 594 l 589 594 l 589 357 m 564 521 l 478 521 q 447 494 447 521 l 447 382 l 564 382 l 564 521 z "},"A":{"ha":739,"x_min":-11,"x_max":714,"o":"m 454 269 l 190 269 l 321 778 l 454 269 m 635 0 l 383 919 l 265 919 l 21 0 l 122 0 l 168 182 l 476 182 l 525 0 l 635 0 m -11 -25 l 246 944 l 401 944 l 451 888 l 714 -74 l 561 -74 l 506 -25 l 471 108 l 238 108 l 192 -74 l 47 -74 l -11 -25 m 353 556 l 283 293 l 422 293 l 353 556 z "},"B":{"ha":747,"x_min":39,"x_max":681,"o":"m 499 621 q 475 547 500 574 q 401 519 450 519 l 167 519 l 167 814 l 403 814 q 499 715 499 814 l 499 621 m 504 219 q 393 106 504 106 l 167 106 l 167 432 l 392 432 q 476 399 447 432 q 504 315 504 367 l 504 219 m 400 0 q 607 215 607 0 l 607 315 q 576 428 607 386 q 497 478 544 469 q 569 523 543 485 q 594 629 594 561 l 594 747 q 403 919 594 919 l 64 919 l 64 0 l 400 0 m 39 -25 l 39 944 l 403 944 q 501 926 454 944 q 585 875 549 908 q 643 796 621 842 q 668 694 665 750 l 668 576 q 652 485 668 522 q 607 426 636 449 l 629 406 q 667 344 654 382 q 681 263 679 307 l 681 163 q 453 -74 681 -74 l 96 -74 l 39 -25 m 481 315 q 474 347 479 335 q 444 358 469 358 l 240 358 l 240 129 l 393 129 q 481 219 481 129 l 481 315 m 474 715 q 472 733 474 726 q 456 740 471 740 l 240 740 l 240 544 l 401 544 q 456 565 439 544 q 474 621 474 586 l 474 715 z "},"C":{"ha":699,"x_min":33,"x_max":633,"o":"m 560 0 l 560 106 l 274 106 q 160 224 160 106 l 160 701 q 271 814 160 814 l 557 814 l 557 919 l 271 919 q 58 701 58 919 l 58 224 q 278 0 58 0 l 560 0 m 233 156 q 244 132 233 135 q 274 129 254 129 l 585 129 l 633 74 l 633 -74 l 331 -74 q 226 -59 267 -74 q 151 -12 185 -44 l 126 11 q 33 224 33 69 l 33 701 q 271 944 33 944 l 582 944 l 631 888 l 631 740 l 324 740 q 233 649 233 740 l 233 172 l 233 156 z "},"D":{"ha":756,"x_min":39,"x_max":689,"o":"m 511 250 q 371 106 511 106 l 167 106 l 167 814 l 374 814 q 511 669 511 814 l 511 250 m 368 0 q 615 250 615 0 l 615 669 q 374 919 615 919 l 64 919 l 64 0 l 368 0 m 39 -25 l 39 944 l 374 944 q 503 919 444 944 q 602 851 561 894 q 666 747 643 807 q 689 617 689 688 l 689 199 q 421 -74 689 -74 l 96 -74 l 39 -25 m 486 669 q 475 733 486 703 q 451 739 464 738 q 426 740 439 740 l 240 740 l 240 129 l 371 129 q 486 250 486 129 l 486 669 z "},"E":{"ha":710,"x_min":39,"x_max":649,"o":"m 575 0 l 575 106 l 167 106 l 167 418 l 411 418 l 411 515 l 167 515 l 167 814 l 575 814 l 575 919 l 64 919 l 64 0 l 575 0 m 240 129 l 600 129 l 649 74 l 649 -74 l 96 -74 l 39 -25 l 39 944 l 600 944 l 649 888 l 649 740 l 240 740 l 240 540 l 435 540 l 483 483 l 483 344 l 240 344 l 240 129 z "},"F":{"ha":650,"x_min":39,"x_max":611,"o":"m 167 0 l 167 396 l 411 396 l 411 493 l 167 493 l 167 814 l 538 814 l 538 919 l 64 919 l 64 0 l 167 0 m 240 518 l 435 518 l 483 461 l 483 322 l 240 322 l 240 -74 l 96 -74 l 39 -25 l 39 944 l 563 944 l 611 888 l 611 740 l 240 740 l 240 518 z "},"G":{"ha":746,"x_min":33,"x_max":676,"o":"m 603 0 l 603 518 l 317 518 l 317 422 l 507 422 l 507 106 l 274 106 q 160 224 160 106 l 160 694 q 271 814 160 814 l 585 814 l 585 919 l 271 919 q 58 694 58 919 l 58 224 q 278 0 58 0 l 603 0 m 293 397 l 293 543 l 628 543 l 676 486 l 676 -74 l 331 -74 q 217 -51 271 -74 q 122 10 163 -29 q 58 104 82 50 q 33 224 33 158 l 33 694 q 271 944 33 944 l 610 944 l 658 888 l 658 740 l 324 740 q 233 643 233 740 l 233 172 l 233 156 q 244 132 233 135 q 274 129 254 129 l 482 129 l 482 349 l 349 349 l 293 397 z "},"H":{"ha":757,"x_min":39,"x_max":683,"o":"m 610 0 l 610 919 l 506 919 l 506 513 l 167 513 l 167 919 l 64 919 l 64 0 l 167 0 l 167 413 l 506 413 l 506 0 l 610 0 m 240 538 l 481 538 l 481 944 l 635 944 l 683 888 l 683 -74 l 538 -74 l 481 -25 l 481 340 l 240 340 l 240 -74 l 96 -74 l 39 -25 l 39 944 l 192 944 l 240 888 l 240 538 z "},"I":{"ha":328,"x_min":46,"x_max":246,"o":"m 174 0 l 174 919 l 71 919 l 71 0 l 174 0 m 46 -25 l 46 944 l 199 944 l 246 888 l 246 -74 l 103 -74 l 46 -25 z "},"J":{"ha":664,"x_min":11,"x_max":594,"o":"m 300 0 q 521 224 521 0 l 521 919 l 207 919 l 207 814 l 418 814 l 418 224 q 304 106 418 106 l 35 106 l 35 0 l 300 0 m 182 789 l 182 944 l 546 944 l 594 888 l 594 172 q 353 -74 594 -74 l 67 -74 l 11 -25 l 11 129 l 304 129 q 393 224 393 129 l 393 740 l 239 740 l 182 789 z "},"K":{"ha":729,"x_min":39,"x_max":690,"o":"m 581 0 l 581 300 q 531 440 581 392 q 369 488 482 488 l 269 488 l 594 919 l 479 919 l 167 486 l 167 919 l 64 919 l 64 0 l 167 0 l 167 408 l 369 408 q 451 378 422 408 q 479 296 479 349 l 479 0 l 581 0 m 406 511 q 500 485 456 507 q 579 427 544 463 q 634 345 614 392 q 654 247 654 299 l 654 -74 l 510 -74 l 454 -25 l 454 296 q 450 325 454 315 q 422 335 446 335 l 240 335 l 240 -74 l 96 -74 l 39 -25 l 39 944 l 192 944 l 240 888 l 240 631 l 467 944 l 646 944 l 690 888 l 406 511 z "},"L":{"ha":586,"x_min":39,"x_max":547,"o":"m 474 0 l 474 106 l 165 106 l 165 919 l 64 919 l 64 0 l 474 0 m 239 129 l 499 129 l 547 74 l 547 -74 l 96 -74 l 39 -25 l 39 944 l 190 944 l 239 888 l 239 129 z "},"M":{"ha":894,"x_min":35,"x_max":826,"o":"m 263 888 l 424 272 l 604 944 l 778 944 l 826 888 l 826 -74 l 693 -74 l 636 -25 l 636 324 l 526 -74 l 390 -74 l 336 -25 l 225 371 l 225 -74 l 90 -74 l 35 -25 l 35 944 l 213 944 l 263 888 m 753 0 l 753 919 l 622 919 l 408 113 l 194 919 l 58 919 l 58 0 l 153 0 l 153 733 l 354 0 l 458 0 l 661 732 l 661 0 l 753 0 z "},"N":{"ha":736,"x_min":35,"x_max":668,"o":"m 594 0 l 594 919 l 503 919 l 503 219 l 169 919 l 58 919 l 58 0 l 153 0 l 153 728 l 496 0 l 594 0 m 235 888 l 478 378 l 478 944 l 619 944 l 668 888 l 668 -74 l 535 -74 l 481 -25 l 225 513 l 225 -74 l 90 -74 l 35 -25 l 35 944 l 185 944 l 235 888 z "},"O":{"ha":775,"x_min":33,"x_max":707,"o":"m 531 203 q 508 132 531 158 q 439 106 486 106 l 251 106 q 183 132 206 106 q 160 203 160 158 l 160 715 q 183 788 160 761 q 251 814 206 814 l 439 814 q 508 788 486 814 q 531 715 531 761 l 531 203 m 439 0 q 587 55 540 0 q 633 201 633 110 l 633 715 q 587 864 633 808 q 439 919 540 919 l 251 919 q 105 864 151 919 q 58 715 58 808 l 58 201 q 105 55 58 110 q 251 0 151 0 l 439 0 m 304 -74 q 201 -52 250 -74 q 115 7 151 -31 q 56 94 78 44 q 33 201 33 144 l 33 715 q 86 883 33 821 q 251 944 139 944 l 439 944 q 542 922 494 944 q 626 862 590 900 q 683 773 661 824 q 707 664 704 722 l 707 150 q 656 -14 707 46 q 492 -74 604 -74 l 304 -74 m 506 715 q 505 732 506 724 q 492 740 504 740 l 304 740 q 233 664 233 740 l 233 131 q 242 129 238 129 q 251 129 247 129 l 439 129 q 489 149 472 129 q 506 203 506 169 l 506 715 z "},"P":{"ha":726,"x_min":39,"x_max":681,"o":"m 504 565 q 403 446 504 446 l 167 446 l 167 814 l 403 814 q 504 693 504 814 l 504 565 m 167 0 l 167 349 l 404 349 q 607 565 607 349 l 607 694 q 404 919 607 919 l 64 919 l 64 0 l 167 0 m 39 -25 l 39 944 l 404 944 q 515 920 464 944 q 602 854 565 896 q 660 758 639 813 q 681 643 681 703 l 681 513 q 457 275 681 275 l 240 275 l 240 -74 l 96 -74 l 39 -25 m 479 693 q 477 725 479 710 q 456 740 475 740 l 240 740 l 240 471 l 403 471 q 479 565 479 471 l 479 693 z "},"Q":{"ha":822,"x_min":39,"x_max":799,"o":"m 533 101 l 254 101 q 188 126 210 101 q 167 196 167 151 l 167 719 q 188 789 167 764 q 254 814 210 814 l 446 814 q 512 789 490 814 q 533 719 533 764 l 533 101 m 725 0 l 725 101 l 635 101 l 635 719 q 589 864 635 808 q 446 919 543 919 l 254 919 q 111 864 158 919 q 64 719 64 808 l 64 199 q 111 55 64 110 q 258 0 158 0 l 725 0 m 708 126 l 750 126 l 799 69 l 799 -74 l 311 -74 q 208 -52 257 -74 q 121 6 158 -31 q 61 92 83 43 q 39 199 39 142 l 39 719 q 92 882 39 819 q 254 944 144 944 l 446 944 q 547 922 500 944 q 630 860 594 899 q 686 772 665 822 q 708 668 707 722 l 708 126 m 508 719 q 506 740 508 726 l 307 740 q 257 721 274 740 q 240 668 240 701 l 240 128 q 254 126 244 126 l 508 126 l 508 719 z "},"R":{"ha":746,"x_min":39,"x_max":681,"o":"m 499 563 q 474 490 499 518 q 401 463 450 463 l 167 463 l 167 814 l 393 814 q 499 693 499 814 l 499 563 m 607 0 l 607 254 q 575 368 607 325 q 497 417 543 411 q 568 465 542 428 q 594 575 594 503 l 594 715 q 544 870 594 821 q 393 919 494 919 l 64 919 l 64 0 l 167 0 l 167 365 l 392 365 q 476 333 447 365 q 504 249 504 300 l 504 0 l 607 0 m 39 -25 l 39 944 l 393 944 q 500 923 450 944 q 588 863 550 901 q 647 774 625 825 q 668 663 668 722 l 668 522 q 653 423 668 460 q 608 367 639 386 l 625 350 q 665 288 650 325 q 681 201 681 250 l 681 -74 l 536 -74 l 481 -25 l 481 249 q 476 281 481 268 q 444 293 472 293 l 240 293 l 240 -74 l 96 -74 l 39 -25 m 474 693 q 467 739 474 715 q 456 740 461 739 q 446 740 451 740 l 240 740 l 240 488 l 401 488 q 456 508 439 488 q 474 563 474 529 l 474 693 z "},"S":{"ha":729,"x_min":21,"x_max":669,"o":"m 374 0 q 597 226 597 0 l 597 307 q 390 510 597 510 l 261 510 q 149 619 149 510 l 149 690 q 263 814 149 814 l 565 814 l 565 919 l 263 919 q 46 690 46 919 l 46 619 q 251 413 46 413 l 382 413 q 494 307 494 413 l 494 226 q 374 106 494 106 l 54 106 l 54 0 l 374 0 m 222 567 q 222 553 222 560 q 224 539 222 546 q 261 535 238 535 l 390 535 q 498 513 447 535 q 587 454 549 492 q 647 365 625 417 q 669 254 669 314 l 669 175 q 426 -74 669 -74 l 85 -74 l 29 -25 l 29 129 l 374 129 q 469 226 469 129 l 469 307 q 465 338 469 322 q 450 340 458 339 q 435 340 442 340 l 304 340 q 197 361 247 340 q 106 419 146 382 q 44 508 67 457 q 21 619 21 558 l 21 690 q 263 944 21 944 l 590 944 l 639 888 l 639 740 l 315 740 q 222 638 222 740 l 222 567 z "},"T":{"ha":653,"x_min":4,"x_max":614,"o":"m 335 0 l 335 814 l 540 814 l 540 919 l 29 919 l 29 814 l 232 814 l 232 0 l 335 0 m 4 789 l 4 944 l 565 944 l 614 888 l 614 740 l 408 740 l 408 -74 l 264 -74 l 207 -25 l 207 740 l 60 740 l 4 789 z "},"U":{"ha":768,"x_min":35,"x_max":697,"o":"m 404 0 q 624 224 624 0 l 624 919 l 522 919 l 522 224 q 408 106 522 106 l 278 106 q 163 224 163 106 l 163 919 l 60 919 l 60 224 q 281 0 60 0 l 404 0 m 236 156 q 247 132 236 135 q 278 129 258 129 l 408 129 q 497 224 497 129 l 497 944 l 649 944 l 697 888 l 697 172 q 457 -74 697 -74 l 333 -74 q 219 -51 274 -74 q 124 10 165 -29 q 59 104 83 50 q 35 224 35 158 l 35 944 l 188 944 l 236 888 l 236 172 l 236 156 z "},"V":{"ha":739,"x_min":-11,"x_max":714,"o":"m 390 0 l 635 919 l 532 919 l 335 153 l 132 919 l 21 919 l 272 0 l 390 0 m 200 888 l 350 317 l 514 944 l 667 944 l 714 888 l 458 -74 l 310 -74 l 254 -25 l -11 944 l 151 944 l 200 888 z "},"W":{"ha":1101,"x_min":-11,"x_max":1076,"o":"m 788 0 l 997 919 l 897 919 l 733 167 l 560 919 l 465 919 l 292 167 l 128 919 l 21 919 l 232 0 l 343 0 l 511 715 l 672 0 l 788 0 m 629 888 l 749 364 l 876 944 l 1029 944 l 1076 888 l 857 -74 l 708 -74 l 651 -25 l 540 467 l 413 -74 l 268 -74 l 211 -25 l -11 944 l 149 944 l 197 888 l 311 368 l 444 944 l 581 944 l 629 888 z "},"X":{"ha":719,"x_min":-22,"x_max":704,"o":"m 614 0 l 385 468 l 618 919 l 517 919 l 335 558 l 158 919 l 43 919 l 267 468 l 18 0 l 125 0 l 315 378 l 493 0 l 614 0 m 224 888 l 344 636 l 503 944 l 658 944 l 704 888 l 458 414 l 699 -74 l 532 -74 l 478 -25 l 349 246 l 189 -74 l 36 -74 l -22 -25 l 240 469 l 4 944 l 175 944 l 224 888 z "},"Y":{"ha":728,"x_min":-25,"x_max":715,"o":"m 371 0 l 371 424 l 628 919 l 525 919 l 325 533 l 128 919 l 15 919 l 269 424 l 269 0 l 371 0 m 192 888 l 335 607 l 510 944 l 669 944 l 715 888 l 444 367 l 444 -74 l 300 -74 l 244 -25 l 244 418 l -25 944 l 142 944 l 192 888 z "},"Z":{"ha":668,"x_min":22,"x_max":610,"o":"m 536 0 l 536 106 l 168 106 l 536 860 l 536 919 l 47 919 l 47 814 l 410 814 l 47 82 l 47 0 l 536 0 m 279 129 l 561 129 l 610 74 l 610 -74 l 79 -74 l 22 -25 l 22 88 l 343 740 l 79 740 l 22 789 l 22 944 l 561 944 l 610 888 l 610 804 l 279 129 z "},"[":{"ha":556,"x_min":106,"x_max":485,"o":"m 411 -197 l 411 -110 l 232 -110 l 232 1028 l 411 1028 l 411 1113 l 131 1113 l 131 -197 l 411 -197 m 306 -85 l 436 -85 l 485 -142 l 485 -269 l 163 -269 l 106 -222 l 106 1138 l 436 1138 l 485 1081 l 485 954 l 306 954 l 306 -85 z "},"\\":{"ha":690,"x_min":-31,"x_max":683,"o":"m 599 -36 l 111 954 l 10 954 l 493 -36 l 599 -36 m 478 -61 l -31 979 l 128 979 l 176 924 l 683 -110 l 532 -110 l 478 -61 z "},"]":{"ha":557,"x_min":35,"x_max":414,"o":"m 340 -197 l 340 1113 l 60 1113 l 60 1028 l 239 1028 l 239 -110 l 60 -110 l 60 -197 l 340 -197 m 35 1003 l 35 1138 l 365 1138 l 414 1081 l 414 -269 l 92 -269 l 35 -222 l 35 -85 l 214 -85 l 214 954 l 92 954 l 35 1003 z "},"^":{"ha":829,"x_min":25,"x_max":767,"o":"m 682 339 l 408 919 l 331 919 l 64 339 l 156 339 l 369 796 l 583 339 l 682 339 m 25 314 l 314 944 l 424 944 l 474 888 l 767 265 l 622 265 l 567 314 l 406 656 l 224 265 l 83 265 l 25 314 z "},"_":{"ha":689,"x_min":-25,"x_max":682,"o":"m 608 -161 l 608 -86 l 0 -86 l 0 -161 l 608 -161 m -25 -186 l -25 -61 l 633 -61 l 682 -118 l 682 -235 l 32 -235 l -25 -186 z "},"`":{"ha":521,"x_min":15,"x_max":469,"o":"m 361 729 l 388 763 l 88 965 l 51 913 l 361 729 m 15 904 l 82 999 l 422 769 l 469 715 l 418 649 l 74 854 l 15 904 z "},"a":{"ha":711,"x_min":26,"x_max":642,"o":"m 472 94 l 219 94 q 143 172 143 94 l 143 240 q 219 319 143 319 l 472 319 l 472 94 m 568 0 l 568 461 q 371 672 568 672 l 89 672 l 89 571 l 371 571 q 472 458 472 571 l 472 407 l 211 407 q 51 257 51 407 l 51 158 q 90 40 51 79 q 211 0 128 0 l 568 0 m 64 546 l 64 697 l 371 697 q 477 674 428 697 q 563 612 526 651 q 621 520 600 572 q 642 410 642 468 l 642 -74 l 264 -74 q 175 -56 218 -74 q 99 -8 132 -39 q 47 66 67 24 q 26 158 26 108 l 26 257 q 71 388 26 344 q 211 432 115 432 l 447 432 l 447 458 q 444 486 447 475 q 424 497 442 497 l 121 497 l 64 546 m 447 246 l 271 246 q 217 188 217 246 l 217 119 l 447 119 l 447 246 z "},"b":{"ha":718,"x_min":39,"x_max":650,"o":"m 479 214 q 376 101 479 101 l 163 101 l 163 571 l 376 571 q 479 458 479 571 l 479 214 m 381 0 q 576 211 576 0 l 576 461 q 381 672 576 672 l 163 672 l 163 919 l 64 919 l 64 0 l 381 0 m 236 697 l 381 697 q 488 674 439 697 q 574 612 538 651 q 630 520 610 572 q 650 410 650 468 l 650 158 q 433 -74 650 -74 l 96 -74 l 39 -25 l 39 944 l 188 936 l 236 888 l 236 697 m 454 458 q 449 486 454 475 q 429 497 444 497 l 236 497 l 236 126 l 376 126 q 454 214 454 126 l 454 458 z "},"c":{"ha":633,"x_min":33,"x_max":567,"o":"m 493 0 l 493 101 l 257 101 q 156 214 156 101 l 156 451 q 257 571 156 571 l 490 571 l 490 672 l 254 672 q 58 456 58 672 l 58 211 q 254 0 58 0 l 493 0 m 229 161 q 257 126 229 126 l 518 126 l 567 69 l 567 -74 l 307 -74 q 200 -51 250 -74 q 113 9 150 -29 q 55 99 76 47 q 33 211 33 151 l 33 456 q 254 697 33 697 l 515 697 l 564 642 l 564 497 l 310 497 q 229 399 229 497 l 229 161 z "},"d":{"ha":718,"x_min":33,"x_max":644,"o":"m 471 101 l 258 101 q 156 214 156 101 l 156 458 q 258 571 156 571 l 471 571 l 471 101 m 571 0 l 571 919 l 471 919 l 471 672 l 254 672 q 58 461 58 672 l 58 211 q 254 0 58 0 l 571 0 m 307 -74 q 200 -51 250 -74 q 113 9 150 -29 q 55 99 76 47 q 33 211 33 151 l 33 461 q 254 697 33 697 l 446 697 l 446 944 l 596 944 l 644 888 l 644 -74 l 307 -74 m 446 497 l 311 497 q 229 406 229 497 l 229 161 q 233 135 229 143 q 258 126 236 126 l 446 126 l 446 497 z "},"e":{"ha":713,"x_min":33,"x_max":646,"o":"m 478 382 l 153 382 l 153 464 q 254 576 153 576 l 375 576 q 478 464 478 576 l 478 382 m 553 0 l 553 101 l 254 101 q 153 214 153 101 l 153 294 l 572 294 l 572 461 q 374 672 572 672 l 254 672 q 58 461 58 672 l 58 211 q 254 0 58 0 l 553 0 m 226 161 q 232 135 226 144 q 258 126 238 126 l 578 126 l 626 69 l 626 -74 l 307 -74 q 200 -51 250 -74 q 113 9 150 -29 q 55 99 76 47 q 33 211 33 151 l 33 461 q 254 697 33 697 l 374 697 q 481 674 431 697 q 567 613 531 651 q 625 521 604 574 q 646 410 646 468 l 646 222 l 226 222 l 226 161 m 453 464 q 448 492 453 481 q 422 504 443 504 l 307 504 q 226 411 226 504 l 226 407 l 453 407 l 453 464 z "},"f":{"ha":449,"x_min":35,"x_max":410,"o":"m 160 0 l 160 586 l 336 586 l 336 672 l 156 672 l 156 738 q 239 829 156 829 l 326 829 l 326 919 l 236 919 q 60 726 60 919 l 60 0 l 160 0 m 292 756 q 229 697 235 756 l 361 697 l 410 642 l 410 513 l 233 513 l 233 -74 l 92 -74 l 35 -25 l 35 726 q 236 944 35 944 l 351 944 l 400 888 l 400 756 l 292 756 z "},"g":{"ha":719,"x_min":33,"x_max":646,"o":"m 474 151 l 258 151 q 156 261 156 151 l 156 458 q 258 571 156 571 l 474 571 l 474 151 m 386 -208 q 574 8 574 -208 l 574 672 l 254 672 q 58 461 58 672 l 58 265 q 254 58 58 58 l 474 58 l 474 4 q 376 -115 474 -115 l 169 -115 l 169 -208 l 386 -208 m 307 -14 q 201 7 250 -14 q 114 65 151 28 q 55 153 76 103 q 33 265 33 204 l 33 461 q 254 697 33 697 l 599 697 l 646 642 l 646 -44 q 438 -282 646 -282 l 200 -282 l 144 -233 l 144 -90 l 376 -90 q 447 -14 442 -90 l 307 -14 m 449 497 l 311 497 q 229 406 229 497 l 229 208 q 237 184 229 192 q 265 176 244 176 l 449 176 l 449 497 z "},"h":{"ha":739,"x_min":39,"x_max":669,"o":"m 596 0 l 596 467 q 443 672 596 672 l 301 672 q 213 654 243 672 q 163 590 182 636 l 163 919 l 64 919 l 64 0 l 163 0 l 163 458 q 183 544 163 517 q 254 571 203 571 l 418 571 q 497 460 497 571 l 497 0 l 596 0 m 236 692 q 301 697 257 697 l 443 697 q 528 674 488 697 q 601 611 569 650 q 651 521 632 572 q 669 414 669 469 l 669 -74 l 528 -74 l 472 -25 l 472 460 q 468 497 472 481 l 307 497 q 251 475 267 497 q 236 407 236 453 l 236 -74 l 96 -74 l 39 -25 l 39 944 l 188 944 l 236 888 l 236 692 z "},"i":{"ha":325,"x_min":46,"x_max":244,"o":"m 171 0 l 171 672 l 71 672 l 71 0 l 171 0 m 171 763 l 171 919 l 71 919 l 71 763 l 171 763 m 46 -25 l 46 944 l 196 944 l 244 888 l 244 -74 l 103 -74 l 46 -25 z "},"j":{"ha":364,"x_min":-78,"x_max":290,"o":"m 217 763 l 217 919 l 117 919 l 117 763 l 217 763 m 29 -208 q 217 8 217 -208 l 217 672 l 117 672 l 117 4 q 18 -115 117 -115 l -53 -115 l -53 -208 l 29 -208 m -78 -233 l -78 -90 l 18 -90 q 92 4 92 -90 l 92 944 l 242 944 l 290 888 l 290 -44 q 82 -282 290 -282 l -21 -282 l -78 -233 z "},"k":{"ha":706,"x_min":39,"x_max":692,"o":"m 571 0 l 571 199 q 560 269 571 236 q 528 328 550 303 q 471 367 506 353 q 389 382 436 382 l 271 382 l 585 672 l 463 672 l 163 381 l 163 919 l 64 919 l 64 0 l 163 0 l 163 304 l 364 304 q 445 279 418 304 q 472 175 472 254 l 472 0 l 571 0 m 435 403 q 517 370 478 394 q 583 310 556 346 q 628 233 611 275 q 644 146 644 190 l 644 -74 l 504 -74 l 447 -25 l 447 175 q 444 217 447 203 q 417 231 442 231 l 236 231 l 236 -74 l 96 -74 l 39 -25 l 39 944 l 188 944 l 236 888 l 236 485 l 454 697 l 647 697 l 692 642 l 435 403 z "},"l":{"ha":311,"x_min":39,"x_max":236,"o":"m 163 0 l 163 919 l 64 919 l 64 0 l 163 0 m 39 -25 l 39 944 l 188 944 l 236 888 l 236 -74 l 96 -74 l 39 -25 z "},"m":{"ha":1058,"x_min":39,"x_max":988,"o":"m 914 0 l 914 467 q 763 672 914 672 l 664 672 q 572 651 610 672 q 517 575 533 629 q 469 649 503 625 q 388 672 436 672 l 297 672 q 210 654 242 672 q 158 590 178 636 l 158 672 l 64 672 l 64 0 l 163 0 l 163 458 q 183 544 163 517 q 254 571 203 571 l 361 571 q 419 544 399 571 q 440 460 440 518 l 440 0 l 538 0 l 538 460 q 559 544 538 518 q 619 571 581 571 l 738 571 q 815 460 815 571 l 815 0 l 914 0 m 39 -25 l 39 697 l 183 697 l 196 676 q 239 693 215 689 q 297 697 263 697 l 388 697 q 464 683 432 697 q 517 636 496 668 q 578 684 540 671 q 664 697 615 697 l 763 697 q 847 674 806 697 q 919 611 888 650 q 969 521 950 572 q 988 414 988 469 l 988 -74 l 847 -74 l 790 -25 l 790 460 q 786 497 790 481 l 671 497 q 627 476 643 497 q 611 408 611 456 l 611 -74 l 472 -74 l 415 -25 l 415 460 q 411 497 415 481 l 307 497 q 251 475 267 497 q 236 407 236 453 l 236 -74 l 96 -74 l 39 -25 z "},"n":{"ha":742,"x_min":39,"x_max":669,"o":"m 597 0 l 597 467 q 446 672 597 672 l 297 672 q 210 654 242 672 q 158 590 178 636 l 158 672 l 64 672 l 64 0 l 163 0 l 163 458 q 183 544 163 517 q 254 571 203 571 l 421 571 q 500 460 500 571 l 500 0 l 597 0 m 39 -25 l 39 697 l 183 697 l 196 676 q 239 693 215 689 q 297 697 263 697 l 446 697 q 542 672 500 697 q 612 606 583 646 q 655 515 640 565 q 669 414 669 464 l 669 -74 l 531 -74 l 475 -25 l 475 460 q 471 497 475 481 l 307 497 q 251 475 267 497 q 236 407 236 453 l 236 -74 l 96 -74 l 39 -25 z "},"o":{"ha":729,"x_min":33,"x_max":661,"o":"m 489 194 q 404 101 489 101 l 240 101 q 174 130 193 101 q 156 210 156 158 l 156 478 q 240 571 156 571 l 404 571 q 469 542 450 571 q 489 461 489 514 l 489 194 m 408 0 q 549 57 510 0 q 588 228 588 114 l 588 444 q 578 552 588 508 q 544 622 568 596 q 477 660 519 649 q 369 672 435 672 l 275 672 q 171 662 213 672 q 104 626 129 651 q 69 556 79 600 q 58 444 58 511 l 58 228 q 68 120 58 164 q 102 50 78 76 q 168 12 126 24 q 275 0 210 0 l 408 0 m 328 -74 q 108 1 182 -74 q 33 228 33 76 l 33 444 q 45 568 33 519 q 85 646 57 617 q 160 686 114 675 q 275 697 206 697 l 369 697 q 588 618 515 697 q 661 392 661 539 l 661 176 q 617 -12 661 50 q 460 -74 574 -74 l 328 -74 m 464 461 q 460 497 464 481 l 293 497 q 229 425 229 497 l 229 157 q 229 141 229 149 q 231 126 229 133 l 404 126 q 464 194 464 126 l 464 461 z "},"p":{"ha":717,"x_min":39,"x_max":649,"o":"m 478 214 q 376 101 478 101 l 163 101 l 163 571 l 376 571 q 456 535 435 571 q 478 433 478 500 l 478 214 m 379 0 q 575 211 575 0 l 575 413 q 533 608 575 543 q 379 672 490 672 l 64 672 l 64 -210 l 163 -210 l 163 0 l 379 0 m 39 -235 l 39 697 l 379 697 q 501 669 450 697 q 585 595 551 642 q 633 488 618 549 q 649 361 649 428 l 649 158 q 432 -74 649 -74 l 236 -74 l 236 -283 l 96 -283 l 39 -235 m 453 433 q 444 496 453 471 q 429 497 440 497 l 236 497 l 236 126 l 376 126 q 453 214 453 126 l 453 433 z "},"q":{"ha":719,"x_min":33,"x_max":646,"o":"m 474 101 l 258 101 q 156 214 156 101 l 156 458 q 258 571 156 571 l 474 571 l 474 101 m 572 -210 l 572 672 l 254 672 q 58 461 58 672 l 58 211 q 254 0 58 0 l 474 0 l 474 -210 l 572 -210 m 307 -74 q 200 -51 250 -74 q 113 9 150 -29 q 55 99 76 47 q 33 211 33 151 l 33 461 q 254 697 33 697 l 597 697 l 646 642 l 646 -283 l 504 -283 l 449 -235 l 449 -74 l 307 -74 m 449 497 l 311 497 q 229 406 229 497 l 229 161 q 233 135 229 143 q 258 126 236 126 l 449 126 l 449 497 z "},"r":{"ha":556,"x_min":39,"x_max":508,"o":"m 163 0 l 163 458 q 183 544 163 517 q 254 571 203 571 l 435 571 l 435 672 l 297 672 q 210 654 242 672 q 158 590 178 636 l 158 672 l 64 672 l 64 0 l 163 0 m 39 -25 l 39 697 l 183 697 l 196 676 q 239 693 215 689 q 297 697 263 697 l 460 697 l 508 642 l 508 497 l 307 497 q 251 475 267 497 q 236 407 236 453 l 236 -74 l 96 -74 l 39 -25 z "},"s":{"ha":708,"x_min":19,"x_max":649,"o":"m 401 0 q 536 47 497 0 q 575 190 575 94 l 575 233 q 528 349 575 315 q 403 382 482 382 l 228 382 q 160 405 183 382 q 138 468 138 428 l 138 489 q 158 551 138 531 q 217 571 179 571 l 544 571 l 544 672 l 243 672 q 154 663 192 672 q 92 633 117 654 q 56 577 68 613 q 44 488 44 542 l 44 458 q 92 334 44 368 q 228 300 140 300 l 399 300 q 459 281 438 300 q 481 225 481 261 l 481 178 q 399 101 481 101 l 60 101 l 60 0 l 401 0 m 211 408 q 228 407 215 407 l 403 407 q 493 390 449 407 q 572 344 538 374 q 628 272 607 314 q 649 181 649 231 l 649 138 q 605 -22 649 31 q 454 -74 561 -74 l 92 -74 l 35 -25 l 35 126 l 399 126 q 457 178 457 126 l 457 226 l 281 226 q 185 242 232 226 q 102 289 139 258 q 42 362 65 319 q 19 458 19 404 l 19 488 q 33 588 19 547 q 74 653 46 629 q 143 687 101 676 q 243 697 185 697 l 569 697 l 618 642 l 618 497 l 269 497 q 211 436 211 497 l 211 408 z "},"t":{"ha":463,"x_min":35,"x_max":403,"o":"m 326 0 l 326 93 l 257 93 q 160 211 160 93 l 160 586 l 329 586 l 329 672 l 160 672 l 160 903 l 60 903 l 60 215 q 247 0 60 0 l 326 0 m 233 158 q 239 131 233 143 q 264 118 244 118 l 351 118 l 400 61 l 400 -74 l 300 -74 q 195 -50 243 -74 q 111 13 147 -26 q 55 105 75 53 q 35 215 35 157 l 35 926 l 185 926 l 233 871 l 233 697 l 354 697 l 403 642 l 403 513 l 233 513 l 233 158 z "},"u":{"ha":731,"x_min":35,"x_max":657,"o":"m 231 140 q 232 126 231 128 l 392 126 q 444 147 429 126 q 460 213 460 168 l 460 697 l 608 697 l 657 642 l 657 -74 l 519 -74 l 499 -53 q 401 -74 461 -74 l 265 -74 q 169 -49 213 -74 q 97 15 126 -25 q 51 104 67 54 q 35 206 35 154 l 35 697 l 182 697 l 231 642 l 231 140 m 583 0 l 583 672 l 485 672 l 485 213 q 464 128 485 154 q 392 101 443 101 l 238 101 q 157 211 157 101 l 157 672 l 60 672 l 60 206 q 213 0 60 0 l 349 0 q 438 18 407 0 q 488 82 468 36 l 488 0 l 583 0 z "},"v":{"ha":685,"x_min":-12,"x_max":663,"o":"m 353 0 l 581 672 l 476 672 l 303 131 l 129 672 l 21 672 l 250 0 l 353 0 m 199 642 l 318 260 l 458 697 l 615 697 l 663 642 l 419 -74 l 289 -74 l 233 -25 l -12 697 l 149 697 l 199 642 z "},"w":{"ha":983,"x_min":-11,"x_max":958,"o":"m 686 0 l 879 672 l 781 672 l 639 139 l 497 672 l 406 672 l 265 139 l 124 672 l 21 672 l 214 0 l 308 0 l 447 525 l 586 0 l 686 0 m 565 642 l 654 296 l 763 697 l 911 697 l 958 642 l 754 -74 l 622 -74 l 568 -25 l 478 310 l 376 -74 l 250 -74 l 196 -25 l -11 697 l 142 697 l 192 642 l 281 299 l 388 697 l 515 697 l 565 642 z "},"x":{"ha":699,"x_min":-22,"x_max":683,"o":"m 588 0 l 369 340 l 592 672 l 490 672 l 322 408 l 160 672 l 46 672 l 254 340 l 25 0 l 131 0 l 303 272 l 469 0 l 588 0 m 224 642 l 329 468 l 476 697 l 638 697 l 683 642 l 447 289 l 678 -74 l 510 -74 l 456 -25 l 342 158 l 196 -74 l 38 -74 l -22 -25 l 224 340 l -1 697 l 175 697 l 224 642 z "},"y":{"ha":713,"x_min":35,"x_max":640,"o":"m 379 -208 q 567 8 567 -208 l 567 672 l 467 672 l 467 151 l 261 151 q 158 261 158 151 l 158 672 l 60 672 l 60 265 q 257 58 60 58 l 467 58 l 467 4 q 369 -115 467 -115 l 179 -115 l 179 -208 l 379 -208 m 232 208 q 236 184 232 192 q 261 176 240 176 l 442 176 l 442 697 l 592 697 l 640 642 l 640 -44 q 432 -282 640 -282 l 211 -282 l 154 -233 l 154 -90 l 369 -90 q 440 -14 435 -90 l 310 -14 q 203 7 253 -14 q 115 65 153 28 q 56 153 78 103 q 35 265 35 204 l 35 697 l 183 697 l 232 642 l 232 208 z "},"z":{"ha":650,"x_min":22,"x_max":593,"o":"m 519 0 l 519 97 l 188 97 l 519 611 l 519 672 l 47 672 l 47 575 l 379 575 l 47 68 l 47 0 l 519 0 m 315 122 l 544 122 l 593 65 l 593 -74 l 79 -74 l 22 -25 l 22 76 l 300 501 l 79 501 l 22 550 l 22 697 l 544 697 l 593 642 l 593 553 l 315 122 z "},"{":{"ha":613,"x_min":61,"x_max":544,"o":"m 471 -197 l 471 -106 l 385 -106 q 314 -71 344 -106 q 283 47 283 -36 l 283 346 q 272 423 283 394 q 229 471 260 451 q 283 597 283 506 l 283 851 q 314 981 283 942 q 388 1021 344 1021 l 471 1021 l 471 1113 l 364 1113 q 298 1103 331 1113 q 240 1072 265 1093 q 197 1014 214 1050 q 181 925 181 978 l 181 622 q 140 522 181 522 l 86 522 l 86 425 l 140 425 q 171 400 161 425 q 181 317 181 375 l 181 11 q 197 -90 181 -50 q 241 -154 214 -131 q 301 -187 268 -178 q 365 -197 333 -197 l 471 -197 m 315 418 q 349 362 340 393 q 357 293 357 331 l 357 -6 q 365 -78 357 -49 q 385 -81 379 -81 l 496 -81 l 544 -136 l 544 -269 l 418 -269 q 319 -247 367 -269 q 235 -186 272 -225 q 177 -97 199 -147 q 156 11 156 -46 l 156 317 q 156 335 156 326 q 154 351 156 343 l 118 351 l 61 400 l 61 547 l 140 547 q 156 622 156 547 l 156 925 q 174 1025 156 985 q 223 1090 193 1065 q 290 1126 253 1115 q 364 1138 326 1138 l 496 1138 l 544 1081 l 544 949 l 439 949 q 381 913 406 949 q 357 799 357 878 l 357 544 q 315 418 357 464 z "},"|":{"ha":578,"x_min":164,"x_max":376,"o":"m 303 -167 l 303 1114 l 189 1114 l 189 -167 l 303 -167 m 164 -192 l 164 1139 l 328 1139 l 376 1082 l 376 -240 l 221 -240 l 164 -192 z "},"}":{"ha":613,"x_min":35,"x_max":517,"o":"m 163 -197 q 227 -187 194 -197 q 287 -154 260 -178 q 331 -90 314 -131 q 347 11 347 -50 l 347 317 q 358 400 347 375 q 388 425 368 425 l 443 425 l 443 522 l 388 522 q 347 622 347 522 l 347 925 q 331 1014 347 978 q 288 1072 314 1050 q 230 1103 263 1093 q 164 1113 197 1113 l 60 1113 l 60 1021 l 143 1021 q 215 982 185 1021 q 246 851 246 943 l 246 597 q 299 471 246 507 q 258 423 271 451 q 246 346 246 394 l 246 47 q 215 -71 246 -36 q 144 -106 185 -106 l 60 -106 l 60 -197 l 163 -197 m 421 571 q 420 558 421 564 q 419 547 419 551 l 468 547 l 517 490 l 517 351 l 440 351 q 426 331 431 351 q 421 264 421 311 l 421 -42 q 402 -153 421 -110 q 353 -223 383 -197 q 287 -259 324 -249 q 215 -269 250 -269 l 92 -269 l 35 -222 l 35 -81 l 144 -81 q 198 -52 174 -81 q 222 47 222 -24 l 222 346 q 260 469 222 428 q 231 523 239 492 q 222 597 222 554 l 222 851 q 221 883 222 865 q 217 915 219 900 q 209 939 214 929 q 196 949 204 949 l 92 949 l 43 997 l 35 997 l 35 1138 l 164 1138 q 263 1115 215 1138 q 344 1056 310 1093 q 400 972 379 1019 q 421 872 421 924 l 421 571 z "},"~":{"ha":893,"x_min":35,"x_max":824,"o":"m 750 582 q 667 488 714 515 q 558 460 621 460 q 481 478 518 460 q 405 520 443 497 q 325 563 367 543 q 233 582 283 582 q 127 560 169 582 q 60 499 85 538 l 60 376 q 143 461 100 439 q 238 483 186 483 q 320 465 281 483 q 397 424 360 446 q 473 383 435 401 q 553 364 511 364 q 750 451 688 364 l 750 582 m 824 540 l 824 392 q 606 292 749 292 q 522 310 561 292 q 444 351 482 329 q 368 392 406 374 q 290 411 331 411 q 198 377 244 411 q 92 253 151 343 l 35 292 l 35 506 q 113 579 65 551 q 233 607 161 607 q 329 588 285 607 q 413 545 374 568 q 487 503 451 522 q 558 485 522 485 q 657 513 614 485 q 735 607 700 540 l 775 596 l 824 540 z "}," ":{"ha":251,"x_min":0,"x_max":0,"o":""},"¡":{"ha":369,"x_min":69,"x_max":268,"o":"m 94 919 l 94 722 l 194 722 l 194 919 l 94 919 m 96 649 l 96 0 l 194 0 l 194 649 l 96 649 m 219 944 l 268 888 l 268 -74 l 128 -74 l 69 -25 l 69 944 l 219 944 z "},"¢":{"ha":743,"x_min":33,"x_max":671,"o":"m 599 88 l 599 193 l 299 193 q 201 229 231 193 q 171 340 171 265 l 171 578 q 201 690 171 653 q 299 726 231 726 l 599 726 l 599 832 l 400 832 l 400 919 l 342 919 l 342 832 l 276 832 q 109 772 160 832 q 58 589 58 711 l 58 331 q 109 147 58 206 q 276 88 160 88 l 342 88 l 342 0 l 400 0 l 400 88 l 599 88 m 244 288 q 250 225 244 246 q 299 218 275 218 l 622 218 l 671 161 l 671 14 l 474 14 l 474 -74 l 374 -74 l 317 -25 l 317 14 q 201 39 253 14 q 111 108 149 64 q 53 208 74 151 q 33 331 33 265 l 33 589 q 90 790 33 724 q 276 857 147 857 l 317 857 l 317 944 l 425 944 l 474 888 l 474 857 l 622 857 l 671 800 l 671 653 l 351 653 q 269 621 293 653 q 244 526 244 589 l 244 288 z "},"£":{"ha":861,"x_min":39,"x_max":788,"o":"m 711 0 l 711 129 l 317 129 l 317 407 l 707 407 l 707 504 l 317 504 l 317 606 q 355 746 317 701 q 476 790 393 790 l 715 790 l 715 919 l 447 919 q 242 846 308 919 q 176 621 176 772 l 176 504 l 64 504 l 64 407 l 176 407 l 176 129 l 65 129 l 65 0 l 711 0 m 389 153 l 736 153 l 785 97 l 785 -74 l 97 -74 l 40 -25 l 40 153 l 153 153 l 153 333 l 96 333 l 39 382 l 39 528 l 153 528 l 153 621 q 224 865 153 785 q 447 944 296 944 l 739 944 l 788 888 l 788 717 l 528 717 q 389 553 389 717 l 389 528 l 732 528 l 781 472 l 781 333 l 389 333 l 389 153 z "},"¤":{"ha":731,"x_min":26,"x_max":669,"o":"m 492 442 q 478 380 492 408 q 443 330 465 351 q 390 296 421 308 q 325 283 360 283 q 260 296 290 283 q 208 330 231 308 q 172 380 185 351 q 158 442 158 408 q 172 502 158 474 q 208 552 185 531 q 260 586 231 574 q 325 599 290 599 q 390 586 360 599 q 443 552 421 574 q 478 502 465 531 q 492 442 492 474 m 532 185 l 588 240 l 513 317 q 558 442 558 368 q 546 510 558 478 q 511 568 533 543 l 588 646 l 532 701 l 453 619 q 325 657 396 657 q 196 618 251 657 l 114 701 l 60 646 l 138 567 q 92 442 92 513 q 103 375 92 406 q 136 317 115 344 l 60 240 l 114 185 l 196 267 q 256 236 224 247 q 325 225 289 225 q 454 265 397 225 l 532 185 m 500 183 q 378 153 443 153 q 310 162 342 153 q 250 188 279 171 l 165 103 l 26 240 l 104 318 q 67 442 67 374 q 76 508 67 478 q 106 565 85 538 l 26 646 l 114 739 l 200 650 q 260 674 226 665 q 325 682 293 682 q 389 674 357 682 q 449 651 421 665 l 531 738 l 669 593 l 592 514 q 621 456 610 489 q 632 389 632 424 q 594 268 632 318 l 669 188 l 585 104 l 500 183 m 467 442 q 461 476 467 460 q 447 508 456 493 q 378 526 415 526 q 321 515 347 526 q 274 485 294 504 q 243 442 254 467 q 232 389 232 417 q 234 360 232 374 q 243 333 236 346 q 325 308 278 308 q 426 347 385 308 q 467 442 467 386 z "},"¥":{"ha":1004,"x_min":13,"x_max":950,"o":"m 532 0 l 532 326 l 786 326 l 786 403 l 532 403 l 532 504 l 856 921 l 731 921 l 465 572 l 201 921 l 64 921 l 393 493 l 393 403 l 132 403 l 132 326 l 393 326 l 393 0 l 532 0 m 606 428 l 810 428 l 858 371 l 858 253 l 606 253 l 606 -74 l 425 -74 l 368 -25 l 368 253 l 164 253 l 107 301 l 107 428 l 368 428 l 368 483 l 13 946 l 214 946 l 265 889 l 469 619 l 718 946 l 906 946 l 950 889 l 606 443 l 606 428 z "},"¦":{"ha":578,"x_min":164,"x_max":376,"o":"m 303 1114 l 189 1114 l 189 519 l 303 519 l 303 1114 m 303 -167 l 303 456 l 189 456 l 189 -167 l 303 -167 m 376 1082 l 376 -240 l 221 -240 l 164 -192 l 164 1139 l 328 1139 l 376 1082 z "},"§":{"ha":781,"x_min":33,"x_max":714,"o":"m 517 207 l 297 207 q 207 238 233 207 q 181 332 181 269 l 181 475 l 399 475 q 491 444 465 475 q 517 350 517 413 l 517 207 m 433 -236 q 595 -183 550 -236 q 640 -29 640 -129 l 640 364 q 628 453 640 414 q 589 519 617 493 q 515 560 561 546 q 399 574 468 574 l 181 574 l 181 693 q 206 786 181 756 q 297 817 231 817 l 443 817 l 443 919 l 264 919 q 166 906 206 919 q 102 865 126 892 q 68 800 78 839 q 58 711 58 761 l 58 318 q 69 228 58 268 q 108 163 81 189 q 181 122 135 136 q 296 108 226 108 l 517 108 l 517 -11 q 491 -103 517 -74 q 399 -133 465 -133 l 253 -133 l 253 -236 l 433 -236 m 254 599 l 399 599 q 519 580 463 599 q 619 525 576 561 q 688 435 663 489 q 714 313 714 382 l 714 -82 q 664 -251 714 -192 q 485 -310 614 -310 l 285 -310 l 228 -261 l 228 -108 l 399 -108 q 472 -84 451 -108 q 492 -11 492 -60 l 492 35 l 349 35 q 229 53 286 35 q 128 106 172 71 q 59 194 85 142 q 33 318 33 247 l 33 711 q 44 810 33 767 q 83 884 56 854 q 154 929 110 914 q 264 944 199 944 l 468 944 l 517 888 l 517 743 l 350 743 q 276 717 297 743 q 254 640 254 692 l 254 599 m 492 350 q 485 397 492 374 q 451 401 472 401 l 254 401 l 254 279 l 254 261 q 266 234 254 236 q 297 232 278 232 l 492 232 l 492 350 z "},"¨":{"ha":594,"x_min":35,"x_max":528,"o":"m 167 768 l 167 925 l 60 925 l 60 768 l 167 768 m 454 768 l 454 925 l 349 925 l 349 768 l 454 768 m 35 743 l 35 950 l 192 950 l 240 893 l 240 694 l 92 694 l 35 743 m 324 743 l 324 950 l 479 950 l 528 893 l 528 694 l 381 694 l 324 743 z "},"©":{"ha":1136,"x_min":29,"x_max":1072,"o":"m 689 256 l 689 336 l 469 336 q 407 401 407 336 l 407 528 q 469 593 407 593 l 689 593 l 689 672 l 453 672 q 319 538 319 672 l 319 390 q 453 256 319 256 l 689 256 m 919 458 q 889 305 919 376 q 805 181 858 233 q 680 97 751 128 q 526 65 608 65 q 373 97 444 65 q 248 181 301 128 q 163 305 194 233 q 132 458 132 376 q 163 610 132 539 q 248 735 194 682 q 373 819 301 789 q 526 850 444 850 q 680 819 608 850 q 805 735 751 789 q 889 610 858 682 q 919 458 919 539 m 526 -14 q 710 24 624 -14 q 860 126 796 61 q 961 276 924 190 q 999 458 999 361 q 961 642 999 556 q 860 793 924 729 q 710 894 796 857 q 526 932 624 932 q 343 894 429 932 q 193 793 257 857 q 92 642 129 729 q 54 458 54 556 q 92 276 54 361 q 193 126 129 190 q 343 24 257 61 q 526 -14 429 -14 m 578 -87 q 378 -42 476 -87 q 203 78 281 3 q 77 253 125 154 q 29 458 29 351 q 68 653 29 563 q 174 811 107 743 q 333 918 242 879 q 526 957 424 957 q 732 910 633 957 q 906 788 831 864 q 1027 612 982 711 q 1072 407 1072 513 q 1033 215 1072 304 q 928 58 994 125 q 771 -49 861 -10 q 578 -87 681 -87 m 894 458 q 872 586 894 528 q 809 687 850 644 q 709 753 768 729 q 578 776 650 776 q 433 747 500 776 q 315 668 365 718 q 235 551 264 618 q 206 407 206 483 q 227 280 206 338 q 290 180 249 222 q 390 114 331 138 q 526 90 450 90 q 670 119 603 90 q 788 199 738 149 q 866 315 838 249 q 894 458 894 382 m 481 361 l 714 361 l 763 304 l 763 182 l 504 182 q 426 199 464 182 q 358 243 388 215 q 312 309 329 271 q 294 390 294 347 l 294 538 q 332 658 294 618 q 453 697 369 697 l 714 697 l 763 642 l 763 519 l 522 519 q 481 476 481 519 l 481 361 z "},"ª":{"ha":507,"x_min":42,"x_max":425,"o":"m 299 446 l 160 446 q 118 488 118 446 l 118 526 q 160 569 118 569 l 299 569 l 299 446 m 351 393 l 351 647 q 244 763 351 763 l 88 763 l 88 707 l 244 707 q 299 646 299 707 l 299 617 l 156 617 q 67 535 67 617 l 67 481 q 156 393 67 393 l 351 393 m 208 319 q 149 333 179 319 q 95 368 119 346 q 56 419 71 390 q 42 481 42 449 l 42 535 q 114 638 42 619 l 63 682 l 63 788 l 244 788 q 312 771 279 788 q 369 727 344 754 q 410 665 394 700 q 425 596 425 631 l 425 319 l 208 319 z "},"«":{"ha":860,"x_min":4,"x_max":819,"o":"m 739 183 l 546 433 l 739 679 l 665 746 l 425 433 l 665 118 l 739 183 m 350 183 l 157 433 l 350 679 l 276 746 l 36 433 l 276 118 l 350 183 m 274 82 l 4 433 l 274 783 l 385 681 l 432 628 l 238 381 l 432 129 l 326 35 l 274 82 m 663 82 l 392 433 l 663 783 l 772 681 l 819 628 l 625 381 l 819 129 l 715 35 l 663 82 z "},"¬":{"ha":885,"x_min":39,"x_max":764,"o":"m 692 0 l 692 540 l 64 540 l 64 468 l 618 468 l 618 0 l 692 0 m 39 443 l 39 565 l 715 565 l 764 508 l 764 -74 l 649 -74 l 593 -25 l 593 394 l 96 394 l 39 443 z "},"®":{"ha":792,"x_min":29,"x_max":728,"o":"m 424 667 q 413 644 424 651 q 388 638 403 638 l 293 638 l 293 717 l 393 717 q 424 690 424 717 l 424 667 m 486 503 l 486 568 q 474 605 486 593 q 446 621 463 617 q 471 635 461 624 q 481 669 481 646 l 481 701 q 465 749 481 733 q 413 765 450 765 l 236 765 l 236 503 l 293 503 l 293 596 l 388 596 q 417 589 406 596 q 429 567 429 582 l 429 503 l 486 503 m 354 388 q 258 407 303 388 q 178 460 213 426 q 125 540 144 494 q 106 636 106 585 q 125 731 106 686 q 178 810 144 776 q 258 864 213 844 q 354 883 303 883 q 451 864 406 883 q 529 810 496 844 q 581 731 563 776 q 600 636 600 686 q 581 540 600 585 q 529 460 563 494 q 451 407 496 426 q 354 388 406 388 m 354 336 q 472 360 417 336 q 567 424 526 383 q 631 519 607 464 q 654 636 654 574 q 631 753 654 699 q 567 849 607 808 q 472 913 526 889 q 354 936 417 936 q 237 913 292 936 q 142 849 182 889 q 78 753 101 808 q 54 636 54 699 q 78 519 54 574 q 142 424 101 464 q 237 360 182 383 q 354 336 292 336 m 407 263 q 270 293 338 263 q 149 376 203 324 q 63 495 96 428 q 29 636 29 563 q 55 763 29 704 q 124 866 81 822 q 227 935 168 910 q 354 961 286 961 q 489 928 422 961 q 608 842 556 896 q 694 722 661 789 q 728 583 728 654 q 703 458 728 517 q 634 356 678 400 q 532 288 590 313 q 407 263 474 263 z "},"¯":{"ha":635,"x_min":35,"x_max":565,"o":"m 492 810 l 492 889 l 60 889 l 60 810 l 492 810 m 35 786 l 35 914 l 517 914 l 565 857 l 565 738 l 92 738 l 35 786 z "},"°":{"ha":557,"x_min":35,"x_max":492,"o":"m 357 801 q 329 719 357 753 q 238 686 301 686 q 148 719 174 686 q 122 801 122 753 q 148 879 122 847 q 238 911 174 911 q 329 879 301 911 q 357 801 357 847 m 418 800 q 408 865 418 835 q 377 917 399 894 q 321 953 356 940 q 238 967 286 967 q 155 953 189 967 q 100 917 121 940 q 69 865 79 894 q 60 800 60 835 q 69 733 60 764 q 100 680 79 703 q 155 644 121 657 q 238 631 189 631 q 321 644 286 631 q 377 680 356 657 q 408 733 399 703 q 418 800 418 764 m 290 557 q 197 576 243 557 q 115 627 151 594 q 57 704 79 660 q 35 800 35 749 q 46 874 35 839 q 81 935 57 910 q 144 976 106 961 q 238 992 182 992 q 333 973 288 992 q 415 921 379 954 q 471 843 450 888 q 492 747 492 799 q 481 674 492 708 q 446 613 469 639 q 383 572 422 588 q 290 557 344 557 m 332 801 q 323 831 332 825 q 290 838 314 838 q 217 812 239 838 q 196 749 196 786 q 200 715 196 732 q 238 711 214 711 q 310 738 289 711 q 332 801 332 764 z "},"±":{"ha":893,"x_min":35,"x_max":824,"o":"m 750 -22 l 750 78 l 60 78 l 60 -22 l 750 -22 m 457 129 l 457 424 l 750 424 l 750 524 l 457 524 l 457 818 l 356 818 l 356 524 l 60 524 l 60 424 l 356 424 l 356 129 l 457 129 m 529 549 l 775 549 l 824 492 l 824 350 l 529 350 l 529 103 l 775 103 l 775 94 l 824 46 l 824 -96 l 92 -96 l 35 -47 l 35 103 l 331 103 l 331 350 l 92 350 l 35 399 l 35 549 l 331 549 l 331 843 l 481 843 l 529 786 l 529 549 z "},"²":{"ha":458,"x_min":25,"x_max":399,"o":"m 321 474 l 321 525 l 101 525 l 101 617 q 114 658 101 644 q 157 671 126 671 l 224 671 q 300 699 275 671 q 325 778 325 726 l 325 819 q 300 905 325 878 q 217 932 275 932 l 157 932 q 53 825 53 932 l 53 789 l 103 789 l 103 825 q 156 879 103 879 l 217 879 q 274 819 274 879 l 274 778 q 218 717 274 717 l 153 717 q 74 692 99 717 q 50 617 50 668 l 50 474 l 321 474 m 175 550 l 346 550 l 394 494 l 394 400 l 82 400 l 25 449 l 25 617 q 36 684 25 657 q 74 725 47 711 l 28 764 l 28 825 q 59 926 28 896 q 157 957 90 957 l 217 957 q 285 941 251 957 q 343 899 318 925 q 383 838 368 872 q 399 767 399 804 l 399 725 q 275 597 399 597 l 210 597 q 175 565 175 597 l 175 550 m 176 742 l 218 742 q 249 778 249 742 l 249 806 l 208 806 q 176 772 176 806 l 176 742 z "},"³":{"ha":456,"x_min":24,"x_max":400,"o":"m 224 474 q 326 581 326 474 l 326 628 q 310 684 326 663 q 271 710 294 706 q 319 785 319 717 l 319 847 q 224 932 319 932 l 149 932 q 51 832 51 932 l 51 789 l 101 789 l 101 832 q 149 879 101 879 l 224 879 q 271 829 271 879 l 271 778 q 224 728 271 728 l 150 728 l 150 688 l 219 688 q 261 672 247 688 q 275 631 275 656 l 275 582 q 219 525 275 525 l 147 525 q 99 568 99 525 l 99 615 l 49 615 l 49 568 q 147 474 49 474 l 224 474 m 26 764 l 26 832 q 58 928 26 899 q 149 957 89 957 l 224 957 q 284 944 254 957 q 338 909 314 931 q 378 858 363 888 q 393 794 393 828 l 393 732 q 368 657 393 682 q 391 622 382 643 q 400 575 400 600 l 400 528 q 275 400 400 400 l 200 400 q 137 413 168 400 q 81 449 106 426 q 40 503 56 472 q 24 568 24 533 l 24 640 l 124 640 l 172 585 l 172 550 l 219 550 q 250 582 250 550 l 250 615 l 181 615 l 125 663 l 125 715 l 82 715 l 26 764 m 175 753 l 224 753 q 246 778 246 753 l 246 806 l 200 806 q 175 779 175 806 l 175 753 m 125 553 q 128 549 125 551 l 125 553 z "},"´":{"ha":525,"x_min":15,"x_max":469,"o":"m 388 913 l 350 965 l 51 763 l 78 729 l 388 913 m 72 696 l 15 769 l 357 999 l 408 942 l 469 854 l 125 649 l 72 696 z "},"µ":{"ha":735,"x_min":39,"x_max":661,"o":"m 235 140 q 236 126 235 128 l 396 126 q 449 147 433 126 q 464 213 464 168 l 464 697 l 613 697 l 661 642 l 661 -74 l 524 -74 l 503 -53 q 406 -74 465 -74 l 297 -74 q 235 -58 263 -74 l 235 -283 l 96 -283 l 39 -235 l 39 697 l 186 697 l 235 642 l 235 140 m 588 0 l 588 672 l 489 672 l 489 213 q 468 128 489 154 q 396 101 447 101 l 242 101 q 161 211 161 101 l 161 672 l 64 672 l 64 -210 l 161 -210 l 161 43 q 246 0 188 0 l 353 0 q 442 18 411 0 q 492 82 472 36 l 492 0 l 588 0 z "},"¶":{"ha":757,"x_min":14,"x_max":672,"o":"m 599 -169 l 599 921 l 235 921 q 143 908 181 921 q 83 874 106 896 q 49 824 60 853 q 39 760 39 794 q 82 643 39 689 q 217 589 125 597 l 217 -169 l 300 -169 l 300 842 l 515 842 l 515 -169 l 599 -169 m 192 531 q 128 567 160 544 q 71 618 96 589 q 30 683 46 647 q 14 760 14 718 q 26 833 14 799 q 63 892 38 867 q 131 931 89 917 q 235 946 174 946 l 624 946 l 672 889 l 672 -243 l 547 -243 l 490 -194 l 490 768 l 374 768 l 374 -243 l 247 -243 l 192 -194 l 192 531 z "},"·":{"ha":326,"x_min":46,"x_max":244,"o":"m 171 367 l 171 564 l 71 564 l 71 367 l 171 367 m 46 342 l 46 589 l 196 589 l 244 532 l 244 293 l 103 293 l 46 342 z "},"¸":{"ha":308,"x_min":25,"x_max":257,"o":"m 133 -307 l 179 -53 l 63 -53 l 51 -307 l 133 -307 m 25 -332 l 39 -28 l 210 -28 l 257 -83 l 204 -381 l 82 -381 l 25 -332 z "},"¹":{"ha":307,"x_min":18,"x_max":240,"o":"m 167 474 l 167 932 l 43 932 l 43 879 l 115 879 l 115 474 l 167 474 m 18 854 l 18 957 l 192 957 l 240 900 l 240 400 l 147 400 l 90 449 l 90 806 l 75 806 l 18 854 z "},"º":{"ha":518,"x_min":46,"x_max":435,"o":"m 308 500 q 261 449 308 449 l 172 449 q 135 465 146 449 q 125 508 125 481 l 125 656 q 172 707 125 707 l 261 707 q 308 647 308 707 l 308 500 m 264 393 q 342 424 322 393 q 363 519 363 456 l 363 638 q 358 697 363 672 q 339 735 353 721 q 302 756 325 750 q 243 763 279 763 l 192 763 q 134 757 157 763 q 97 738 111 751 q 77 699 83 724 q 71 638 71 675 l 71 519 q 76 460 71 483 q 94 421 81 436 q 132 399 108 406 q 192 393 156 393 l 264 393 m 244 319 q 101 373 157 319 q 46 519 46 426 l 46 638 q 53 711 46 682 q 78 757 61 740 q 122 781 94 774 q 192 788 150 788 l 243 788 q 383 732 331 788 q 435 585 435 676 l 435 467 q 410 356 435 392 q 317 319 385 319 l 244 319 z "},"»":{"ha":860,"x_min":4,"x_max":819,"o":"m 501 118 l 739 433 l 501 746 l 426 679 l 619 433 l 426 185 l 501 118 m 113 118 l 351 433 l 113 746 l 38 679 l 231 433 l 38 185 l 113 118 m 4 182 l 199 433 l 4 682 l 115 783 l 168 725 l 432 381 l 168 35 l 4 182 m 392 182 l 586 433 l 392 682 l 504 783 l 556 725 l 819 381 l 556 35 l 392 182 z "},"¼":{"ha":1101,"x_min":7,"x_max":1043,"o":"m 875 114 l 724 114 l 875 374 l 875 114 m 925 -12 l 925 69 l 960 69 l 960 114 l 925 114 l 925 446 l 864 446 l 675 110 l 675 69 l 875 69 l 875 -12 l 925 -12 m 124 -42 l 947 967 l 881 967 l 58 -42 l 124 -42 m 256 474 l 256 932 l 132 932 l 132 881 l 204 881 l 204 474 l 256 474 m 7 -67 l 871 992 l 997 992 l 1043 935 l 185 -115 l 67 -115 l 7 -67 m 650 44 l 650 117 l 850 471 l 950 471 l 997 414 l 997 118 l 1033 82 l 1033 -4 l 997 -4 l 997 -86 l 906 -86 l 850 -37 l 850 -4 l 707 -4 l 650 44 m 107 856 l 107 957 l 281 957 l 329 901 l 329 400 l 236 400 l 179 449 l 179 807 l 164 807 l 107 856 z "},"½":{"ha":1106,"x_min":7,"x_max":1043,"o":"m 961 -12 l 961 39 l 740 39 l 740 131 q 797 185 740 185 l 863 185 q 940 213 914 185 q 965 292 965 240 l 965 333 q 940 419 965 392 q 857 446 915 446 l 797 446 q 693 339 693 446 l 693 303 l 742 303 l 742 339 q 796 393 742 393 l 857 393 q 914 333 914 393 l 914 292 q 857 231 914 231 l 793 231 q 714 206 738 231 q 690 131 690 182 l 690 -12 l 961 -12 m 124 -42 l 947 967 l 881 967 l 58 -42 l 124 -42 m 282 474 l 282 932 l 158 932 l 158 881 l 231 881 l 231 474 l 282 474 m 7 -67 l 871 992 l 997 992 l 1043 935 l 185 -115 l 67 -115 l 7 -67 m 814 64 l 986 64 l 1035 8 l 1035 -86 l 721 -86 l 665 -37 l 665 131 q 676 198 665 171 q 714 239 688 225 l 668 278 l 668 339 q 699 440 668 410 q 797 471 731 471 l 857 471 q 925 455 892 471 q 983 413 958 439 q 1024 352 1008 386 q 1039 281 1039 318 l 1039 239 q 915 111 1039 111 l 850 111 q 814 79 814 111 l 814 64 m 133 856 l 133 957 l 307 957 l 356 901 l 356 400 l 263 400 l 206 449 l 206 807 l 190 807 l 133 856 m 815 256 l 857 256 q 889 292 889 256 l 889 319 l 849 319 q 815 286 815 319 l 815 256 z "},"¾":{"ha":1088,"x_min":7,"x_max":1043,"o":"m 835 114 l 685 114 l 835 374 l 835 114 m 885 -12 l 885 69 l 921 69 l 921 114 l 885 114 l 885 446 l 825 446 l 636 110 l 636 69 l 835 69 l 835 -12 l 885 -12 m 124 -42 l 947 967 l 885 967 l 58 -42 l 124 -42 m 242 474 q 344 581 344 474 l 344 628 q 329 684 344 663 q 290 710 314 706 q 326 732 313 714 q 339 786 339 750 l 339 847 q 243 932 339 932 l 167 932 q 69 833 69 932 l 69 789 l 119 789 l 119 833 q 167 881 119 881 l 243 881 q 290 831 290 881 l 290 778 q 242 728 290 728 l 168 728 l 168 689 l 238 689 q 279 673 265 689 q 293 631 293 657 l 293 582 q 238 526 293 526 l 165 526 q 117 569 117 526 l 117 617 l 67 617 l 67 569 q 165 474 67 474 l 242 474 m 7 -67 l 871 992 l 997 992 l 1043 935 l 185 -115 l 67 -115 l 7 -67 m 53 764 l 44 764 l 44 833 q 167 957 44 957 l 243 957 q 303 944 274 957 q 357 909 333 931 q 396 858 381 888 q 411 794 411 828 l 411 733 q 388 657 411 681 q 409 622 400 643 q 418 575 418 600 l 418 528 q 293 400 418 400 l 218 400 q 155 414 186 400 q 99 451 124 428 q 58 505 74 474 q 42 569 42 536 l 42 642 l 142 642 l 142 633 l 190 585 l 190 551 l 238 551 q 269 582 269 551 l 269 615 l 200 615 l 151 664 l 143 664 l 143 715 l 101 715 l 53 764 m 611 44 l 611 117 l 810 471 l 910 471 l 958 414 l 958 118 l 994 82 l 994 -4 l 958 -4 l 958 -86 l 867 -86 l 818 -37 l 810 -37 l 810 -4 l 668 -4 l 611 44 m 193 753 l 242 753 q 265 778 265 753 l 265 807 l 219 807 q 193 781 193 807 l 193 753 m 143 553 l 146 550 l 143 553 z "},"¿":{"ha":719,"x_min":14,"x_max":660,"o":"m 340 919 l 340 722 l 440 722 l 440 919 l 340 919 m 342 649 l 342 619 q 332 571 342 589 q 306 544 322 553 q 266 531 289 535 q 217 526 243 528 q 39 338 39 514 l 39 263 q 51 134 39 185 q 90 53 63 83 q 164 12 118 24 q 279 0 210 0 l 367 0 q 466 11 425 0 q 534 48 507 22 q 574 117 561 74 q 586 224 586 160 l 586 286 l 486 286 l 486 206 q 392 106 486 106 l 232 106 q 142 217 142 106 l 142 338 q 264 436 142 436 q 399 478 360 436 q 439 610 439 521 l 439 649 l 342 649 m 465 944 l 513 888 l 513 557 q 467 410 513 457 q 317 364 422 364 q 215 285 215 364 l 215 164 q 219 141 215 153 q 240 129 224 129 l 392 129 q 461 206 461 129 l 461 311 l 611 311 l 660 254 l 660 172 q 646 56 660 103 q 603 -20 632 8 q 528 -61 574 -49 q 419 -74 482 -74 l 332 -74 q 14 263 14 -74 l 14 338 q 67 488 14 433 q 215 550 119 542 q 254 554 236 551 q 286 564 272 557 q 308 584 300 571 q 317 619 317 597 l 317 944 l 465 944 z "},"À":{"ha":739,"x_min":-11,"x_max":714,"o":"m 431 975 l 457 1010 l 157 1211 l 121 1160 l 431 975 m 454 269 l 190 269 l 321 778 l 454 269 m 635 0 l 383 919 l 265 919 l 21 0 l 122 0 l 168 182 l 476 182 l 525 0 l 635 0 m -11 -25 l 246 944 l 401 944 l 451 888 l 714 -74 l 561 -74 l 506 -25 l 471 108 l 238 108 l 192 -74 l 47 -74 l -11 -25 m 85 1150 l 151 1246 l 492 1017 l 539 963 l 488 896 l 143 1100 l 85 1150 m 353 556 l 283 293 l 422 293 l 353 556 z "},"Á":{"ha":739,"x_min":-11,"x_max":714,"o":"m 535 1160 l 499 1211 l 200 1010 l 225 975 l 535 1160 m 454 269 l 190 269 l 321 778 l 454 269 m 635 0 l 383 919 l 265 919 l 21 0 l 122 0 l 168 182 l 476 182 l 525 0 l 635 0 m 354 944 l 401 944 l 451 888 l 714 -74 l 561 -74 l 506 -25 l 471 108 l 238 108 l 192 -74 l 47 -74 l -11 -25 l 242 926 l 224 944 l 221 943 l 164 1017 l 504 1246 l 556 1188 l 618 1100 l 354 944 m 353 556 l 283 293 l 422 293 l 353 556 z "},"Â":{"ha":739,"x_min":-11,"x_max":714,"o":"m 572 1007 l 357 1211 l 297 1211 l 82 1007 l 119 975 l 326 1140 l 535 975 l 572 1007 m 454 269 l 190 269 l 321 778 l 454 269 m 635 0 l 383 919 l 265 919 l 21 0 l 122 0 l 168 182 l 476 182 l 525 0 l 635 0 m -11 -25 l 246 944 l 401 944 l 451 888 l 714 -74 l 561 -74 l 506 -25 l 471 108 l 238 108 l 192 -74 l 47 -74 l -11 -25 m 656 954 l 589 896 l 379 1063 l 171 896 l 46 1007 l 288 1236 l 367 1236 l 608 1007 l 656 954 m 353 556 l 283 293 l 422 293 l 353 556 z "},"Ã":{"ha":739,"x_min":-11,"x_max":714,"o":"m 517 1161 q 433 1093 499 1093 q 381 1103 404 1093 q 333 1125 357 1113 q 283 1147 310 1138 q 221 1157 257 1157 q 128 1125 163 1157 q 82 1049 93 1093 l 135 1021 q 222 1089 153 1089 q 276 1078 253 1089 q 323 1056 300 1068 q 372 1034 346 1044 q 435 1024 399 1024 q 528 1057 493 1024 q 574 1135 563 1090 l 517 1161 m 454 269 l 190 269 l 321 778 l 454 269 m 635 0 l 383 919 l 265 919 l 21 0 l 122 0 l 168 182 l 476 182 l 525 0 l 635 0 m -11 -25 l 246 944 l 401 944 l 451 888 l 714 -74 l 561 -74 l 506 -25 l 471 108 l 238 108 l 192 -74 l 47 -74 l -11 -25 m 603 1147 l 650 1092 q 629 1038 643 1064 q 594 993 615 1013 q 547 962 574 974 q 486 950 519 950 q 422 960 449 950 q 371 983 394 971 q 325 1005 347 994 q 274 1015 303 1015 q 231 997 250 1015 q 200 939 211 979 l 108 986 l 51 1036 q 109 1139 67 1096 q 221 1182 151 1182 q 278 1172 251 1182 q 329 1150 304 1163 q 380 1128 354 1138 q 433 1118 406 1118 q 501 1197 481 1118 l 603 1147 m 353 556 l 283 293 l 422 293 l 353 556 z "},"Ä":{"ha":739,"x_min":-11,"x_max":714,"o":"m 238 1015 l 238 1171 l 131 1171 l 131 1015 l 238 1015 m 525 1015 l 525 1171 l 419 1171 l 419 1015 l 525 1015 m 454 269 l 190 269 l 321 778 l 454 269 m 635 0 l 383 919 l 265 919 l 21 0 l 122 0 l 168 182 l 476 182 l 525 0 l 635 0 m -11 -25 l 246 942 l 163 942 l 106 990 l 106 1196 l 263 1196 l 311 1139 l 311 944 l 401 944 l 451 888 l 714 -74 l 561 -74 l 506 -25 l 471 108 l 238 108 l 192 -74 l 47 -74 l -11 -25 m 403 990 l 394 990 l 394 1196 l 550 1196 l 599 1139 l 599 942 l 451 942 l 403 990 m 353 556 l 283 293 l 422 293 l 353 556 z "},"Å":{"ha":739,"x_min":-11,"x_max":714,"o":"m 447 1099 q 419 1022 447 1050 q 325 994 392 994 q 233 1022 258 994 q 208 1099 208 1050 q 233 1173 208 1146 q 325 1200 258 1200 q 419 1173 392 1200 q 447 1099 447 1146 m 507 1099 q 466 1210 507 1169 q 325 1250 425 1250 q 188 1210 228 1250 q 149 1099 149 1169 q 188 987 149 1028 q 325 946 228 946 q 466 987 425 946 q 507 1099 507 1028 m 454 269 l 190 269 l 321 778 l 454 269 m 635 0 l 383 919 l 265 919 l 21 0 l 122 0 l 168 182 l 476 182 l 525 0 l 635 0 m 236 907 q 156 988 188 939 q 124 1099 124 1036 q 169 1227 124 1179 q 325 1275 214 1275 q 418 1259 372 1275 q 500 1213 464 1243 q 558 1141 536 1183 q 581 1046 581 1099 q 552 937 581 979 q 453 879 524 894 l 714 -74 l 561 -74 l 506 -25 l 471 108 l 238 108 l 192 -74 l 47 -74 l -11 -25 l 236 907 m 353 556 l 283 293 l 422 293 l 353 556 m 422 1099 q 415 1122 422 1118 q 392 1126 407 1126 q 306 1107 329 1126 q 282 1046 282 1088 q 282 1035 282 1040 q 283 1024 282 1029 q 325 1019 300 1019 q 400 1041 378 1019 q 422 1099 422 1063 z "},"Æ":{"ha":1151,"x_min":-17,"x_max":1078,"o":"m 539 269 l 238 269 l 465 814 l 539 814 l 539 269 m 1004 0 l 1004 106 l 643 106 l 643 424 l 840 424 l 840 510 l 643 510 l 643 814 l 1004 814 l 1004 919 l 408 919 l 21 0 l 129 0 l 204 182 l 539 182 l 539 0 l 1004 0 m 715 129 l 1029 129 l 1078 74 l 1078 -74 l 571 -74 l 514 -25 l 514 108 l 271 108 l 197 -74 l 42 -74 l -17 -25 l 390 944 l 1029 944 l 1078 888 l 1078 740 l 715 740 l 715 535 l 865 535 l 914 479 l 914 350 l 715 350 l 715 129 m 514 696 l 344 293 l 514 293 l 514 696 z "},"Ç":{"ha":699,"x_min":33,"x_max":633,"o":"m 344 -307 l 390 -53 l 274 -53 l 263 -307 l 344 -307 m 560 0 l 560 106 l 274 106 q 160 224 160 106 l 160 701 q 271 814 160 814 l 557 814 l 557 919 l 271 919 q 58 701 58 919 l 58 224 q 278 0 58 0 l 560 0 m 233 156 q 244 132 233 135 q 274 129 254 129 l 585 129 l 633 74 l 633 -74 l 458 -74 l 468 -83 l 415 -381 l 293 -381 l 236 -332 l 247 -64 q 164 -24 203 -49 q 96 37 125 1 q 50 119 67 72 q 33 224 33 165 l 33 701 q 271 944 33 944 l 582 944 l 631 888 l 631 740 l 324 740 q 233 649 233 740 l 233 172 l 233 156 z "},"È":{"ha":710,"x_min":39,"x_max":649,"o":"m 415 975 l 442 1010 l 143 1211 l 106 1160 l 415 975 m 575 0 l 575 106 l 167 106 l 167 418 l 411 418 l 411 515 l 167 515 l 167 814 l 575 814 l 575 919 l 64 919 l 64 0 l 575 0 m 240 129 l 600 129 l 649 74 l 649 -74 l 96 -74 l 39 -25 l 39 944 l 390 944 l 129 1100 l 71 1150 l 136 1246 l 478 1017 l 525 963 l 510 944 l 600 944 l 649 888 l 649 740 l 240 740 l 240 540 l 435 540 l 483 483 l 483 344 l 240 344 l 240 129 z "},"É":{"ha":710,"x_min":39,"x_max":649,"o":"m 240 129 l 600 129 l 649 74 l 649 -74 l 96 -74 l 39 -25 l 39 944 l 204 944 l 150 1017 l 490 1246 l 542 1188 l 603 1100 l 340 944 l 600 944 l 649 888 l 649 740 l 240 740 l 240 540 l 435 540 l 483 483 l 483 344 l 240 344 l 240 129 m 575 0 l 575 106 l 167 106 l 167 418 l 411 418 l 411 515 l 167 515 l 167 814 l 575 814 l 575 919 l 64 919 l 64 0 l 575 0 m 521 1160 l 483 1211 l 185 1010 l 211 975 l 521 1160 z "},"Ê":{"ha":710,"x_min":39,"x_max":654,"o":"m 571 1007 l 356 1211 l 296 1211 l 82 1007 l 118 975 l 325 1140 l 533 975 l 571 1007 m 575 0 l 575 106 l 167 106 l 167 418 l 411 418 l 411 515 l 167 515 l 167 814 l 575 814 l 575 919 l 64 919 l 64 0 l 575 0 m 654 954 l 617 921 l 649 888 l 649 740 l 240 740 l 240 540 l 435 540 l 483 483 l 483 344 l 240 344 l 240 129 l 600 129 l 649 74 l 649 -74 l 96 -74 l 39 -25 l 39 944 l 113 944 l 44 1007 l 286 1236 l 365 1236 l 607 1007 l 654 954 m 229 944 l 526 944 l 378 1063 l 229 944 z "},"Ë":{"ha":710,"x_min":39,"x_max":649,"o":"m 236 1015 l 236 1171 l 129 1171 l 129 1015 l 236 1015 m 524 1015 l 524 1171 l 418 1171 l 418 1015 l 524 1015 m 575 0 l 575 106 l 167 106 l 167 418 l 411 418 l 411 515 l 167 515 l 167 814 l 575 814 l 575 919 l 64 919 l 64 0 l 575 0 m 240 129 l 600 129 l 649 74 l 649 -74 l 96 -74 l 39 -25 l 39 944 l 158 944 l 106 990 l 106 1196 l 261 1196 l 310 1139 l 310 944 l 447 944 l 393 990 l 393 1196 l 549 1196 l 597 1139 l 597 944 l 649 888 l 649 740 l 240 740 l 240 540 l 435 540 l 483 483 l 483 344 l 240 344 l 240 129 z "},"Ì":{"ha":328,"x_min":-121,"x_max":333,"o":"m 224 975 l 250 1010 l -49 1211 l -85 1160 l 224 975 m 174 0 l 174 919 l 71 919 l 71 0 l 174 0 m 46 -25 l 46 944 l 199 944 l 246 888 l 246 -74 l 103 -74 l 46 -25 m -121 1150 l -56 1246 l 286 1017 l 333 963 l 282 896 l -62 1100 l -121 1150 z "},"Í":{"ha":328,"x_min":-42,"x_max":411,"o":"m 329 1160 l 293 1211 l -7 1010 l 19 975 l 329 1160 m 174 0 l 174 919 l 71 919 l 71 0 l 174 0 m 149 944 l 199 944 l 246 888 l 246 -74 l 103 -74 l 46 -25 l 46 917 l 17 944 l 14 943 l -42 1017 l 299 1246 l 350 1188 l 411 1100 l 149 944 z "},"Î":{"ha":328,"x_min":-158,"x_max":451,"o":"m 367 1007 l 153 1211 l 93 1211 l -122 1007 l -85 975 l 122 1140 l 331 975 l 367 1007 m 174 0 l 174 919 l 71 919 l 71 0 l 174 0 m 46 -25 l 46 944 l 199 944 l 246 888 l 246 -74 l 103 -74 l 46 -25 m 401 1004 l 451 954 l 385 896 l 175 1063 l -35 896 l -158 1007 l 82 1236 l 163 1236 l 404 1007 l 401 1004 z "},"Ï":{"ha":328,"x_min":-100,"x_max":392,"o":"m 32 1015 l 32 1171 l -75 1171 l -75 1015 l 32 1015 m 318 1015 l 318 1171 l 214 1171 l 214 1015 l 318 1015 m 174 0 l 174 919 l 71 919 l 71 0 l 174 0 m 46 -25 l 46 942 l -43 942 l -100 990 l -100 1196 l 57 1196 l 106 1139 l 106 944 l 199 944 l 246 888 l 246 -74 l 103 -74 l 46 -25 m 189 990 l 189 1196 l 343 1196 l 392 1139 l 392 942 l 246 942 l 189 990 z "},"Ð":{"ha":753,"x_min":-11,"x_max":686,"o":"m 508 250 q 368 106 508 106 l 164 106 l 164 414 l 317 414 l 317 500 l 164 500 l 164 814 l 371 814 q 508 669 508 814 l 508 250 m 365 0 q 613 250 613 0 l 613 669 q 371 919 613 919 l 61 919 l 61 500 l 13 500 l 13 414 l 61 414 l 61 0 l 365 0 m 36 -25 l 36 349 l -11 389 l -11 525 l 36 525 l 36 944 l 371 944 q 499 919 442 944 q 597 851 556 894 q 660 747 638 807 q 686 617 683 688 l 686 199 q 418 -74 686 -74 l 93 -74 l 36 -25 m 483 669 q 481 703 483 688 q 472 733 479 719 q 449 739 461 738 q 424 740 436 740 l 238 740 l 238 525 l 340 525 l 389 468 l 389 340 l 238 340 l 238 129 l 368 129 q 483 250 483 129 l 483 669 z "},"Ñ":{"ha":736,"x_min":35,"x_max":668,"o":"m 515 1161 q 432 1093 499 1093 q 379 1103 403 1093 q 332 1125 356 1113 q 282 1147 308 1138 q 219 1157 256 1157 q 126 1125 161 1157 q 81 1049 92 1093 l 133 1021 q 221 1089 151 1089 q 275 1078 251 1089 q 322 1056 299 1068 q 371 1034 344 1044 q 433 1024 397 1024 q 526 1057 492 1024 q 572 1135 561 1090 l 515 1161 m 594 0 l 594 919 l 503 919 l 503 219 l 169 919 l 58 919 l 58 0 l 153 0 l 153 728 l 496 0 l 594 0 m 235 888 l 478 378 l 478 944 l 619 944 l 668 888 l 668 -74 l 535 -74 l 486 -25 l 481 -25 l 225 513 l 225 -74 l 90 -74 l 35 -25 l 35 944 l 185 944 l 190 931 l 235 888 m 601 1147 l 649 1092 q 628 1038 642 1064 q 594 993 614 1013 q 546 962 574 974 q 485 950 518 950 q 420 960 447 950 q 369 983 393 971 q 324 1005 346 994 q 272 1015 301 1015 q 230 997 249 1015 q 200 939 211 979 l 107 986 l 50 1036 q 108 1139 65 1096 q 219 1182 150 1182 q 290 1170 260 1182 q 347 1144 321 1158 l 346 1144 q 387 1126 365 1135 q 432 1118 408 1118 q 500 1197 479 1118 l 601 1147 z "},"Ò":{"ha":775,"x_min":33,"x_max":707,"o":"m 447 975 l 474 1010 l 175 1211 l 138 1160 l 447 975 m 531 203 q 508 132 531 158 q 439 106 486 106 l 251 106 q 183 132 206 106 q 160 203 160 158 l 160 715 q 183 788 160 761 q 251 814 206 814 l 439 814 q 508 788 486 814 q 531 715 531 761 l 531 203 m 439 0 q 587 55 540 0 q 633 201 633 110 l 633 715 q 587 864 633 808 q 439 919 540 919 l 251 919 q 105 864 151 919 q 58 715 58 808 l 58 201 q 105 55 58 110 q 251 0 151 0 l 439 0 m 531 929 q 658 826 610 897 q 707 664 707 756 l 707 150 q 656 -14 707 46 q 492 -74 604 -74 l 304 -74 q 201 -52 250 -74 q 115 7 151 -31 q 56 94 78 44 q 33 201 33 144 l 33 715 q 86 883 33 821 q 251 944 139 944 l 422 944 l 160 1100 l 103 1150 l 168 1246 l 508 1017 l 556 963 l 531 929 m 506 715 q 503 733 506 725 q 488 740 500 740 l 304 740 q 233 664 233 740 l 233 131 q 242 129 238 129 q 251 129 247 129 l 439 129 q 489 149 472 129 q 506 203 506 169 l 506 715 z "},"Ó":{"ha":775,"x_min":33,"x_max":707,"o":"m 371 944 l 439 944 q 542 922 494 944 q 626 862 590 900 q 683 773 661 824 q 707 664 704 722 l 707 150 q 656 -14 707 46 q 492 -74 604 -74 l 304 -74 q 201 -52 250 -74 q 115 7 151 -31 q 56 94 78 44 q 33 201 33 144 l 33 715 q 82 878 33 817 q 236 944 131 939 l 181 1017 l 522 1246 l 574 1188 l 635 1100 l 371 944 m 439 0 q 587 55 540 0 q 633 201 633 110 l 633 715 q 587 864 633 808 q 439 919 540 919 l 251 919 q 105 864 151 919 q 58 715 58 808 l 58 201 q 105 55 58 110 q 251 0 151 0 l 439 0 m 531 203 q 508 132 531 158 q 439 106 486 106 l 251 106 q 183 132 206 106 q 160 203 160 158 l 160 715 q 183 788 160 761 q 251 814 206 814 l 439 814 q 508 788 486 814 q 531 715 531 761 l 531 203 m 506 715 q 502 733 506 725 q 486 740 499 740 l 304 740 q 233 664 233 740 l 233 131 q 242 129 238 129 q 251 129 247 129 l 439 129 q 489 149 472 129 q 506 203 506 169 l 506 715 m 551 1160 l 515 1211 l 217 1010 l 243 975 l 551 1160 z "},"Ô":{"ha":775,"x_min":33,"x_max":707,"o":"m 590 1007 l 375 1211 l 317 1211 l 101 1007 l 138 975 l 344 1140 l 553 975 l 590 1007 m 531 203 q 508 132 531 158 q 439 106 486 106 l 251 106 q 183 132 206 106 q 160 203 160 158 l 160 715 q 183 788 160 761 q 251 814 206 814 l 439 814 q 508 788 486 814 q 531 715 531 761 l 531 203 m 439 0 q 587 55 540 0 q 633 201 633 110 l 633 715 q 587 864 633 808 q 439 919 540 919 l 251 919 q 105 864 151 919 q 58 715 58 808 l 58 201 q 105 55 58 110 q 251 0 151 0 l 439 0 m 674 954 l 607 896 l 397 1063 l 249 944 l 439 944 q 543 922 494 944 q 628 862 592 900 q 686 773 665 824 q 707 664 707 722 l 707 150 q 656 -14 707 46 q 492 -74 604 -74 l 304 -74 q 201 -52 250 -74 q 115 7 151 -31 q 56 94 78 44 q 33 201 33 144 l 33 715 q 62 849 33 794 q 153 926 90 903 l 64 1007 l 306 1236 l 386 1236 l 626 1007 l 674 954 m 506 715 q 503 733 506 725 q 488 740 500 740 l 304 740 q 233 664 233 740 l 233 131 q 242 129 238 129 q 251 129 247 129 l 439 129 q 489 149 472 129 q 506 203 506 169 l 506 715 z "},"Õ":{"ha":775,"x_min":33,"x_max":707,"o":"m 535 1161 q 451 1093 518 1093 q 399 1103 422 1093 q 351 1125 375 1113 q 301 1147 328 1138 q 239 1157 275 1157 q 146 1125 181 1157 q 100 1049 111 1093 l 153 1021 q 240 1089 171 1089 q 294 1078 271 1089 q 341 1056 318 1068 q 390 1034 364 1044 q 453 1024 417 1024 q 546 1057 511 1024 q 592 1135 581 1090 l 535 1161 m 531 203 q 508 132 531 158 q 439 106 486 106 l 251 106 q 183 132 206 106 q 160 203 160 158 l 160 715 q 183 788 160 761 q 251 814 206 814 l 439 814 q 508 788 486 814 q 531 715 531 761 l 531 203 m 439 0 q 587 55 540 0 q 633 201 633 110 l 633 715 q 587 864 633 808 q 439 919 540 919 l 251 919 q 105 864 151 919 q 58 715 58 808 l 58 201 q 105 55 58 110 q 251 0 151 0 l 439 0 m 622 1147 l 669 1092 q 649 1038 663 1064 q 614 993 635 1013 q 565 962 593 974 q 504 950 538 950 q 440 960 467 950 q 390 983 413 971 q 344 1005 367 994 q 293 1015 321 1015 q 250 999 268 1015 q 221 943 232 982 q 235 944 228 943 q 251 944 243 944 l 439 944 q 542 922 494 944 q 626 862 590 900 q 683 773 661 824 q 707 664 704 722 l 707 150 q 656 -14 707 46 q 492 -74 604 -74 l 304 -74 q 201 -52 250 -74 q 115 7 151 -31 q 56 94 78 44 q 33 201 33 144 l 33 715 q 76 871 33 811 q 213 942 119 931 l 128 986 l 69 1036 q 127 1139 85 1096 q 239 1182 169 1182 q 296 1172 269 1182 q 347 1150 322 1163 q 398 1128 372 1138 q 451 1118 424 1118 q 519 1197 499 1118 l 622 1147 m 506 715 q 503 733 506 725 q 488 740 500 740 l 304 740 q 233 664 233 740 l 233 131 q 242 129 238 129 q 251 129 247 129 l 439 129 q 489 149 472 129 q 506 203 506 169 l 506 715 z "},"Ö":{"ha":775,"x_min":33,"x_max":707,"o":"m 254 1015 l 254 1171 l 149 1171 l 149 1015 l 254 1015 m 542 1015 l 542 1171 l 436 1171 l 436 1015 l 542 1015 m 531 203 q 508 132 531 158 q 439 106 486 106 l 251 106 q 183 132 206 106 q 160 203 160 158 l 160 715 q 183 788 160 761 q 251 814 206 814 l 439 814 q 508 788 486 814 q 531 715 531 761 l 531 203 m 439 0 q 587 55 540 0 q 633 201 633 110 l 633 715 q 587 864 633 808 q 439 919 540 919 l 251 919 q 105 864 151 919 q 58 715 58 808 l 58 201 q 105 55 58 110 q 251 0 151 0 l 439 0 m 304 -74 q 201 -52 250 -74 q 115 7 151 -31 q 56 94 78 44 q 33 201 33 144 l 33 715 q 75 871 33 811 q 208 942 117 931 l 179 942 l 124 990 l 124 1196 l 279 1196 l 328 1139 l 328 944 l 439 944 q 453 944 446 944 q 465 943 460 944 l 411 990 l 411 1196 l 567 1196 l 615 1139 l 615 942 l 481 942 q 571 910 529 935 q 642 847 613 885 q 690 763 672 810 q 707 664 707 715 l 707 150 q 656 -14 707 46 q 492 -74 604 -74 l 304 -74 m 506 715 q 503 733 506 725 q 492 740 500 740 l 304 740 q 233 664 233 740 l 233 131 q 242 129 238 129 q 251 129 247 129 l 439 129 q 489 149 472 129 q 506 203 506 169 l 506 715 z "},"×":{"ha":893,"x_min":92,"x_max":767,"o":"m 686 267 l 476 475 l 685 682 l 614 753 l 407 544 l 199 754 l 126 682 l 335 474 l 126 265 l 197 194 l 406 403 l 614 194 l 686 267 m 767 214 l 667 113 l 456 318 l 249 113 l 92 265 l 300 474 l 92 682 l 199 788 l 407 578 l 614 786 l 765 629 l 560 425 l 767 214 z "},"Ø":{"ha":775,"x_min":21,"x_max":713,"o":"m 161 176 q 160 190 160 183 q 160 203 160 196 l 160 715 q 183 788 160 761 q 251 814 206 814 l 439 814 q 465 811 454 814 q 485 806 476 808 l 161 176 m 531 203 q 508 132 531 158 q 439 106 486 106 l 251 106 q 201 115 219 106 l 528 747 q 530 733 529 740 q 531 715 531 725 l 531 203 m 439 0 q 587 55 540 0 q 633 201 633 110 l 633 715 q 622 799 633 761 q 588 863 611 836 l 632 950 l 575 979 l 535 901 q 492 915 515 910 q 439 919 468 919 l 251 919 q 105 864 151 919 q 58 715 58 808 l 58 201 q 101 58 58 110 l 54 -35 l 110 -62 l 153 19 q 251 0 196 0 l 439 0 m 21 -44 l 71 57 q 42 122 50 86 q 33 201 33 157 l 33 715 q 86 883 33 821 q 251 944 139 944 l 439 944 q 525 933 489 944 l 565 1013 l 665 961 l 713 907 l 665 814 q 698 747 689 785 q 707 664 707 710 l 707 150 q 656 -14 707 46 q 492 -74 604 -74 l 304 -74 q 215 -58 258 -74 q 192 -102 204 -79 q 172 -143 181 -125 l 79 -96 l 21 -44 m 506 507 l 311 129 l 439 129 q 489 149 472 129 q 506 203 506 169 l 506 507 m 233 369 l 424 740 l 304 740 q 233 664 233 740 l 233 369 z "},"Ù":{"ha":768,"x_min":35,"x_max":697,"o":"m 444 975 l 471 1010 l 172 1211 l 135 1160 l 444 975 m 404 0 q 624 224 624 0 l 624 919 l 522 919 l 522 224 q 408 106 522 106 l 278 106 q 163 224 163 106 l 163 919 l 60 919 l 60 224 q 281 0 60 0 l 404 0 m 539 944 l 649 944 l 697 888 l 697 172 q 457 -74 697 -74 l 333 -74 q 219 -51 274 -74 q 124 10 165 -29 q 59 104 83 50 q 35 224 35 158 l 35 944 l 188 944 l 236 888 l 236 172 q 242 139 236 149 q 278 129 247 129 l 408 129 q 497 224 497 129 l 497 899 l 157 1100 l 100 1150 l 165 1246 l 506 1017 l 553 963 l 539 944 z "},"Ú":{"ha":768,"x_min":35,"x_max":697,"o":"m 550 1160 l 513 1211 l 214 1010 l 240 975 l 550 1160 m 404 0 q 624 224 624 0 l 624 919 l 522 919 l 522 224 q 408 106 522 106 l 278 106 q 163 224 163 106 l 163 919 l 60 919 l 60 224 q 281 0 60 0 l 404 0 m 236 172 q 242 139 236 149 q 278 129 247 129 l 408 129 q 497 224 497 129 l 497 944 l 649 944 l 697 888 l 697 172 q 457 -74 697 -74 l 333 -74 q 219 -51 274 -74 q 124 10 165 -29 q 59 104 83 50 q 35 224 35 158 l 35 944 l 188 944 l 236 888 l 236 172 m 235 943 l 178 1017 l 519 1246 l 571 1188 l 632 1100 l 288 896 l 235 943 z "},"Û":{"ha":768,"x_min":35,"x_max":697,"o":"m 586 1007 l 371 1211 l 313 1211 l 97 1007 l 133 975 l 340 1140 l 550 975 l 586 1007 m 404 0 q 624 224 624 0 l 624 919 l 522 919 l 522 224 q 408 106 522 106 l 278 106 q 163 224 163 106 l 163 919 l 60 919 l 60 224 q 281 0 60 0 l 404 0 m 669 954 l 649 936 l 697 888 l 697 172 q 457 -74 697 -74 l 333 -74 q 219 -51 274 -74 q 124 10 165 -29 q 59 104 83 50 q 35 224 35 158 l 35 944 l 129 944 l 60 1007 l 301 1236 l 382 1236 l 622 1007 l 669 954 m 497 944 l 542 944 l 393 1063 l 208 914 l 236 888 l 236 172 q 242 139 236 149 q 278 129 247 129 l 408 129 q 497 224 497 129 l 497 944 z "},"Ü":{"ha":768,"x_min":35,"x_max":697,"o":"m 251 1015 l 251 1171 l 146 1171 l 146 1015 l 251 1015 m 539 1015 l 539 1171 l 435 1171 l 435 1015 l 539 1015 m 404 0 q 624 224 624 0 l 624 919 l 522 919 l 522 224 q 408 106 522 106 l 278 106 q 163 224 163 106 l 163 919 l 60 919 l 60 224 q 281 0 60 0 l 404 0 m 236 172 q 242 139 236 149 q 278 129 247 129 l 408 129 q 497 224 497 129 l 497 942 l 465 942 l 417 990 l 410 990 l 410 1196 l 564 1196 l 613 1139 l 613 944 l 649 944 l 697 888 l 697 172 q 457 -74 697 -74 l 333 -74 q 219 -51 274 -74 q 124 10 165 -29 q 59 104 83 50 q 35 224 35 158 l 35 944 l 175 944 l 121 990 l 121 1196 l 276 1196 l 325 1139 l 325 942 l 188 942 l 236 888 l 236 172 z "},"Ý":{"ha":728,"x_min":-25,"x_max":715,"o":"m 529 1160 l 493 1211 l 194 1010 l 221 975 l 529 1160 m 371 0 l 371 424 l 628 919 l 525 919 l 325 533 l 128 919 l 15 919 l 269 424 l 269 0 l 371 0 m 192 888 l 335 607 l 510 944 l 669 944 l 715 888 l 444 367 l 444 -74 l 300 -74 l 244 -25 l 244 418 l -25 944 l 142 944 l 192 888 m 158 1017 l 500 1246 l 551 1188 l 613 1100 l 268 896 l 158 1017 z "},"Þ":{"ha":732,"x_min":39,"x_max":681,"o":"m 504 399 q 404 278 504 278 l 167 278 l 167 658 l 404 658 q 504 544 504 658 l 504 399 m 363 175 q 469 185 424 175 q 546 222 515 196 q 592 291 576 247 q 607 401 607 335 l 607 547 q 592 651 607 610 q 546 717 576 693 q 469 752 515 742 q 363 763 424 763 l 167 763 l 167 918 l 64 918 l 64 0 l 167 0 l 167 175 l 363 175 m 240 788 l 363 788 q 487 769 429 788 q 588 713 544 750 q 656 622 631 676 q 681 494 681 567 l 681 349 q 664 227 681 275 q 614 151 647 179 q 531 113 581 124 q 414 101 481 101 l 240 101 l 240 -74 l 96 -74 l 39 -25 l 39 943 l 192 943 l 240 886 l 240 788 m 479 544 q 477 572 479 560 q 457 585 475 585 l 240 585 l 240 303 l 404 303 q 479 399 479 303 l 479 544 z "},"ß":{"ha":867,"x_min":35,"x_max":810,"o":"m 539 0 q 736 211 736 0 l 736 317 q 538 499 736 499 q 486 560 486 499 l 486 726 q 311 919 486 919 l 236 919 q 60 726 60 919 l 60 0 l 160 0 l 160 738 q 243 829 160 829 l 304 829 q 388 736 388 829 l 388 557 q 536 411 388 411 q 638 313 638 411 l 638 214 q 536 101 638 101 l 299 101 l 299 0 l 539 0 m 560 522 q 655 499 610 519 q 734 443 700 478 q 789 363 768 408 q 810 264 810 317 l 810 158 q 592 -74 810 -74 l 331 -74 l 274 -25 l 274 126 l 536 126 q 613 214 613 126 l 613 313 q 610 333 613 328 q 589 339 607 339 q 504 356 544 339 q 433 401 464 372 q 383 470 401 431 q 364 557 364 510 l 364 736 q 364 745 364 740 q 363 756 364 750 l 294 756 q 233 685 233 756 l 233 -74 l 92 -74 l 35 -25 l 35 726 q 236 944 35 944 l 311 944 q 410 922 364 944 q 489 863 456 900 q 541 776 522 825 q 560 674 560 726 l 560 522 z "},"à":{"ha":711,"x_min":26,"x_max":642,"o":"m 415 729 l 442 763 l 143 965 l 106 913 l 415 729 m 472 94 l 219 94 q 143 172 143 94 l 143 240 q 219 319 143 319 l 472 319 l 472 94 m 568 0 l 568 461 q 371 672 568 672 l 89 672 l 89 571 l 371 571 q 472 458 472 571 l 472 407 l 211 407 q 51 257 51 407 l 51 158 q 90 40 51 79 q 211 0 128 0 l 568 0 m 490 672 q 601 564 561 636 q 642 410 642 492 l 642 -74 l 264 -74 q 175 -56 218 -74 q 99 -8 132 -39 q 47 66 67 24 q 26 158 26 108 l 26 257 q 71 388 26 344 q 211 432 115 432 l 447 432 l 447 458 q 444 486 447 475 q 424 497 442 497 l 121 497 l 64 546 l 64 697 l 371 697 q 382 697 376 697 q 392 696 388 697 l 129 854 l 71 904 l 136 999 l 475 765 l 525 715 l 490 672 m 447 246 l 271 246 q 217 188 217 246 l 217 119 l 447 119 l 447 246 z "},"á":{"ha":711,"x_min":26,"x_max":642,"o":"m 340 697 l 371 697 q 477 674 428 697 q 563 612 526 651 q 621 520 600 572 q 642 410 642 468 l 642 -74 l 264 -74 q 175 -56 218 -74 q 99 -8 132 -39 q 47 66 67 24 q 26 158 26 108 l 26 257 q 71 388 26 344 q 211 432 115 432 l 447 432 l 447 458 q 444 486 447 475 q 424 497 442 497 l 121 497 l 64 546 l 64 697 l 204 697 l 150 769 l 490 999 l 542 942 l 603 854 l 340 697 m 568 0 l 568 461 q 371 672 568 672 l 89 672 l 89 571 l 371 571 q 472 458 472 571 l 472 407 l 211 407 q 51 257 51 407 l 51 158 q 90 40 51 79 q 211 0 128 0 l 568 0 m 472 94 l 219 94 q 143 172 143 94 l 143 240 q 219 319 143 319 l 472 319 l 472 94 m 447 246 l 271 246 q 217 188 217 246 l 217 119 l 447 119 l 447 246 m 521 913 l 483 965 l 185 763 l 211 729 l 521 913 z "},"â":{"ha":711,"x_min":26,"x_max":656,"o":"m 572 761 l 357 965 l 297 965 l 82 761 l 119 729 l 326 894 l 535 729 l 572 761 m 472 94 l 219 94 q 143 172 143 94 l 143 240 q 219 319 143 319 l 472 319 l 472 94 m 568 0 l 568 461 q 371 672 568 672 l 89 672 l 89 571 l 371 571 q 472 458 472 571 l 472 407 l 211 407 q 51 257 51 407 l 51 158 q 90 40 51 79 q 211 0 128 0 l 568 0 m 656 708 l 589 649 l 379 815 l 231 697 l 371 697 q 477 674 428 697 q 563 612 526 651 q 621 520 600 572 q 642 410 642 468 l 642 -74 l 264 -74 q 175 -56 218 -74 q 99 -8 132 -39 q 47 66 67 24 q 26 158 26 108 l 26 257 q 71 388 26 344 q 211 432 115 432 l 447 432 l 447 458 q 444 486 447 475 q 424 497 442 497 l 121 497 l 64 546 l 64 697 l 114 697 l 46 761 l 288 990 l 367 990 l 608 761 l 656 708 m 447 246 l 271 246 q 217 188 217 246 l 217 119 l 447 119 l 447 246 z "},"ã":{"ha":711,"x_min":26,"x_max":650,"o":"m 517 915 q 433 847 499 847 q 381 857 404 847 q 333 878 357 867 q 283 900 310 890 q 221 910 257 910 q 128 878 163 910 q 82 803 93 846 l 135 775 q 167 826 146 811 q 222 842 189 842 q 276 832 253 842 q 323 810 300 822 q 372 788 346 797 q 435 778 399 778 q 528 811 493 778 q 574 888 563 844 l 517 915 m 472 94 l 219 94 q 143 172 143 94 l 143 240 q 219 319 143 319 l 472 319 l 472 94 m 568 0 l 568 461 q 371 672 568 672 l 89 672 l 89 571 l 371 571 q 472 458 472 571 l 472 407 l 211 407 q 51 257 51 407 l 51 158 q 90 40 51 79 q 211 0 128 0 l 568 0 m 603 901 l 650 846 q 629 792 643 818 q 594 747 615 767 q 547 716 574 728 q 486 704 519 704 q 422 714 449 704 q 371 736 394 724 q 325 758 347 749 q 274 768 303 768 q 231 751 250 768 q 200 697 211 735 l 371 697 q 477 674 428 697 q 563 612 526 651 q 621 520 600 572 q 642 410 642 468 l 642 -74 l 264 -74 q 175 -56 218 -74 q 99 -8 132 -39 q 47 66 67 24 q 26 158 26 108 l 26 257 q 71 388 26 344 q 211 432 115 432 l 447 432 l 447 458 q 444 486 447 475 q 424 497 442 497 l 121 497 l 64 546 l 64 697 l 190 697 l 108 739 l 51 789 q 109 892 67 849 q 221 935 151 935 q 292 924 261 935 q 349 899 322 913 l 347 899 q 388 880 367 888 q 433 872 410 872 q 501 950 481 872 l 603 901 m 447 246 l 271 246 q 217 188 217 246 l 217 119 l 447 119 l 447 246 z "},"ä":{"ha":711,"x_min":26,"x_max":642,"o":"m 236 768 l 236 925 l 129 925 l 129 768 l 236 768 m 524 768 l 524 925 l 418 925 l 418 768 l 524 768 m 472 94 l 219 94 q 143 172 143 94 l 143 240 q 219 319 143 319 l 472 319 l 472 94 m 568 0 l 568 461 q 371 672 568 672 l 89 672 l 89 571 l 371 571 q 472 458 472 571 l 472 407 l 211 407 q 51 257 51 407 l 51 158 q 90 40 51 79 q 211 0 128 0 l 568 0 m 64 546 l 64 697 l 158 697 l 113 743 l 106 743 l 106 950 l 261 950 l 310 893 l 310 697 l 371 697 q 477 674 428 697 q 563 612 526 651 q 621 520 600 572 q 642 410 642 468 l 642 -74 l 264 -74 q 175 -56 218 -74 q 99 -8 132 -39 q 47 66 67 24 q 26 158 26 108 l 26 257 q 71 388 26 344 q 211 432 115 432 l 447 432 l 447 458 q 444 486 447 475 q 424 497 442 497 l 121 497 l 64 546 m 401 743 l 393 743 l 393 950 l 549 950 l 597 893 l 597 694 l 450 694 l 401 743 m 447 246 l 271 246 q 217 188 217 246 l 217 119 l 447 119 l 447 246 z "},"å":{"ha":711,"x_min":26,"x_max":642,"o":"m 446 853 q 418 776 446 804 q 324 747 390 747 q 232 776 257 747 q 207 853 207 804 q 232 926 207 899 q 324 953 257 953 q 418 926 390 953 q 446 853 446 899 m 506 853 q 465 963 506 924 q 324 1003 424 1003 q 187 963 226 1003 q 147 853 147 924 q 187 740 147 782 q 324 699 226 699 q 465 740 424 699 q 506 853 506 782 m 472 94 l 219 94 q 143 172 143 94 l 143 240 q 219 319 143 319 l 472 319 l 472 94 m 568 0 l 568 461 q 371 672 568 672 l 89 672 l 89 571 l 371 571 q 472 458 472 571 l 472 407 l 211 407 q 51 257 51 407 l 51 158 q 90 40 51 79 q 211 0 128 0 l 568 0 m 579 800 q 564 716 579 753 q 515 657 549 679 q 610 551 578 613 q 642 410 642 489 l 642 -74 l 264 -74 q 175 -56 218 -74 q 99 -8 132 -39 q 47 66 67 24 q 26 158 26 108 l 26 257 q 71 388 26 344 q 211 432 115 432 l 447 432 l 447 458 q 444 486 447 475 q 424 497 442 497 l 121 497 l 64 546 l 64 697 l 199 697 l 193 701 q 138 763 154 725 q 122 853 122 800 q 167 980 122 932 q 324 1028 213 1028 q 417 1012 372 1028 q 496 967 461 996 q 553 895 531 938 q 579 800 575 853 m 447 246 l 271 246 q 217 188 217 246 l 217 119 l 447 119 l 447 246 m 421 853 q 413 876 421 872 q 390 881 406 881 q 304 861 328 881 q 281 800 281 842 q 282 778 281 782 q 324 772 294 772 q 399 794 376 772 q 421 853 421 817 z "},"æ":{"ha":1128,"x_min":26,"x_max":1060,"o":"m 892 376 l 568 376 l 568 464 q 669 576 568 576 l 790 576 q 892 464 892 576 l 892 376 m 472 94 l 219 94 q 143 172 143 94 l 143 246 q 221 325 143 325 l 472 325 l 472 94 m 968 0 l 968 101 l 669 101 q 568 210 568 101 l 568 299 l 986 299 l 986 461 q 789 672 986 672 l 669 672 q 574 651 614 672 q 519 586 535 629 q 465 651 504 629 q 371 672 426 672 l 89 672 l 89 571 l 371 571 q 472 461 472 571 l 472 401 l 206 401 q 51 251 51 401 l 51 167 q 203 0 51 0 l 551 0 l 551 81 q 606 20 569 40 q 704 0 642 0 l 968 0 m 642 157 q 646 133 642 139 q 674 126 650 126 l 993 126 l 1042 69 l 1042 -74 l 757 -74 q 681 -64 713 -74 q 625 -36 649 -54 l 625 -74 l 256 -74 q 167 -54 208 -74 q 94 -2 125 -35 q 44 74 63 31 q 26 167 26 118 l 26 251 q 206 426 26 426 l 447 426 l 447 461 q 443 487 447 476 q 419 497 439 497 l 121 497 l 64 546 l 64 697 l 371 697 q 459 684 421 697 q 521 639 497 671 q 669 697 571 697 l 789 697 q 897 674 847 697 q 982 612 946 651 q 1039 520 1018 572 q 1060 410 1060 468 l 1060 225 l 642 225 l 642 157 m 447 251 l 272 251 q 217 193 217 251 l 217 119 l 447 119 l 447 251 m 867 464 q 863 492 867 479 q 839 504 858 504 l 721 504 q 642 411 642 504 l 642 401 l 867 401 l 867 464 z "},"ç":{"ha":633,"x_min":33,"x_max":567,"o":"m 306 -307 l 351 -53 l 235 -53 l 224 -307 l 306 -307 m 493 0 l 493 101 l 257 101 q 156 214 156 101 l 156 451 q 257 571 156 571 l 490 571 l 490 672 l 254 672 q 58 456 58 672 l 58 211 q 254 0 58 0 l 493 0 m 229 161 q 257 126 229 126 l 518 126 l 567 69 l 567 -74 l 418 -74 l 429 -83 l 376 -381 l 253 -381 l 197 -332 l 210 -58 q 76 53 118 -18 q 33 211 33 124 l 33 456 q 254 697 33 697 l 515 697 l 564 642 l 564 497 l 310 497 q 229 399 229 497 l 229 161 z "},"è":{"ha":713,"x_min":33,"x_max":646,"o":"m 417 729 l 443 763 l 144 965 l 107 913 l 417 729 m 478 382 l 153 382 l 153 464 q 254 576 153 576 l 375 576 q 478 464 478 576 l 478 382 m 553 0 l 553 101 l 254 101 q 153 214 153 101 l 153 294 l 572 294 l 572 461 q 374 672 572 672 l 254 672 q 58 461 58 672 l 58 211 q 254 0 58 0 l 553 0 m 226 161 q 233 135 226 143 q 261 126 239 126 l 578 126 l 626 69 l 626 -74 l 307 -74 q 200 -51 250 -74 q 113 9 150 -29 q 55 99 76 47 q 33 211 33 151 l 33 461 q 254 697 33 697 l 374 697 q 383 697 379 697 q 392 696 388 696 l 129 854 l 72 904 l 138 999 l 479 769 l 526 715 l 493 674 q 556 628 528 657 q 604 565 585 600 q 635 489 624 529 q 646 410 646 449 l 646 222 l 226 222 l 226 161 m 453 464 q 447 492 453 481 q 421 504 442 504 l 307 504 q 226 411 226 504 l 226 407 l 453 407 l 453 464 z "},"é":{"ha":713,"x_min":33,"x_max":646,"o":"m 522 913 l 485 965 l 186 763 l 213 729 l 522 913 m 478 382 l 153 382 l 153 464 q 254 576 153 576 l 375 576 q 478 464 478 576 l 478 382 m 553 0 l 553 101 l 254 101 q 153 214 153 101 l 153 294 l 572 294 l 572 461 q 374 672 572 672 l 254 672 q 58 461 58 672 l 58 211 q 254 0 58 0 l 553 0 m 226 161 q 233 135 226 143 q 261 126 239 126 l 578 126 l 626 69 l 626 -74 l 307 -74 q 200 -51 250 -74 q 113 9 150 -29 q 55 99 76 47 q 33 211 33 151 l 33 461 q 213 694 33 674 l 151 769 l 492 999 l 543 942 l 604 854 l 340 697 l 374 697 q 481 674 431 697 q 567 613 531 651 q 625 521 604 574 q 646 410 646 468 l 646 222 l 226 222 l 226 161 m 453 464 q 448 492 453 481 q 422 504 443 504 l 307 504 q 226 411 226 504 l 226 407 l 453 407 l 453 464 z "},"ê":{"ha":713,"x_min":33,"x_max":646,"o":"m 558 761 l 343 965 l 285 965 l 69 761 l 106 729 l 314 894 l 522 729 l 558 761 m 478 382 l 153 382 l 153 464 q 254 576 153 576 l 375 576 q 478 464 478 576 l 478 382 m 553 0 l 553 101 l 254 101 q 153 214 153 101 l 153 294 l 572 294 l 572 461 q 374 672 572 672 l 254 672 q 58 461 58 672 l 58 211 q 254 0 58 0 l 553 0 m 643 708 l 575 649 l 365 815 l 215 694 q 234 697 225 696 q 254 697 243 697 l 374 697 q 481 674 431 697 q 567 613 531 651 q 625 521 604 574 q 646 410 646 468 l 646 222 l 226 222 l 226 161 q 233 135 226 144 q 260 126 239 126 l 578 126 l 626 69 l 626 -74 l 307 -74 q 200 -51 250 -74 q 113 9 150 -29 q 55 99 76 47 q 33 211 33 151 l 33 461 q 131 671 33 619 l 33 761 l 274 990 l 354 990 l 596 761 l 643 708 m 453 464 q 448 492 453 481 q 422 504 443 504 l 307 504 q 226 411 226 504 l 226 407 l 453 407 l 453 464 z "},"ë":{"ha":713,"x_min":33,"x_max":646,"o":"m 238 768 l 238 925 l 131 925 l 131 768 l 238 768 m 525 768 l 525 925 l 419 925 l 419 768 l 525 768 m 478 382 l 153 382 l 153 464 q 254 576 153 576 l 375 576 q 478 464 478 576 l 478 382 m 553 0 l 553 101 l 254 101 q 153 214 153 101 l 153 294 l 572 294 l 572 461 q 374 672 572 672 l 254 672 q 58 461 58 672 l 58 211 q 254 0 58 0 l 553 0 m 226 161 q 233 135 226 144 q 260 126 239 126 l 578 126 l 626 69 l 626 -74 l 307 -74 q 200 -51 250 -74 q 113 9 150 -29 q 55 99 76 47 q 33 211 33 151 l 33 461 q 213 694 33 674 l 163 694 l 106 743 l 106 950 l 263 950 l 311 893 l 311 697 l 374 697 q 481 674 431 697 q 567 613 531 651 q 625 521 604 574 q 646 410 646 468 l 646 222 l 226 222 l 226 161 m 394 743 l 394 950 l 550 950 l 599 893 l 599 694 l 451 694 l 394 743 m 453 464 q 448 492 453 481 q 422 504 443 504 l 307 504 q 226 411 226 504 l 226 407 l 453 407 l 453 464 z "},"ì":{"ha":325,"x_min":-122,"x_max":332,"o":"m 224 729 l 249 763 l -50 965 l -86 913 l 224 729 m 171 0 l 171 672 l 71 672 l 71 0 l 171 0 m 46 -25 l 46 697 l 196 697 l 244 642 l 244 -74 l 103 -74 l 46 -25 m -122 904 l -57 999 l 285 769 l 332 715 l 281 649 l -64 854 l -122 904 z "},"í":{"ha":325,"x_min":-43,"x_max":411,"o":"m 328 913 l 292 965 l -8 763 l 18 729 l 328 913 m 171 0 l 171 672 l 71 672 l 71 0 l 171 0 m 147 697 l 196 697 l 244 642 l 244 -74 l 103 -74 l 46 -25 l 46 669 l 13 696 l -43 769 l 297 999 l 349 942 l 411 854 l 147 697 z "},"î":{"ha":325,"x_min":-160,"x_max":450,"o":"m 365 761 l 151 965 l 92 965 l -124 761 l -86 729 l 121 894 l 329 729 l 365 761 m 171 0 l 171 672 l 71 672 l 71 0 l 171 0 m 46 -25 l 46 697 l 196 690 l 244 642 l 244 -74 l 103 -74 l 46 -25 m 450 708 l 383 649 l 174 815 l -35 649 l -160 761 l 82 990 l 161 990 l 403 761 l 450 708 z "},"ï":{"ha":325,"x_min":-101,"x_max":390,"o":"m 31 768 l 31 925 l -76 925 l -76 768 l 31 768 m 317 768 l 317 925 l 213 925 l 213 768 l 317 768 m 171 0 l 171 672 l 71 672 l 71 0 l 171 0 m 46 -25 l 46 694 l -44 694 l -101 743 l -101 950 l 56 950 l 104 893 l 104 697 l 196 697 l 244 642 l 244 -74 l 103 -74 l 46 -25 m 196 743 l 188 743 l 188 950 l 342 950 l 390 893 l 390 694 l 244 694 l 196 743 z "},"ð":{"ha":729,"x_min":33,"x_max":661,"o":"m 489 233 q 456 130 489 158 q 357 101 424 101 l 288 101 q 186 133 217 101 q 156 249 156 164 l 156 385 q 185 497 156 465 q 289 528 214 528 l 489 528 l 489 233 m 378 0 q 588 231 588 0 l 588 683 q 388 919 588 919 l 192 919 l 192 825 l 378 825 q 460 790 432 825 q 489 688 489 754 l 489 624 l 268 624 q 110 572 163 624 q 58 404 58 521 l 58 231 q 268 0 58 0 l 378 0 m 175 800 l 167 800 l 167 944 l 388 944 q 571 860 515 944 l 599 833 q 645 750 631 801 q 661 631 660 699 l 661 178 q 431 -74 661 -74 l 319 -74 q 153 -15 208 -74 l 128 10 q 33 231 33 67 l 33 404 q 90 592 33 535 q 268 649 147 649 l 464 649 l 464 688 q 461 721 464 706 q 454 749 458 736 q 442 751 447 750 q 431 751 436 751 l 224 751 l 175 800 m 464 454 l 340 454 q 253 428 278 454 q 229 332 229 401 l 229 197 q 235 132 229 153 q 288 126 251 126 l 357 126 q 437 150 410 126 q 464 233 464 174 l 464 454 z "},"ñ":{"ha":742,"x_min":39,"x_max":669,"o":"m 531 915 q 447 847 514 847 q 394 857 418 847 q 347 878 371 867 q 297 900 324 890 q 235 910 271 910 q 142 878 176 910 q 96 803 107 846 l 150 775 q 182 826 160 811 q 236 842 204 842 q 290 832 267 842 q 337 810 314 822 q 386 788 360 797 q 449 778 413 778 q 542 811 507 778 q 588 888 576 844 l 531 915 m 597 0 l 597 467 q 446 672 597 672 l 297 672 q 210 654 242 672 q 158 590 178 636 l 158 672 l 64 672 l 64 0 l 163 0 l 163 458 q 183 544 163 517 q 254 571 203 571 l 421 571 q 500 460 500 571 l 500 0 l 597 0 m 39 -25 l 39 697 l 183 697 l 196 676 q 239 693 215 689 q 297 697 263 697 l 446 697 q 542 672 500 697 q 612 606 583 646 q 655 515 640 565 q 669 414 669 464 l 669 -74 l 531 -74 l 475 -25 l 475 460 q 471 497 475 481 l 307 497 q 251 475 267 497 q 236 407 236 453 l 236 -74 l 96 -74 l 39 -25 m 618 901 l 665 846 q 644 792 658 818 q 610 747 631 767 q 562 716 589 728 q 501 704 535 704 q 436 714 464 704 q 385 736 408 724 q 340 758 363 749 q 289 768 317 768 q 245 751 264 768 q 215 693 226 733 l 124 739 l 65 789 q 123 892 81 849 q 235 935 165 935 q 292 925 265 935 q 344 903 319 915 q 394 882 369 892 q 447 872 419 872 q 515 950 496 872 l 618 901 z "},"ò":{"ha":729,"x_min":33,"x_max":661,"o":"m 425 729 l 451 763 l 153 965 l 115 913 l 425 729 m 489 194 q 404 101 489 101 l 240 101 q 174 130 193 101 q 156 210 156 158 l 156 478 q 240 571 156 571 l 404 571 q 469 542 450 571 q 489 461 489 514 l 489 194 m 408 0 q 549 57 510 0 q 588 228 588 114 l 588 444 q 578 552 588 508 q 544 622 568 596 q 477 660 519 649 q 369 672 435 672 l 275 672 q 171 662 213 672 q 104 626 129 651 q 69 556 79 600 q 58 444 58 511 l 58 228 q 68 120 58 164 q 102 50 78 76 q 168 12 126 24 q 275 0 210 0 l 408 0 m 504 679 q 622 572 583 640 q 661 392 661 504 l 661 176 q 617 -12 661 50 q 460 -74 574 -74 l 328 -74 q 108 1 182 -74 q 33 228 33 76 l 33 444 q 45 568 33 519 q 85 646 57 617 q 160 686 114 675 q 275 697 206 697 l 369 697 q 385 697 378 697 q 401 696 393 697 l 138 854 l 81 904 l 146 999 l 486 769 l 533 715 l 504 679 m 464 461 q 460 497 464 481 l 293 497 q 229 425 229 497 l 229 157 q 229 141 229 149 q 231 126 229 133 l 404 126 q 464 194 464 126 l 464 461 z "},"ó":{"ha":729,"x_min":33,"x_max":661,"o":"m 529 913 l 493 965 l 194 763 l 221 729 l 529 913 m 489 194 q 404 101 489 101 l 240 101 q 174 130 193 101 q 156 210 156 158 l 156 478 q 240 571 156 571 l 404 571 q 469 542 450 571 q 489 461 489 514 l 489 194 m 408 0 q 549 57 510 0 q 588 228 588 114 l 588 444 q 578 552 588 508 q 544 622 568 596 q 477 660 519 649 q 369 672 435 672 l 275 672 q 171 662 213 672 q 104 626 129 651 q 69 556 79 600 q 58 444 58 511 l 58 228 q 68 120 58 164 q 102 50 78 76 q 168 12 126 24 q 275 0 210 0 l 408 0 m 349 697 l 369 697 q 588 618 515 697 q 661 392 661 539 l 661 176 q 617 -12 661 50 q 460 -74 574 -74 l 328 -74 q 108 1 182 -74 q 33 228 33 76 l 33 444 q 43 557 33 511 q 74 633 53 603 q 131 677 96 663 q 215 696 165 692 l 158 769 l 500 999 l 551 942 l 613 854 l 349 697 m 464 461 q 460 497 464 481 l 293 497 q 229 425 229 497 l 229 157 q 230 140 229 149 q 233 126 231 132 l 404 126 q 464 194 464 126 l 464 461 z "},"ô":{"ha":729,"x_min":33,"x_max":661,"o":"m 567 761 l 351 965 l 293 965 l 78 761 l 114 729 l 321 894 l 529 729 l 567 761 m 489 194 q 404 101 489 101 l 240 101 q 174 130 193 101 q 156 210 156 158 l 156 478 q 240 571 156 571 l 404 571 q 469 542 450 571 q 489 461 489 514 l 489 194 m 408 0 q 549 57 510 0 q 588 228 588 114 l 588 444 q 578 552 588 508 q 544 622 568 596 q 477 660 519 649 q 369 672 435 672 l 275 672 q 171 662 213 672 q 104 626 129 651 q 69 556 79 600 q 58 444 58 511 l 58 228 q 68 120 58 164 q 102 50 78 76 q 168 12 126 24 q 275 0 210 0 l 408 0 m 650 708 l 583 649 l 374 815 l 224 694 q 249 697 236 696 q 275 697 261 697 l 369 697 q 588 618 515 697 q 661 392 661 539 l 661 176 q 617 -12 661 50 q 460 -74 574 -74 l 328 -74 q 108 1 182 -74 q 33 228 33 76 l 33 444 q 55 599 33 544 q 132 676 76 653 l 40 761 l 282 990 l 363 990 l 603 761 l 650 708 m 464 461 q 460 497 464 481 l 293 497 q 229 425 229 497 l 229 157 q 229 141 229 149 q 231 126 229 133 l 404 126 q 464 194 464 126 l 464 461 z "},"õ":{"ha":729,"x_min":33,"x_max":661,"o":"m 511 915 q 428 847 494 847 q 375 857 399 847 q 328 878 351 867 q 278 900 304 890 q 215 910 251 910 q 122 878 157 910 q 76 803 88 846 l 129 775 q 163 826 140 811 q 217 842 185 842 q 271 832 247 842 q 317 810 294 822 q 367 788 340 797 q 429 778 393 778 q 522 811 488 778 q 568 888 557 844 l 511 915 m 489 194 q 404 101 489 101 l 240 101 q 174 130 193 101 q 156 210 156 158 l 156 478 q 240 571 156 571 l 404 571 q 469 542 450 571 q 489 461 489 514 l 489 194 m 408 0 q 549 57 510 0 q 588 228 588 114 l 588 444 q 578 552 588 508 q 544 622 568 596 q 477 660 519 649 q 369 672 435 672 l 275 672 q 171 662 213 672 q 104 626 129 651 q 69 556 79 600 q 58 444 58 511 l 58 228 q 68 120 58 164 q 102 50 78 76 q 168 12 126 24 q 275 0 210 0 l 408 0 m 599 901 l 646 846 q 625 792 639 818 q 590 747 611 767 q 542 716 569 728 q 481 704 514 704 q 416 714 443 704 q 366 736 389 724 q 320 758 343 749 q 269 768 297 768 q 226 751 244 768 q 196 693 207 733 q 275 697 231 697 l 369 697 q 588 618 515 697 q 661 392 661 539 l 661 176 q 617 -12 661 50 q 460 -74 574 -74 l 328 -74 q 108 1 182 -74 q 33 228 33 76 l 33 444 q 42 551 33 507 q 69 625 50 596 q 118 670 88 654 q 194 693 149 686 l 104 739 l 46 789 q 103 892 61 849 q 215 935 146 935 q 273 925 246 935 q 325 903 300 915 q 375 882 350 892 q 428 872 400 872 q 496 950 475 872 l 599 901 m 464 461 q 460 497 464 481 l 293 497 q 229 425 229 497 l 229 157 q 229 141 229 149 q 231 126 229 133 l 404 126 q 464 194 464 126 l 464 461 z "},"ö":{"ha":729,"x_min":33,"x_max":661,"o":"m 232 768 l 232 925 l 126 925 l 126 768 l 232 768 m 519 768 l 519 925 l 414 925 l 414 768 l 519 768 m 489 194 q 404 101 489 101 l 240 101 q 174 130 193 101 q 156 210 156 158 l 156 478 q 240 571 156 571 l 404 571 q 469 542 450 571 q 489 461 489 514 l 489 194 m 408 0 q 549 57 510 0 q 588 228 588 114 l 588 444 q 578 552 588 508 q 544 622 568 596 q 477 660 519 649 q 369 672 435 672 l 275 672 q 171 662 213 672 q 104 626 129 651 q 69 556 79 600 q 58 444 58 511 l 58 228 q 68 120 58 164 q 102 50 78 76 q 168 12 126 24 q 275 0 210 0 l 408 0 m 328 -74 q 108 1 182 -74 q 33 228 33 76 l 33 444 q 42 556 33 510 q 72 631 51 601 q 128 675 93 660 q 213 694 163 690 l 157 694 l 101 743 l 101 950 l 257 950 l 306 893 l 306 697 l 369 697 q 588 618 515 697 q 661 392 661 539 l 661 176 q 617 -12 661 50 q 460 -74 574 -74 l 328 -74 m 464 461 q 460 497 464 481 l 293 497 q 229 425 229 497 l 229 157 q 229 141 229 149 q 231 126 229 133 l 404 126 q 464 194 464 126 l 464 461 m 389 743 l 389 950 l 544 950 l 593 893 l 593 694 l 446 694 l 389 743 z "},"÷":{"ha":893,"x_min":35,"x_max":824,"o":"m 454 53 l 454 249 l 354 249 l 354 53 l 454 53 m 454 672 l 454 869 l 354 869 l 354 672 l 454 672 m 750 424 l 750 524 l 60 524 l 60 424 l 750 424 m 35 399 l 35 549 l 775 549 l 824 492 l 824 350 l 92 350 l 35 399 m 329 28 l 329 274 l 479 274 l 528 218 l 528 -21 l 386 -21 l 329 28 m 329 647 l 329 894 l 479 894 l 528 838 l 528 599 l 386 599 l 329 647 z "},"ø":{"ha":729,"x_min":33,"x_max":661,"o":"m 178 125 q 156 210 156 151 l 156 478 q 240 571 156 571 l 407 571 l 178 125 m 489 194 q 404 101 489 101 l 238 101 l 465 547 q 489 461 489 519 l 489 194 m 408 0 q 549 57 510 0 q 588 228 588 114 l 588 444 q 572 572 588 524 q 515 644 557 621 l 558 726 l 503 756 l 457 667 q 416 671 438 669 q 369 672 394 672 l 275 672 q 171 662 213 672 q 104 626 129 651 q 69 556 79 600 q 58 444 58 511 l 58 228 q 73 100 58 149 q 129 28 88 51 l 97 -35 l 153 -62 l 189 7 q 228 1 207 3 q 275 0 250 0 l 408 0 m 63 -43 l 96 19 q 47 99 60 49 q 33 228 33 149 l 33 444 q 45 568 33 519 q 85 646 57 617 q 160 686 114 675 q 275 697 206 697 l 369 697 q 442 693 410 697 l 492 788 l 589 732 l 639 683 l 594 600 q 647 516 633 572 q 661 392 661 460 l 661 176 q 617 -12 661 50 q 460 -74 574 -74 l 328 -74 q 251 -69 282 -74 l 215 -143 l 121 -94 l 63 -43 m 464 346 l 351 126 l 404 126 q 464 194 464 126 l 464 346 m 229 278 l 340 497 l 293 497 q 229 425 229 497 l 229 278 z "},"ù":{"ha":731,"x_min":35,"x_max":657,"o":"m 521 697 l 608 697 l 657 642 l 657 -74 l 519 -74 l 499 -53 q 401 -74 461 -74 l 265 -74 q 169 -49 213 -74 q 97 15 126 -25 q 51 104 67 54 q 35 206 35 154 l 35 697 l 182 697 l 231 642 l 231 140 q 232 126 231 128 l 392 126 q 444 147 429 126 q 460 213 460 168 l 460 664 l 139 854 l 82 904 l 147 999 l 488 769 l 535 715 l 521 697 m 583 0 l 583 672 l 485 672 l 485 213 q 464 128 485 154 q 392 101 443 101 l 238 101 q 157 211 157 101 l 157 672 l 60 672 l 60 206 q 213 0 60 0 l 349 0 q 438 18 407 0 q 488 82 468 36 l 488 0 l 583 0 m 426 729 l 453 763 l 153 965 l 117 913 l 426 729 z "},"ú":{"ha":731,"x_min":35,"x_max":657,"o":"m 231 140 q 232 126 231 128 l 392 126 q 444 147 429 126 q 460 213 460 168 l 460 697 l 608 697 l 657 642 l 657 -74 l 519 -74 l 499 -53 q 401 -74 461 -74 l 265 -74 q 169 -49 213 -74 q 97 15 126 -25 q 51 104 67 54 q 35 206 35 154 l 35 697 l 182 697 l 231 642 l 231 140 m 583 0 l 583 672 l 485 672 l 485 213 q 464 128 485 154 q 392 101 443 101 l 238 101 q 157 211 157 101 l 157 672 l 60 672 l 60 206 q 213 0 60 0 l 349 0 q 438 18 407 0 q 488 82 468 36 l 488 0 l 583 0 m 217 696 l 160 769 l 501 999 l 551 942 l 614 854 l 269 649 l 217 696 m 531 913 l 494 965 l 196 763 l 222 729 l 531 913 z "},"û":{"ha":731,"x_min":35,"x_max":657,"o":"m 651 708 l 619 679 l 657 642 l 657 -74 l 519 -74 l 499 -53 q 401 -74 461 -74 l 265 -74 q 169 -49 213 -74 q 97 15 126 -25 q 51 104 67 54 q 35 206 35 154 l 35 697 l 110 697 l 42 761 l 283 990 l 364 990 l 604 761 l 651 708 m 583 0 l 583 672 l 485 672 l 485 213 q 464 128 485 154 q 392 101 443 101 l 238 101 q 157 211 157 101 l 157 672 l 60 672 l 60 206 q 213 0 60 0 l 349 0 q 438 18 407 0 q 488 82 468 36 l 488 0 l 583 0 m 460 697 l 524 697 l 375 815 l 199 674 l 231 642 l 231 140 q 232 126 231 128 l 392 126 q 444 147 429 126 q 460 213 460 168 l 460 697 m 568 761 l 353 965 l 293 965 l 79 761 l 115 729 l 322 894 l 531 729 l 568 761 z "},"ü":{"ha":731,"x_min":35,"x_max":657,"o":"m 231 140 q 232 126 231 128 l 392 126 q 444 147 429 126 q 460 213 460 168 l 460 694 l 444 694 l 388 743 l 388 950 l 543 950 l 592 893 l 592 697 l 608 697 l 657 642 l 657 -74 l 519 -74 l 499 -53 q 401 -74 461 -74 l 265 -74 q 169 -49 213 -74 q 97 15 126 -25 q 51 104 67 54 q 35 206 35 154 l 35 697 l 153 697 l 100 743 l 100 950 l 256 950 l 304 893 l 304 694 l 182 694 l 231 642 l 231 140 m 583 0 l 583 672 l 485 672 l 485 213 q 464 128 485 154 q 392 101 443 101 l 238 101 q 157 211 157 101 l 157 672 l 60 672 l 60 206 q 213 0 60 0 l 349 0 q 438 18 407 0 q 488 82 468 36 l 488 0 l 583 0 m 231 768 l 231 925 l 125 925 l 125 768 l 231 768 m 518 768 l 518 925 l 413 925 l 413 768 l 518 768 z "},"ý":{"ha":713,"x_min":35,"x_max":640,"o":"m 522 913 l 485 965 l 186 763 l 213 729 l 522 913 m 379 -208 q 567 8 567 -208 l 567 672 l 467 672 l 467 151 l 261 151 q 158 261 158 151 l 158 672 l 60 672 l 60 265 q 257 58 60 58 l 467 58 l 467 4 q 369 -115 467 -115 l 179 -115 l 179 -208 l 379 -208 m 232 208 q 236 184 232 192 q 261 176 240 176 l 442 176 l 442 697 l 592 697 l 640 642 l 640 -44 q 432 -282 640 -282 l 211 -282 l 154 -233 l 154 -90 l 369 -90 q 440 -14 435 -90 l 310 -14 q 203 7 253 -14 q 115 65 153 28 q 56 153 78 103 q 35 265 35 204 l 35 697 l 183 697 l 232 642 l 232 208 m 207 696 l 151 769 l 492 999 l 543 942 l 604 854 l 260 649 l 207 696 z "},"þ":{"ha":715,"x_min":39,"x_max":647,"o":"m 476 214 q 375 101 476 101 l 163 101 l 163 571 l 374 571 q 455 535 433 571 q 476 433 476 500 l 476 214 m 378 0 q 575 211 575 0 l 575 413 q 532 608 575 543 q 378 672 489 672 l 163 672 l 163 919 l 64 919 l 64 -210 l 163 -210 l 163 0 l 378 0 m 236 697 l 378 697 q 499 669 449 697 q 583 595 550 642 q 632 488 617 549 q 647 361 647 428 l 647 158 q 431 -74 647 -74 l 236 -74 l 236 -283 l 96 -283 l 39 -235 l 39 944 l 188 944 l 236 888 l 236 697 m 451 433 l 451 453 q 447 483 451 468 q 426 497 443 497 l 236 497 l 236 126 l 375 126 q 451 214 451 126 l 451 433 z "},"ÿ":{"ha":713,"x_min":35,"x_max":640,"o":"m 224 768 l 224 925 l 118 925 l 118 768 l 224 768 m 511 768 l 511 925 l 407 925 l 407 768 l 511 768 m 379 -208 q 567 8 567 -208 l 567 672 l 467 672 l 467 151 l 261 151 q 158 261 158 151 l 158 672 l 60 672 l 60 265 q 257 58 60 58 l 467 58 l 467 4 q 369 -115 467 -115 l 179 -115 l 179 -208 l 379 -208 m 232 208 q 238 183 232 190 q 265 176 243 176 l 442 176 l 442 694 l 438 694 l 382 743 l 382 950 l 536 950 l 585 893 l 585 697 l 592 697 l 640 642 l 640 -44 q 432 -282 640 -282 l 211 -282 l 154 -233 l 154 -90 l 369 -90 q 440 -14 435 -90 l 310 -14 q 203 7 253 -14 q 115 65 153 28 q 56 153 78 103 q 35 265 35 204 l 35 697 l 147 697 l 93 743 l 93 950 l 249 950 l 297 893 l 297 694 l 183 694 l 183 690 l 232 642 l 232 208 z "},"Ā":{"ha":739,"x_min":-11,"x_max":714,"o":"m 543 1057 l 543 1136 l 111 1136 l 111 1057 l 543 1057 m 454 269 l 190 269 l 321 778 l 454 269 m 635 0 l 383 919 l 265 919 l 21 0 l 122 0 l 168 182 l 476 182 l 525 0 l 635 0 m -11 -25 l 246 944 l 401 944 l 451 888 l 714 -74 l 561 -74 l 506 -25 l 471 108 l 238 108 l 192 -74 l 47 -74 l -11 -25 m 86 1032 l 86 1161 l 568 1161 l 617 1104 l 617 983 l 143 983 l 86 1032 m 353 556 l 283 293 l 422 293 l 353 556 z "},"ā":{"ha":711,"x_min":26,"x_max":642,"o":"m 543 810 l 543 889 l 111 889 l 111 810 l 543 810 m 472 94 l 219 94 q 143 172 143 94 l 143 240 q 219 319 143 319 l 472 319 l 472 94 m 568 0 l 568 461 q 371 672 568 672 l 89 672 l 89 571 l 371 571 q 472 458 472 571 l 472 407 l 211 407 q 51 257 51 407 l 51 158 q 90 40 51 79 q 211 0 128 0 l 568 0 m 64 546 l 64 697 l 371 697 q 477 674 428 697 q 563 612 526 651 q 621 520 600 572 q 642 410 642 468 l 642 -74 l 264 -74 q 175 -56 218 -74 q 99 -8 132 -39 q 47 66 67 24 q 26 158 26 108 l 26 257 q 71 388 26 344 q 211 432 115 432 l 447 432 l 447 458 q 444 486 447 475 q 424 497 442 497 l 121 497 l 64 546 m 86 786 l 86 914 l 568 914 l 617 857 l 617 738 l 143 738 l 86 786 m 447 246 l 271 246 q 217 188 217 246 l 217 119 l 447 119 l 447 246 z "},"Ă":{"ha":739,"x_min":-11,"x_max":714,"o":"m 524 1189 q 451 1081 501 1122 q 326 1040 401 1040 q 201 1083 256 1040 q 132 1189 147 1125 l 83 1160 q 108 1095 88 1128 q 160 1035 128 1063 q 235 992 192 1008 q 328 975 278 975 q 421 992 379 975 q 493 1035 463 1008 q 544 1095 524 1063 q 572 1160 564 1128 l 524 1189 m 454 269 l 190 269 l 321 778 l 454 269 m 635 0 l 383 919 l 265 919 l 21 0 l 122 0 l 168 182 l 476 182 l 525 0 l 635 0 m 601 1172 l 649 1117 q 622 1051 640 1085 q 577 988 604 1017 q 513 936 550 958 q 432 906 476 914 l 451 888 l 714 -74 l 561 -74 l 506 -25 l 471 108 l 238 108 l 192 -74 l 47 -74 l -11 -25 l 244 938 q 188 976 218 950 q 130 1036 157 1003 q 83 1106 103 1069 q 58 1172 63 1142 l 150 1229 l 200 1169 q 240 1093 207 1121 q 326 1065 274 1065 q 438 1110 390 1065 q 508 1228 485 1156 l 601 1172 m 353 556 l 283 293 l 422 293 l 353 556 z "},"ă":{"ha":711,"x_min":26,"x_max":647,"o":"m 522 943 q 450 835 500 876 q 325 793 400 793 q 201 835 254 793 q 131 943 147 876 l 82 913 q 106 849 86 881 q 158 790 126 817 q 233 746 190 763 q 326 729 276 729 q 419 746 378 729 q 492 790 461 763 q 542 849 522 817 q 571 913 563 881 l 522 943 m 472 94 l 219 94 q 143 172 143 94 l 143 240 q 219 319 143 319 l 472 319 l 472 94 m 568 0 l 568 461 q 371 672 568 672 l 89 672 l 89 571 l 371 571 q 472 458 472 571 l 472 407 l 211 407 q 51 257 51 407 l 51 158 q 90 40 51 79 q 211 0 128 0 l 568 0 m 600 926 l 647 871 q 591 760 632 815 q 483 676 550 706 q 550 631 521 660 q 599 567 579 603 q 631 492 619 532 q 642 410 642 451 l 642 -74 l 264 -74 q 175 -56 218 -74 q 99 -8 132 -39 q 47 66 67 24 q 26 158 26 108 l 26 257 q 71 388 26 344 q 211 432 115 432 l 447 432 l 447 458 q 444 486 447 475 q 424 497 442 497 l 121 497 l 64 546 l 64 697 l 233 697 q 170 749 201 719 q 114 809 139 778 q 73 871 89 840 q 57 926 57 901 l 149 982 l 199 924 q 239 847 206 875 q 325 818 272 818 q 438 863 392 818 q 507 981 483 908 l 600 926 m 447 246 l 271 246 q 217 188 217 246 l 217 119 l 447 119 l 447 246 z "},"Ą":{"ha":739,"x_min":-11,"x_max":713,"o":"m 454 269 l 190 269 l 321 778 l 454 269 m 635 -307 l 635 -197 l 510 -197 q 450 -180 469 -197 q 431 -136 431 -162 q 482 -69 431 -92 l 635 0 l 383 919 l 265 919 l 21 0 l 122 0 l 168 182 l 476 182 l 525 0 l 574 0 l 457 -50 q 372 -108 399 -75 q 346 -185 346 -142 q 383 -275 346 -243 q 492 -307 419 -307 l 635 -307 m 543 -142 q 506 -172 511 -154 l 660 -172 l 708 -228 l 708 -381 l 544 -381 q 467 -366 507 -381 q 394 -326 426 -351 q 342 -264 363 -300 q 321 -185 321 -228 q 351 -95 321 -136 q 447 -26 381 -54 l 500 -4 l 469 108 l 238 108 l 192 -74 l 47 -74 l -11 -25 l 246 944 l 401 944 l 451 888 l 713 -65 l 543 -142 m 353 556 l 283 293 l 422 293 l 353 556 z "},"ą":{"ha":711,"x_min":26,"x_max":642,"o":"m 472 94 l 219 94 q 143 172 143 94 l 143 240 q 219 319 143 319 l 472 319 l 472 94 m 568 -307 l 568 -197 l 443 -197 q 383 -180 401 -197 q 364 -136 364 -162 q 415 -69 364 -92 l 568 0 l 568 461 q 371 672 568 672 l 89 672 l 89 571 l 371 571 q 472 458 472 571 l 472 407 l 211 407 q 51 257 51 407 l 51 158 q 90 40 51 79 q 211 0 128 0 l 506 0 l 389 -50 q 305 -109 331 -75 q 279 -185 279 -143 q 316 -275 279 -243 q 425 -307 353 -307 l 568 -307 m 476 -142 q 439 -172 444 -154 l 593 -172 l 642 -228 l 642 -381 l 478 -381 q 400 -366 440 -381 q 328 -326 360 -351 q 275 -264 296 -300 q 254 -185 254 -228 q 303 -74 254 -122 l 264 -74 q 175 -56 218 -74 q 99 -8 132 -39 q 47 66 67 24 q 26 158 26 108 l 26 257 q 71 388 26 344 q 211 432 115 432 l 447 432 l 447 458 q 444 486 447 475 q 424 497 442 497 l 121 497 l 64 546 l 64 697 l 371 697 q 477 674 428 697 q 563 612 526 651 q 621 520 600 572 q 642 410 642 468 l 642 -67 l 476 -142 m 447 246 l 271 246 q 217 188 217 246 l 217 119 l 447 119 l 447 246 z "},"Ć":{"ha":699,"x_min":33,"x_max":633,"o":"m 514 1160 l 478 1211 l 178 1010 l 204 975 l 514 1160 m 560 0 l 560 106 l 274 106 q 160 224 160 106 l 160 701 q 271 814 160 814 l 557 814 l 557 919 l 271 919 q 58 701 58 919 l 58 224 q 278 0 58 0 l 560 0 m 233 156 q 244 132 233 135 q 274 129 254 129 l 585 129 l 633 74 l 633 -74 l 331 -74 q 217 -51 271 -74 q 122 10 163 -29 q 58 104 82 50 q 33 224 33 158 l 33 701 q 207 939 33 907 l 143 1017 l 483 1246 l 535 1188 l 597 1100 l 333 944 l 582 944 l 631 888 l 631 740 l 324 740 q 233 649 233 740 l 233 172 l 233 156 z "},"ć":{"ha":633,"x_min":33,"x_max":567,"o":"m 481 913 l 444 965 l 146 763 l 172 729 l 481 913 m 493 0 l 493 101 l 257 101 q 156 214 156 101 l 156 451 q 257 571 156 571 l 490 571 l 490 672 l 254 672 q 58 456 58 672 l 58 211 q 254 0 58 0 l 493 0 m 229 161 q 235 135 229 144 q 261 126 240 126 l 518 126 l 567 69 l 567 -74 l 307 -74 q 200 -51 250 -74 q 113 9 150 -29 q 55 99 76 47 q 33 211 33 151 l 33 456 q 178 689 33 653 l 110 769 l 451 999 l 503 942 l 564 854 l 301 697 l 515 697 l 564 642 l 564 497 l 310 497 q 229 399 229 497 l 229 161 z "},"Ĉ":{"ha":699,"x_min":26,"x_max":636,"o":"m 551 1007 l 338 1211 l 278 1211 l 63 1007 l 100 975 l 307 1140 l 515 975 l 551 1007 m 560 0 l 560 106 l 274 106 q 160 224 160 106 l 160 701 q 271 814 160 814 l 557 814 l 557 919 l 271 919 q 58 701 58 919 l 58 224 q 278 0 58 0 l 560 0 m 636 954 l 599 921 l 631 888 l 631 740 l 324 740 q 233 649 233 740 l 233 172 q 238 139 233 149 q 274 129 243 129 l 585 129 l 633 74 l 633 -74 l 331 -74 q 217 -51 271 -74 q 122 10 163 -29 q 58 104 82 50 q 33 224 33 158 l 33 701 q 129 913 33 860 l 26 1007 l 268 1236 l 347 1236 l 589 1007 l 636 954 m 204 939 q 271 944 228 944 l 507 944 l 360 1063 l 204 939 z "},"ĉ":{"ha":633,"x_min":-7,"x_max":603,"o":"m 519 761 l 304 965 l 246 965 l 31 761 l 67 729 l 274 894 l 482 729 l 519 761 m 493 0 l 493 101 l 257 101 q 156 214 156 101 l 156 451 q 257 571 156 571 l 490 571 l 490 672 l 254 672 q 58 456 58 672 l 58 211 q 254 0 58 0 l 493 0 m 603 708 l 547 658 l 564 642 l 564 497 l 310 497 q 229 399 229 497 l 229 161 q 233 135 229 144 q 257 126 236 126 l 518 126 l 567 69 l 567 -74 l 307 -74 q 200 -51 250 -74 q 113 9 150 -29 q 55 99 76 47 q 33 211 33 151 l 33 456 q 108 657 33 599 l -7 761 l 235 990 l 315 990 l 556 761 l 603 708 m 160 683 q 254 697 197 697 l 475 697 l 326 815 l 160 683 z "},"Ċ":{"ha":699,"x_min":33,"x_max":633,"o":"m 399 1015 l 399 1171 l 293 1171 l 293 1015 l 399 1015 m 560 0 l 560 106 l 274 106 q 160 224 160 106 l 160 701 q 271 814 160 814 l 557 814 l 557 919 l 271 919 q 58 701 58 919 l 58 224 q 278 0 58 0 l 560 0 m 233 172 q 238 139 233 149 q 274 129 243 129 l 585 129 l 633 74 l 633 -74 l 331 -74 q 217 -51 271 -74 q 122 10 163 -29 q 58 104 82 50 q 33 224 33 158 l 33 701 q 271 944 33 944 l 322 944 l 276 990 l 269 990 l 269 1196 l 424 1196 l 472 1139 l 472 944 l 582 944 l 631 888 l 631 740 l 324 740 q 233 649 233 740 l 233 172 z "},"ċ":{"ha":633,"x_min":33,"x_max":567,"o":"m 365 768 l 365 925 l 261 925 l 261 768 l 365 768 m 493 0 l 493 101 l 257 101 q 156 214 156 101 l 156 451 q 257 571 156 571 l 490 571 l 490 672 l 254 672 q 58 456 58 672 l 58 211 q 254 0 58 0 l 493 0 m 229 161 q 234 135 229 144 q 260 126 239 126 l 518 126 l 567 69 l 567 -74 l 307 -74 q 200 -51 250 -74 q 113 9 150 -29 q 55 99 76 47 q 33 211 33 151 l 33 456 q 254 697 33 697 l 290 697 l 236 743 l 236 950 l 390 950 l 439 893 l 439 697 l 515 697 l 564 642 l 564 497 l 310 497 q 229 399 229 497 l 229 161 z "},"Č":{"ha":699,"x_min":33,"x_max":663,"o":"m 578 1181 l 542 1211 l 333 1044 l 126 1211 l 89 1181 l 304 975 l 363 975 l 578 1181 m 560 0 l 560 106 l 274 106 q 160 224 160 106 l 160 701 q 271 814 160 814 l 557 814 l 557 919 l 271 919 q 58 701 58 919 l 58 224 q 278 0 58 0 l 560 0 m 663 1128 l 467 944 l 582 944 l 631 888 l 631 740 l 324 740 q 233 649 233 740 l 233 172 q 238 139 233 149 q 274 129 243 129 l 585 129 l 633 74 l 633 -74 l 331 -74 q 217 -51 271 -74 q 122 10 163 -29 q 58 104 82 50 q 33 224 33 158 l 33 701 q 271 944 33 944 l 303 944 l 53 1181 l 125 1244 l 333 1075 l 560 1244 l 615 1181 l 663 1128 z "},"č":{"ha":633,"x_min":19,"x_max":629,"o":"m 546 933 l 508 965 l 300 799 l 93 965 l 57 933 l 271 729 l 329 729 l 546 933 m 493 0 l 493 101 l 257 101 q 156 214 156 101 l 156 451 q 257 571 156 571 l 490 571 l 490 672 l 254 672 q 58 456 58 672 l 58 211 q 254 0 58 0 l 493 0 m 629 881 l 435 697 l 515 697 l 564 642 l 564 497 l 310 497 q 229 399 229 497 l 229 161 q 235 135 229 144 q 261 126 240 126 l 518 126 l 567 69 l 567 -74 l 307 -74 q 200 -51 250 -74 q 113 9 150 -29 q 55 99 76 47 q 33 211 33 151 l 33 456 q 254 697 33 697 l 269 697 l 19 933 l 92 997 l 300 829 l 515 997 l 582 933 l 629 881 z "},"Ď":{"ha":756,"x_min":39,"x_max":689,"o":"m 568 1181 l 531 1211 l 322 1044 l 115 1211 l 79 1181 l 293 975 l 351 975 l 568 1181 m 511 250 q 371 106 511 106 l 167 106 l 167 814 l 374 814 q 511 669 511 814 l 511 250 m 368 0 q 615 250 615 0 l 615 669 q 374 919 615 919 l 64 919 l 64 0 l 368 0 m 651 1128 l 451 938 q 551 896 507 926 q 626 822 596 865 q 673 725 657 778 q 689 617 689 672 l 689 199 q 421 -74 689 -74 l 96 -74 l 39 -25 l 39 944 l 293 944 l 42 1181 l 114 1244 l 322 1075 l 532 1244 l 604 1181 l 651 1128 m 486 669 q 475 733 486 703 q 451 739 464 738 q 426 740 439 740 l 240 740 l 240 129 l 371 129 q 486 250 486 129 l 486 669 z "},"ď":{"ha":815,"x_min":33,"x_max":808,"o":"m 686 600 l 732 919 l 625 919 l 613 600 l 686 600 m 471 101 l 258 101 q 156 214 156 101 l 156 458 q 258 571 156 571 l 471 571 l 471 101 m 571 0 l 571 919 l 471 919 l 471 672 l 254 672 q 58 461 58 672 l 58 211 q 254 0 58 0 l 571 0 m 307 -74 q 200 -51 250 -74 q 113 9 150 -29 q 55 99 76 47 q 33 211 33 151 l 33 461 q 254 697 33 697 l 446 697 l 446 944 l 760 944 l 808 888 l 757 528 l 644 528 l 644 -74 l 307 -74 m 446 497 l 311 497 q 229 406 229 497 l 229 161 q 233 135 229 143 q 258 126 236 126 l 446 126 l 446 497 z "},"Đ":{"ha":753,"x_min":-11,"x_max":686,"o":"m 508 250 q 368 106 508 106 l 164 106 l 164 414 l 317 414 l 317 500 l 164 500 l 164 814 l 371 814 q 508 669 508 814 l 508 250 m 365 0 q 613 250 613 0 l 613 669 q 371 919 613 919 l 61 919 l 61 500 l 13 500 l 13 414 l 61 414 l 61 0 l 365 0 m 36 -25 l 36 349 l -11 389 l -11 525 l 36 525 l 36 944 l 371 944 q 499 919 442 944 q 597 851 556 894 q 660 747 638 807 q 686 617 683 688 l 686 199 q 418 -74 686 -74 l 93 -74 l 36 -25 m 483 669 q 481 703 483 688 q 472 733 479 719 q 449 739 461 738 q 424 740 436 740 l 238 740 l 238 525 l 340 525 l 389 468 l 389 340 l 238 340 l 238 129 l 368 129 q 483 250 483 129 l 483 669 z "},"đ":{"ha":718,"x_min":33,"x_max":708,"o":"m 471 101 l 258 101 q 156 214 156 101 l 156 458 q 258 571 156 571 l 471 571 l 471 101 m 571 0 l 571 758 l 635 758 l 635 836 l 571 836 l 571 919 l 471 919 l 471 836 l 243 836 l 243 758 l 471 758 l 471 672 l 254 672 q 58 461 58 672 l 58 211 q 254 0 58 0 l 571 0 m 644 861 l 660 861 l 708 806 l 708 685 l 644 685 l 644 -74 l 307 -74 q 200 -51 250 -74 q 113 9 150 -29 q 55 99 76 47 q 33 211 33 151 l 33 461 q 254 697 33 697 l 261 697 l 218 733 l 218 861 l 446 861 l 446 944 l 596 944 l 644 888 l 644 861 m 446 497 l 311 497 q 229 406 229 497 l 229 161 q 233 135 229 143 q 258 126 236 126 l 446 126 l 446 497 z "},"Ē":{"ha":710,"x_min":39,"x_max":649,"o":"m 542 1057 l 542 1136 l 110 1136 l 110 1057 l 542 1057 m 575 0 l 575 106 l 167 106 l 167 418 l 411 418 l 411 515 l 167 515 l 167 814 l 575 814 l 575 919 l 64 919 l 64 0 l 575 0 m 240 129 l 600 129 l 649 74 l 649 -74 l 96 -74 l 39 -25 l 39 944 l 600 944 l 649 888 l 649 740 l 240 740 l 240 540 l 435 540 l 483 483 l 483 344 l 240 344 l 240 129 m 85 1032 l 85 1161 l 567 1161 l 615 1104 l 615 983 l 142 983 l 85 1032 z "},"ē":{"ha":713,"x_min":33,"x_max":646,"o":"m 543 810 l 543 889 l 111 889 l 111 810 l 543 810 m 478 382 l 153 382 l 153 464 q 254 576 153 576 l 375 576 q 478 464 478 576 l 478 382 m 553 0 l 553 101 l 254 101 q 153 214 153 101 l 153 294 l 572 294 l 572 461 q 374 672 572 672 l 254 672 q 58 461 58 672 l 58 211 q 254 0 58 0 l 553 0 m 226 161 q 230 135 226 144 q 254 126 233 126 l 578 126 l 626 69 l 626 -74 l 307 -74 q 200 -51 250 -74 q 113 9 150 -29 q 55 99 76 47 q 33 211 33 151 l 33 461 q 254 697 33 697 l 374 697 q 481 674 431 697 q 567 613 531 651 q 625 521 604 574 q 646 410 646 468 l 646 222 l 226 222 l 226 161 m 86 786 l 86 914 l 568 914 l 617 857 l 617 738 l 143 738 l 86 786 m 453 464 q 449 492 453 481 q 424 504 444 504 l 307 504 q 226 411 226 504 l 226 407 l 453 407 l 453 464 z "},"Ĕ":{"ha":710,"x_min":39,"x_max":649,"o":"m 522 1189 q 450 1081 500 1122 q 325 1040 400 1040 q 201 1083 254 1040 q 131 1189 147 1125 l 82 1160 q 106 1095 86 1128 q 158 1035 126 1063 q 233 992 190 1008 q 326 975 276 975 q 419 992 378 975 q 492 1035 461 1008 q 542 1095 522 1063 q 571 1160 563 1128 l 522 1189 m 575 0 l 575 106 l 167 106 l 167 418 l 411 418 l 411 515 l 167 515 l 167 814 l 575 814 l 575 919 l 64 919 l 64 0 l 575 0 m 593 1175 l 647 1117 q 603 1023 635 1069 q 524 944 572 976 l 600 944 l 649 888 l 649 740 l 240 740 l 240 540 l 435 540 l 483 483 l 483 344 l 240 344 l 240 129 l 600 129 l 649 74 l 649 -74 l 96 -74 l 39 -25 l 39 944 l 233 944 q 169 994 201 965 q 113 1055 138 1024 q 72 1117 88 1086 q 57 1172 57 1147 l 149 1229 l 199 1169 q 239 1093 206 1121 q 325 1065 272 1065 q 438 1110 392 1065 q 507 1228 483 1156 l 593 1175 z "},"ĕ":{"ha":713,"x_min":33,"x_max":649,"o":"m 524 943 q 451 835 501 876 q 326 793 401 793 q 201 835 256 793 q 132 943 147 876 l 83 913 q 108 849 88 881 q 160 790 128 817 q 235 746 192 763 q 328 729 278 729 q 421 746 379 729 q 493 790 463 763 q 544 849 524 817 q 572 913 564 881 l 524 943 m 478 382 l 153 382 l 153 464 q 254 576 153 576 l 375 576 q 478 464 478 576 l 478 382 m 553 0 l 553 101 l 254 101 q 153 214 153 101 l 153 294 l 572 294 l 572 461 q 374 672 572 672 l 254 672 q 58 461 58 672 l 58 211 q 254 0 58 0 l 553 0 m 601 926 l 649 871 q 593 760 633 815 q 486 676 553 706 q 552 631 522 660 q 603 567 582 603 q 635 492 624 532 q 646 410 646 451 l 646 222 l 226 222 l 226 161 q 231 135 226 144 q 257 126 236 126 l 578 126 l 626 69 l 626 -74 l 307 -74 q 200 -51 250 -74 q 113 9 150 -29 q 55 99 76 47 q 33 211 33 151 l 33 461 q 235 696 33 688 q 172 748 203 718 q 115 809 140 778 q 74 871 90 840 q 58 926 58 901 l 150 982 l 200 924 q 240 847 207 875 q 326 818 274 818 q 438 863 390 818 q 508 981 485 908 l 601 926 m 453 464 q 449 492 453 481 q 424 504 444 504 l 307 504 q 226 411 226 504 l 226 407 l 453 407 l 453 464 z "},"Ė":{"ha":710,"x_min":39,"x_max":649,"o":"m 386 1015 l 386 1171 l 281 1171 l 281 1015 l 386 1015 m 575 0 l 575 106 l 167 106 l 167 418 l 411 418 l 411 515 l 167 515 l 167 814 l 575 814 l 575 919 l 64 919 l 64 0 l 575 0 m 240 129 l 600 129 l 649 74 l 649 -74 l 96 -74 l 39 -25 l 39 944 l 310 944 l 264 990 l 256 990 l 256 1196 l 411 1196 l 458 1139 l 458 944 l 600 944 l 649 888 l 649 740 l 240 740 l 240 540 l 435 540 l 483 483 l 483 344 l 240 344 l 240 129 z "},"ė":{"ha":713,"x_min":33,"x_max":646,"o":"m 381 768 l 381 925 l 275 925 l 275 768 l 381 768 m 478 382 l 153 382 l 153 464 q 254 576 153 576 l 375 576 q 478 464 478 576 l 478 382 m 553 0 l 553 101 l 254 101 q 153 214 153 101 l 153 294 l 572 294 l 572 461 q 374 672 572 672 l 254 672 q 58 461 58 672 l 58 211 q 254 0 58 0 l 553 0 m 226 161 q 230 135 226 144 q 254 126 233 126 l 578 126 l 626 69 l 626 -74 l 307 -74 q 200 -51 250 -74 q 113 9 150 -29 q 55 99 76 47 q 33 211 33 151 l 33 461 q 254 697 33 697 l 304 697 l 250 743 l 250 950 l 406 950 l 454 893 l 454 694 l 415 694 q 508 663 465 689 q 581 597 550 636 q 628 510 611 558 q 646 410 646 461 l 646 222 l 226 222 l 226 161 m 453 464 q 449 492 453 481 q 424 504 444 504 l 307 504 q 226 411 226 504 l 226 407 l 453 407 l 453 464 z "},"Ę":{"ha":710,"x_min":39,"x_max":649,"o":"m 575 -307 l 575 -197 l 451 -197 q 390 -180 410 -197 q 371 -136 371 -162 q 424 -69 371 -94 l 575 0 l 575 106 l 167 106 l 167 418 l 411 418 l 411 515 l 167 515 l 167 814 l 575 814 l 575 919 l 64 919 l 64 0 l 514 0 l 397 -50 q 313 -108 339 -75 q 288 -185 288 -142 q 324 -275 288 -243 q 433 -307 361 -307 l 575 -307 m 483 -142 q 447 -172 453 -154 l 600 -172 l 649 -228 l 649 -381 l 485 -381 q 408 -366 447 -381 q 336 -326 368 -351 q 283 -264 304 -300 q 263 -185 263 -228 q 274 -125 263 -153 q 311 -74 285 -97 l 96 -74 l 39 -25 l 39 944 l 600 944 l 649 888 l 649 740 l 240 740 l 240 540 l 435 540 l 483 483 l 483 344 l 240 344 l 240 129 l 600 129 l 649 74 l 649 -67 l 483 -142 z "},"ę":{"ha":713,"x_min":33,"x_max":646,"o":"m 478 382 l 153 382 l 153 464 q 254 576 153 576 l 375 576 q 478 464 478 576 l 478 382 m 553 -307 l 553 -197 l 429 -197 q 368 -180 388 -197 q 349 -136 349 -162 q 401 -69 349 -94 l 553 0 l 553 101 l 254 101 q 153 214 153 101 l 153 294 l 572 294 l 572 461 q 374 672 572 672 l 254 672 q 58 461 58 672 l 58 211 q 254 0 58 0 l 492 0 l 375 -50 q 291 -108 317 -75 q 265 -185 265 -142 q 302 -275 265 -243 q 411 -307 339 -307 l 553 -307 m 461 -142 q 425 -172 431 -154 l 578 -172 l 626 -228 l 626 -381 l 463 -381 q 385 -366 425 -381 q 314 -326 346 -351 q 261 -264 282 -300 q 240 -185 240 -228 q 251 -125 240 -153 q 289 -74 263 -97 q 188 -48 235 -72 q 107 15 142 -24 q 53 105 72 54 q 33 211 33 156 l 33 461 q 254 697 33 697 l 374 697 q 481 674 431 697 q 567 613 531 651 q 625 521 604 574 q 646 410 646 468 l 646 222 l 226 222 l 226 161 q 230 135 226 144 q 254 126 233 126 l 578 126 l 626 69 l 626 -67 l 461 -142 m 453 464 q 449 492 453 481 q 424 504 444 504 l 307 504 q 226 411 226 504 l 226 407 l 453 407 l 453 464 z "},"Ě":{"ha":710,"x_min":39,"x_max":654,"o":"m 571 1181 l 533 1211 l 325 1044 l 118 1211 l 82 1181 l 296 975 l 354 975 l 571 1181 m 575 0 l 575 106 l 167 106 l 167 418 l 411 418 l 411 515 l 167 515 l 167 814 l 575 814 l 575 919 l 64 919 l 64 0 l 575 0 m 654 1128 l 458 944 l 600 944 l 649 888 l 649 740 l 240 740 l 240 540 l 435 540 l 483 483 l 483 344 l 240 344 l 240 129 l 600 129 l 649 74 l 649 -74 l 96 -74 l 39 -25 l 39 944 l 294 944 l 44 1181 l 117 1244 l 325 1075 l 535 1244 l 607 1181 l 654 1128 z "},"ě":{"ha":713,"x_min":33,"x_max":656,"o":"m 572 933 l 535 965 l 326 799 l 119 965 l 82 933 l 297 729 l 356 729 l 572 933 m 478 382 l 153 382 l 153 464 q 254 576 153 576 l 375 576 q 478 464 478 576 l 478 382 m 553 0 l 553 101 l 254 101 q 153 214 153 101 l 153 294 l 572 294 l 572 461 q 374 672 572 672 l 254 672 q 58 461 58 672 l 58 211 q 254 0 58 0 l 553 0 m 656 881 l 451 689 q 531 649 494 678 q 592 583 567 621 q 632 499 618 544 q 646 410 646 454 l 646 222 l 226 222 l 226 161 q 230 135 226 144 q 254 126 233 126 l 578 126 l 626 69 l 626 -74 l 307 -74 q 200 -51 250 -74 q 113 9 150 -29 q 55 99 76 47 q 33 211 33 151 l 33 461 q 254 697 33 697 l 296 697 l 46 933 l 118 997 l 326 829 l 553 997 l 608 933 l 656 881 m 453 464 q 448 492 453 481 q 422 504 443 504 l 307 504 q 226 411 226 504 l 226 407 l 453 407 l 453 464 z "},"Ĝ":{"ha":746,"x_min":33,"x_max":676,"o":"m 563 1007 l 347 1211 l 289 1211 l 74 1007 l 110 975 l 317 1140 l 526 975 l 563 1007 m 603 0 l 603 518 l 317 518 l 317 422 l 507 422 l 507 106 l 274 106 q 160 224 160 106 l 160 694 q 271 814 160 814 l 585 814 l 585 919 l 271 919 q 58 694 58 919 l 58 224 q 278 0 58 0 l 603 0 m 646 954 l 617 928 l 658 888 l 658 740 l 324 740 q 233 643 233 740 l 233 172 q 238 139 233 149 q 274 129 243 129 l 482 129 l 482 349 l 349 349 l 293 397 l 293 543 l 628 543 l 676 486 l 676 -74 l 331 -74 q 217 -51 271 -74 q 122 10 163 -29 q 58 104 82 50 q 33 224 33 158 l 33 694 q 136 915 33 863 l 36 1007 l 278 1236 l 358 1236 l 599 1007 l 646 954 m 218 940 q 271 944 243 944 l 518 944 l 369 1063 l 218 940 z "},"ĝ":{"ha":719,"x_min":33,"x_max":660,"o":"m 575 761 l 361 965 l 301 965 l 86 761 l 124 729 l 331 894 l 539 729 l 575 761 m 474 151 l 258 151 q 156 261 156 151 l 156 458 q 258 571 156 571 l 474 571 l 474 151 m 386 -208 q 574 8 574 -208 l 574 672 l 254 672 q 58 461 58 672 l 58 265 q 254 58 58 58 l 474 58 l 474 4 q 376 -115 474 -115 l 169 -115 l 169 -208 l 386 -208 m 660 708 l 617 669 l 646 642 l 646 -44 q 438 -282 646 -282 l 200 -282 l 144 -233 l 144 -90 l 376 -90 q 447 -14 442 -90 l 307 -14 q 201 7 250 -14 q 114 65 151 28 q 55 153 76 103 q 33 265 33 204 l 33 461 q 142 676 33 628 l 50 761 l 292 990 l 371 990 l 613 761 l 660 708 m 449 497 l 311 497 q 229 406 229 497 l 229 208 q 233 184 229 192 q 258 176 238 176 l 449 176 l 449 497 m 233 696 q 254 697 238 697 l 531 697 l 383 815 l 233 696 z "},"Ğ":{"ha":746,"x_min":33,"x_max":676,"o":"m 526 1189 q 454 1081 504 1122 q 329 1040 404 1040 q 204 1083 258 1040 q 135 1189 150 1125 l 86 1160 q 110 1095 90 1128 q 163 1035 131 1063 q 238 992 194 1008 q 331 975 281 975 q 424 992 382 975 q 496 1035 465 1008 q 547 1095 526 1063 q 575 1160 567 1128 l 526 1189 m 603 0 l 603 518 l 317 518 l 317 422 l 507 422 l 507 106 l 274 106 q 160 224 160 106 l 160 694 q 271 814 160 814 l 585 814 l 585 919 l 271 919 q 58 694 58 919 l 58 224 q 278 0 58 0 l 603 0 m 610 1172 l 651 1117 q 608 1023 639 1069 q 528 944 576 976 l 610 944 l 658 888 l 658 740 l 324 740 q 233 643 233 740 l 233 172 l 233 156 q 244 132 233 135 q 274 129 254 129 l 482 129 l 482 349 l 349 349 l 293 397 l 293 543 l 628 543 l 676 486 l 676 -74 l 331 -74 q 217 -51 271 -74 q 122 10 163 -29 q 58 104 82 50 q 33 224 33 158 l 33 694 q 239 943 33 925 q 175 993 207 964 q 117 1054 143 1022 q 76 1117 92 1086 q 60 1172 60 1147 l 153 1229 l 201 1169 q 243 1092 213 1119 q 329 1065 274 1065 q 440 1110 393 1065 q 511 1228 488 1156 l 610 1172 z "},"ğ":{"ha":719,"x_min":33,"x_max":651,"o":"m 526 943 q 454 835 504 876 q 329 793 404 793 q 204 835 258 793 q 135 943 150 876 l 86 913 q 110 849 90 881 q 163 790 131 817 q 238 746 194 763 q 331 729 281 729 q 424 746 382 729 q 496 790 465 763 q 547 849 526 817 q 575 913 567 881 l 526 943 m 474 151 l 258 151 q 156 261 156 151 l 156 458 q 258 571 156 571 l 474 571 l 474 151 m 386 -208 q 574 8 574 -208 l 574 672 l 254 672 q 58 461 58 672 l 58 265 q 254 58 58 58 l 474 58 l 474 4 q 376 -115 474 -115 l 169 -115 l 169 -208 l 386 -208 m 604 926 l 651 871 q 608 776 639 824 q 528 697 576 729 l 599 697 l 646 642 l 646 -44 q 438 -282 646 -282 l 200 -282 l 144 -233 l 144 -90 l 376 -90 q 447 -14 442 -90 l 307 -14 q 201 7 250 -14 q 114 65 151 28 q 55 153 76 103 q 33 265 33 204 l 33 461 q 238 696 33 689 q 174 748 206 718 q 117 809 143 778 q 76 871 92 840 q 60 926 60 901 l 153 982 l 201 924 q 244 847 213 875 q 329 818 276 818 q 440 863 393 818 q 511 981 488 908 l 604 926 m 449 497 l 311 497 q 229 406 229 497 l 229 208 q 233 184 229 192 q 258 176 238 176 l 449 176 l 449 497 z "},"Ġ":{"ha":746,"x_min":33,"x_max":676,"o":"m 410 1015 l 410 1171 l 304 1171 l 304 1015 l 410 1015 m 603 0 l 603 518 l 317 518 l 317 422 l 507 422 l 507 106 l 274 106 q 160 224 160 106 l 160 694 q 271 814 160 814 l 585 814 l 585 919 l 271 919 q 58 694 58 919 l 58 224 q 278 0 58 0 l 603 0 m 293 397 l 293 543 l 628 543 l 676 486 l 676 -74 l 331 -74 q 217 -51 271 -74 q 122 10 163 -29 q 58 104 82 50 q 33 224 33 158 l 33 694 q 271 944 33 944 l 333 944 l 279 990 l 279 1196 l 435 1196 l 482 1139 l 482 944 l 610 944 l 658 888 l 658 740 l 324 740 q 233 643 233 740 l 233 172 l 233 156 q 244 132 233 135 q 274 129 254 129 l 482 129 l 482 349 l 349 349 l 293 397 z "},"ġ":{"ha":719,"x_min":33,"x_max":646,"o":"m 389 768 l 389 925 l 285 925 l 285 768 l 389 768 m 474 151 l 258 151 q 156 261 156 151 l 156 458 q 258 571 156 571 l 474 571 l 474 151 m 386 -208 q 574 8 574 -208 l 574 672 l 254 672 q 58 461 58 672 l 58 265 q 254 58 58 58 l 474 58 l 474 4 q 376 -115 474 -115 l 169 -115 l 169 -208 l 386 -208 m 307 -14 q 201 7 250 -14 q 114 65 151 28 q 55 153 76 103 q 33 265 33 204 l 33 461 q 254 697 33 697 l 314 697 l 260 743 l 260 950 l 414 950 l 463 893 l 463 697 l 599 697 l 646 642 l 646 -44 q 438 -282 646 -282 l 200 -282 l 144 -233 l 144 -90 l 376 -90 q 447 -14 442 -90 l 307 -14 m 449 497 l 311 497 q 229 406 229 497 l 229 208 q 233 184 229 192 q 258 176 238 176 l 449 176 l 449 497 z "},"Ģ":{"ha":746,"x_min":33,"x_max":676,"o":"m 363 -307 l 408 -53 l 292 -53 l 279 -307 l 363 -307 m 603 0 l 603 518 l 317 518 l 317 422 l 507 422 l 507 106 l 274 106 q 160 224 160 106 l 160 694 q 271 814 160 814 l 585 814 l 585 919 l 271 919 q 58 694 58 919 l 58 224 q 278 0 58 0 l 603 0 m 293 397 l 293 543 l 628 543 l 676 486 l 676 -74 l 475 -74 l 485 -83 l 433 -381 l 310 -381 l 253 -332 l 265 -67 q 168 -27 211 -54 q 95 38 125 0 q 49 124 65 76 q 33 224 33 171 l 33 694 q 271 944 33 944 l 610 944 l 658 888 l 658 740 l 324 740 q 233 643 233 740 l 233 172 l 233 156 q 244 132 233 135 q 274 129 254 129 l 482 129 l 482 349 l 349 349 l 293 397 z "},"ģ":{"ha":719,"x_min":33,"x_max":646,"o":"m 325 981 l 279 726 l 396 726 l 408 981 l 325 981 m 474 151 l 258 151 q 156 261 156 151 l 156 458 q 258 571 156 571 l 474 571 l 474 151 m 386 -208 q 574 8 574 -208 l 574 672 l 254 672 q 58 461 58 672 l 58 265 q 254 58 58 58 l 474 58 l 474 4 q 376 -115 474 -115 l 169 -115 l 169 -208 l 386 -208 m 435 1006 l 482 950 l 469 697 l 599 697 l 646 642 l 646 -44 q 438 -282 646 -282 l 200 -282 l 144 -233 l 144 -90 l 376 -90 q 447 -14 442 -90 l 307 -14 q 201 7 250 -14 q 114 65 151 28 q 55 153 76 103 q 33 265 33 204 l 33 461 q 254 697 33 697 l 249 701 l 303 1006 l 435 1006 m 449 497 l 311 497 q 229 406 229 497 l 229 208 q 233 184 229 192 q 258 176 238 176 l 449 176 l 449 497 z "},"Ĥ":{"ha":757,"x_min":39,"x_max":683,"o":"m 581 1007 l 365 1211 l 307 1211 l 92 1007 l 129 975 l 336 1140 l 544 975 l 581 1007 m 610 0 l 610 919 l 506 919 l 506 513 l 167 513 l 167 919 l 64 919 l 64 0 l 167 0 l 167 413 l 506 413 l 506 0 l 610 0 m 665 954 l 639 931 l 683 888 l 683 -74 l 538 -74 l 481 -25 l 481 340 l 240 340 l 240 -74 l 96 -74 l 39 -25 l 39 944 l 124 944 l 56 1007 l 296 1236 l 376 1236 l 618 1007 l 665 954 m 481 944 l 536 944 l 388 1063 l 208 919 l 240 888 l 240 538 l 481 538 l 481 944 z "},"ĥ":{"ha":739,"x_min":28,"x_max":669,"o":"m 553 1007 l 339 1211 l 279 1211 l 64 1007 l 101 975 l 308 1140 l 517 975 l 553 1007 m 596 0 l 596 467 q 443 672 596 672 l 301 672 q 213 654 243 672 q 163 590 182 636 l 163 919 l 64 919 l 64 0 l 163 0 l 163 458 q 183 544 163 517 q 254 571 203 571 l 418 571 q 497 460 497 571 l 497 0 l 596 0 m 638 954 l 571 896 l 361 1063 l 194 928 l 236 888 l 236 692 q 301 697 257 697 l 443 697 q 528 674 488 697 q 601 611 569 650 q 651 521 632 572 q 669 414 669 469 l 669 -74 l 528 -74 l 472 -25 l 472 460 q 468 497 472 481 l 307 497 q 251 475 267 497 q 236 407 236 453 l 236 -74 l 96 -74 l 39 -25 l 39 944 l 96 944 l 28 1007 l 269 1236 l 349 1236 l 590 1007 l 638 954 z "},"Ħ":{"ha":757,"x_min":39,"x_max":683,"o":"m 167 513 l 167 674 l 506 674 l 506 513 l 167 513 m 610 0 l 610 919 l 506 919 l 506 753 l 167 753 l 167 919 l 64 919 l 64 0 l 167 0 l 167 413 l 506 413 l 506 0 l 610 0 m 240 778 l 481 778 l 481 944 l 635 944 l 683 888 l 683 -74 l 538 -74 l 481 -25 l 481 340 l 240 340 l 240 -74 l 96 -74 l 39 -25 l 39 944 l 192 944 l 240 888 l 240 778 m 240 538 l 481 538 l 481 600 l 240 600 l 240 538 z "},"ħ":{"ha":739,"x_min":-25,"x_max":669,"o":"m 340 744 l 340 824 l 163 824 l 163 919 l 64 919 l 64 824 l 0 824 l 0 744 l 64 744 l 64 0 l 163 0 l 163 458 q 183 544 163 517 q 254 571 203 571 l 418 571 q 497 460 497 571 l 497 0 l 596 0 l 596 467 q 443 672 596 672 l 301 672 q 213 654 243 672 q 163 590 182 636 l 163 744 l 340 744 m 236 849 l 364 849 l 413 792 l 413 697 l 443 697 q 528 674 488 697 q 601 611 569 650 q 651 521 632 572 q 669 414 669 469 l 669 -74 l 528 -74 l 472 -25 l 472 460 q 468 497 472 481 l 307 497 q 251 475 267 497 q 236 407 236 453 l 236 -74 l 96 -74 l 39 -25 l 39 671 l 32 671 l -25 719 l -25 849 l 39 849 l 39 944 l 188 944 l 236 888 l 236 849 z "},"Ĩ":{"ha":328,"x_min":-153,"x_max":446,"o":"m 313 1161 q 228 1093 294 1093 q 176 1103 199 1093 q 129 1125 153 1113 q 78 1147 106 1138 q 15 1157 51 1157 q -78 1125 -43 1157 q -124 1049 -112 1093 l -69 1021 q 17 1089 -51 1089 q 71 1078 47 1089 q 117 1056 94 1068 q 167 1034 140 1044 q 229 1024 193 1024 q 322 1057 288 1024 q 368 1135 357 1090 l 313 1161 m 174 0 l 174 919 l 71 919 l 71 0 l 174 0 m 46 -25 l 46 944 l 199 944 l 246 888 l 246 -74 l 103 -74 l 46 -25 m 393 1147 l 446 1092 q 425 1038 439 1064 q 390 993 411 1013 q 342 962 369 974 q 282 950 315 950 q 217 960 244 950 q 166 983 189 971 q 121 1005 143 994 q 69 1015 99 1015 q 26 997 44 1015 q -4 939 7 979 l -96 986 l -153 1036 q -96 1139 -137 1096 q 15 1182 -54 1182 q 73 1172 46 1182 q 125 1150 100 1163 q 175 1128 150 1138 q 228 1118 200 1118 q 296 1197 276 1118 l 393 1147 z "},"ĩ":{"ha":325,"x_min":-154,"x_max":444,"o":"m 311 915 q 226 847 293 847 q 174 857 197 847 q 128 878 151 867 q 77 900 104 890 q 14 910 50 910 q -79 878 -44 910 q -125 803 -114 846 l -71 775 q -39 826 -61 811 q 15 842 -17 842 q 69 832 46 842 q 116 810 93 822 q 165 788 139 797 q 228 778 192 778 q 321 811 286 778 q 367 888 356 844 l 311 915 m 171 0 l 171 672 l 71 672 l 71 0 l 171 0 m 46 -25 l 46 697 l 196 697 l 244 642 l 244 -74 l 103 -74 l 46 -25 m 397 901 l 444 846 q 424 792 438 818 q 389 747 410 767 q 341 716 368 728 q 281 704 314 704 q 215 714 243 704 q 165 736 188 724 q 119 758 142 749 q 68 768 97 768 q 24 751 43 768 q -6 693 6 733 l -97 739 l -154 789 q -97 892 -139 849 q 14 935 -56 935 q 85 924 56 935 q 143 899 115 913 l 142 899 q 183 880 161 888 q 226 872 204 872 q 294 950 275 872 l 397 901 z "},"Ī":{"ha":328,"x_min":-118,"x_max":411,"o":"m 339 1057 l 339 1136 l -93 1136 l -93 1057 l 339 1057 m 174 0 l 174 919 l 71 919 l 71 0 l 174 0 m 46 -25 l 46 944 l 199 944 l 246 888 l 246 -74 l 103 -74 l 46 -25 m -118 1032 l -118 1161 l 364 1161 l 411 1104 l 411 983 l -61 983 l -118 1032 z "},"ī":{"ha":325,"x_min":-119,"x_max":411,"o":"m 338 810 l 338 889 l -94 889 l -94 810 l 338 810 m 171 0 l 171 672 l 71 672 l 71 0 l 171 0 m 46 -25 l 46 697 l 196 697 l 244 642 l 244 -74 l 103 -74 l 46 -25 m -119 786 l -119 914 l 363 914 l 411 857 l 411 738 l -62 738 l -119 786 z "},"Ĭ":{"ha":328,"x_min":-149,"x_max":443,"o":"m 317 1189 q 246 1081 296 1122 q 121 1040 196 1040 q -4 1083 50 1040 q -74 1189 -58 1125 l -122 1160 q -98 1095 -118 1128 q -46 1035 -78 1063 q 29 992 -14 1008 q 122 975 72 975 q 215 992 174 975 q 288 1035 257 1008 q 338 1095 318 1063 q 365 1160 357 1128 l 317 1189 m 174 0 l 174 919 l 71 919 l 71 0 l 174 0 m 396 1172 l 443 1117 q 417 1051 435 1085 q 372 988 399 1017 q 308 937 344 958 q 226 907 272 915 l 246 888 l 246 -74 l 103 -74 l 46 -25 l 46 933 q -16 976 15 950 q -74 1033 -47 1001 q -122 1101 -101 1065 q -149 1172 -142 1136 l -57 1229 l -7 1169 q 35 1093 4 1121 q 121 1065 67 1065 q 232 1110 185 1065 q 303 1228 279 1156 l 396 1172 z "},"ĭ":{"ha":325,"x_min":-150,"x_max":442,"o":"m 317 943 q 244 835 294 876 q 119 793 194 793 q -6 835 49 793 q -75 943 -60 876 l -124 913 q -99 849 -119 881 q -47 790 -79 817 q 28 746 -15 763 q 121 729 71 729 q 214 746 172 729 q 286 790 256 763 q 336 849 317 817 q 364 913 356 881 l 317 943 m 171 0 l 171 672 l 71 672 l 71 0 l 171 0 m 394 926 l 442 871 q 415 805 433 839 q 369 742 397 771 q 306 690 342 713 q 224 660 269 668 l 244 642 l 244 -74 l 103 -74 l 54 -25 l 46 -25 l 46 686 q -17 728 15 703 q -76 786 -49 754 q -123 854 -103 818 q -150 926 -143 890 l -58 982 l -8 924 q 33 847 6 875 q 119 818 61 818 q 231 863 183 818 q 301 981 278 908 l 394 926 z "},"Į":{"ha":328,"x_min":-140,"x_max":246,"o":"m 174 -307 l 174 -197 l 49 -197 q -12 -180 7 -197 q -32 -136 -32 -162 q 21 -69 -32 -93 l 174 0 l 174 919 l 71 919 l 71 0 l 111 0 l -6 -50 q -90 -108 -64 -75 q -115 -185 -115 -142 q -78 -275 -115 -243 q 31 -307 -42 -307 l 174 -307 m 82 -142 q 44 -172 50 -154 l 199 -172 l 246 -228 l 246 -381 l 82 -381 q 5 -366 44 -381 q -67 -326 -35 -351 q -119 -264 -99 -300 q -140 -185 -140 -228 q -110 -94 -140 -133 q -14 -26 -81 -56 l 46 0 l 46 944 l 199 944 l 246 888 l 246 -67 l 82 -142 z "},"į":{"ha":325,"x_min":-143,"x_max":244,"o":"m 171 -307 l 171 -197 l 46 -197 q -15 -180 4 -197 q -35 -136 -35 -162 q 18 -69 -35 -93 l 171 0 l 171 672 l 71 672 l 71 0 l 108 0 l -8 -50 q -92 -109 -67 -75 q -118 -185 -118 -143 q -81 -275 -118 -243 q 28 -307 -44 -307 l 171 -307 m 79 -142 q 42 -172 47 -154 l 196 -172 l 244 -228 l 244 -381 l 81 -381 q 3 -366 43 -381 q -69 -326 -36 -351 q -122 -264 -101 -300 q -143 -185 -143 -228 q -113 -95 -143 -136 q -17 -26 -83 -54 l 46 0 l 46 697 l 196 697 l 244 642 l 244 -67 l 79 -142 z "},"İ":{"ha":328,"x_min":44,"x_max":247,"o":"m 175 1015 l 175 1171 l 69 1171 l 69 1015 l 175 1015 m 174 0 l 174 919 l 71 919 l 71 0 l 174 0 m 46 -25 l 46 944 l 99 944 l 44 990 l 44 1196 l 200 1196 l 247 1139 l 247 942 l 199 942 l 246 888 l 246 -74 l 103 -74 l 46 -25 z "},"ı":{"ha":325,"x_min":46,"x_max":244,"o":"m 171 0 l 171 672 l 71 672 l 71 0 l 171 0 m 46 -25 l 46 697 l 196 697 l 244 642 l 244 -74 l 103 -74 l 46 -25 z "},"Ĳ":{"ha":908,"x_min":46,"x_max":838,"o":"m 544 0 q 764 224 764 0 l 764 919 l 451 919 l 451 814 l 663 814 l 663 224 q 549 106 663 106 l 279 106 l 279 0 l 544 0 m 174 0 l 174 919 l 71 919 l 71 0 l 174 0 m 426 789 l 426 944 l 789 944 l 838 888 l 838 172 q 597 -74 838 -74 l 311 -74 l 254 -25 l 254 129 l 549 129 q 638 224 638 129 l 638 740 l 482 740 l 426 789 m 46 -25 l 46 944 l 199 944 l 246 888 l 246 -74 l 103 -74 l 46 -25 z "},"ĳ":{"ha":606,"x_min":46,"x_max":531,"o":"m 458 763 l 458 919 l 358 919 l 358 763 l 458 763 m 269 -208 q 458 8 458 -208 l 458 672 l 358 672 l 358 4 q 260 -115 358 -115 l 189 -115 l 189 -208 l 269 -208 m 171 0 l 171 672 l 71 672 l 71 0 l 171 0 m 171 763 l 171 919 l 71 919 l 71 763 l 171 763 m 164 -233 l 164 -90 l 260 -90 q 333 4 333 -90 l 333 944 l 482 944 l 531 888 l 531 -44 q 322 -282 531 -282 l 221 -282 l 164 -233 m 46 -25 l 46 944 l 196 944 l 244 888 l 244 -74 l 103 -74 l 46 -25 z "},"Ĵ":{"ha":664,"x_min":10,"x_max":619,"o":"m 535 1007 l 319 1211 l 261 1211 l 46 1007 l 82 975 l 290 1140 l 499 975 l 535 1007 m 300 0 q 521 224 521 0 l 521 919 l 207 919 l 207 814 l 418 814 l 418 224 q 304 106 418 106 l 35 106 l 35 0 l 300 0 m 619 954 l 571 911 l 594 888 l 594 172 q 353 -74 594 -74 l 67 -74 l 11 -25 l 11 129 l 304 129 q 393 224 393 129 l 393 740 l 239 740 l 182 789 l 182 933 l 133 896 l 10 1007 l 250 1236 l 331 1236 l 572 1007 l 619 954 m 194 944 l 490 944 l 342 1063 l 194 944 z "},"ĵ":{"ha":364,"x_min":-167,"x_max":443,"o":"m 360 761 l 144 965 l 85 965 l -129 761 l -93 729 l 114 894 l 322 729 l 360 761 m 29 -208 q 217 8 217 -208 l 217 672 l 117 672 l 117 4 q 18 -115 117 -115 l -53 -115 l -53 -208 l 29 -208 m -78 -233 l -78 -90 l 18 -90 q 92 4 92 -90 l 92 697 l 242 697 l 290 642 l 290 -44 q 82 -282 290 -282 l -21 -282 l -78 -233 m 443 708 l 376 649 l 167 815 l -42 649 l -167 761 l 75 990 l 154 990 l 396 761 l 443 708 z "},"Ķ":{"ha":729,"x_min":39,"x_max":690,"o":"m 340 -307 l 388 -53 l 269 -53 l 258 -307 l 340 -307 m 581 0 l 581 300 q 531 440 581 392 q 369 488 482 488 l 269 488 l 594 919 l 479 919 l 167 486 l 167 919 l 64 919 l 64 0 l 167 0 l 167 408 l 369 408 q 451 378 422 408 q 479 296 479 349 l 479 0 l 581 0 m 406 511 q 500 485 456 507 q 579 427 544 463 q 634 345 614 392 q 654 247 654 299 l 654 -74 l 510 -74 l 454 -25 l 454 296 q 449 325 454 315 q 422 335 444 335 l 240 335 l 240 -74 l 96 -74 l 39 -25 l 39 944 l 192 944 l 240 888 l 240 631 l 467 944 l 646 944 l 690 888 l 406 511 m 232 -332 l 246 -28 l 417 -28 l 464 -83 l 411 -381 l 289 -381 l 232 -332 z "},"ķ":{"ha":706,"x_min":39,"x_max":692,"o":"m 329 -307 l 375 -53 l 258 -53 l 246 -307 l 329 -307 m 571 0 l 571 199 q 560 269 571 236 q 528 328 550 303 q 471 367 506 353 q 389 382 436 382 l 271 382 l 585 672 l 463 672 l 163 381 l 163 919 l 64 919 l 64 0 l 163 0 l 163 304 l 364 304 q 445 279 418 304 q 472 175 472 254 l 472 0 l 571 0 m 435 403 q 512 370 474 396 q 579 308 550 344 q 626 230 608 272 q 644 146 644 188 l 644 -74 l 504 -74 l 447 -25 l 447 175 q 442 213 447 196 q 408 231 436 231 l 236 231 l 236 -28 l 406 -28 l 453 -83 l 400 -381 l 276 -381 l 221 -332 l 232 -74 l 96 -74 l 39 -25 l 39 944 l 188 944 l 236 888 l 236 485 l 454 697 l 647 697 l 692 642 l 435 403 z "},"Ĺ":{"ha":586,"x_min":-44,"x_max":547,"o":"m 326 1160 l 290 1211 l -10 1010 l 17 975 l 326 1160 m 474 0 l 474 106 l 165 106 l 165 919 l 64 919 l 64 0 l 474 0 m 239 129 l 499 129 l 547 74 l 547 -74 l 96 -74 l 39 -25 l 39 921 l -44 1017 l 296 1246 l 347 1188 l 410 1100 l 147 944 l 190 944 l 239 888 l 239 129 z "},"ĺ":{"ha":311,"x_min":-50,"x_max":404,"o":"m 321 1160 l 285 1211 l -14 1010 l 11 975 l 321 1160 m 163 0 l 163 919 l 64 919 l 64 0 l 163 0 m 140 944 l 188 944 l 236 888 l 236 -74 l 96 -74 l 39 -25 l 39 915 l 7 943 l -50 1017 l 292 1246 l 342 1188 l 404 1100 l 140 944 z "},"Ļ":{"ha":586,"x_min":39,"x_max":547,"o":"m 294 -307 l 340 -53 l 224 -53 l 213 -307 l 294 -307 m 474 0 l 474 106 l 165 106 l 165 919 l 64 919 l 64 0 l 474 0 m 239 129 l 499 129 l 547 74 l 547 -74 l 408 -74 l 418 -83 l 365 -381 l 243 -381 l 186 -332 l 199 -74 l 96 -74 l 39 -25 l 39 944 l 190 944 l 239 888 l 239 129 z "},"ļ":{"ha":311,"x_min":24,"x_max":256,"o":"m 132 -307 l 178 -53 l 61 -53 l 50 -307 l 132 -307 m 163 0 l 163 919 l 64 919 l 64 0 l 163 0 m 24 -332 l 39 -25 l 39 944 l 188 944 l 236 888 l 236 -64 l 256 -83 l 203 -381 l 81 -381 l 24 -332 z "},"Ľ":{"ha":586,"x_min":39,"x_max":547,"o":"m 279 600 l 325 919 l 219 919 l 206 600 l 279 600 m 474 0 l 474 106 l 165 106 l 165 919 l 64 919 l 64 0 l 474 0 m 239 129 l 499 129 l 547 74 l 547 -74 l 96 -74 l 39 -25 l 39 944 l 353 944 l 401 888 l 350 528 l 239 528 l 239 129 z "},"ľ":{"ha":403,"x_min":39,"x_max":396,"o":"m 274 600 l 319 919 l 214 919 l 200 600 l 274 600 m 163 0 l 163 919 l 64 919 l 64 0 l 163 0 m 39 -25 l 39 944 l 347 944 l 396 888 l 344 528 l 236 528 l 236 -74 l 96 -74 l 39 -25 z "},"Ŀ":{"ha":586,"x_min":39,"x_max":547,"o":"m 313 411 l 313 568 l 207 568 l 207 411 l 313 411 m 474 0 l 474 106 l 165 106 l 165 919 l 64 919 l 64 0 l 474 0 m 239 129 l 499 129 l 547 74 l 547 -74 l 96 -74 l 39 -25 l 39 944 l 190 944 l 239 888 l 239 593 l 338 593 l 386 536 l 386 339 l 239 339 l 239 129 z "},"ŀ":{"ha":389,"x_min":39,"x_max":379,"o":"m 306 393 l 306 550 l 200 550 l 200 393 l 306 393 m 163 0 l 163 919 l 64 919 l 64 0 l 163 0 m 39 -25 l 39 944 l 188 944 l 236 888 l 236 575 l 331 575 l 379 518 l 379 319 l 236 319 l 236 -74 l 96 -74 l 39 -25 z "},"Ł":{"ha":583,"x_min":-11,"x_max":544,"o":"m 471 0 l 471 106 l 164 106 l 164 463 l 306 524 l 306 607 l 164 546 l 164 919 l 61 919 l 61 507 l 13 488 l 13 404 l 61 424 l 61 0 l 471 0 m 238 129 l 496 129 l 544 74 l 544 -74 l 93 -74 l 36 -25 l 36 328 l -11 365 l -11 504 l 36 525 l 36 944 l 189 944 l 238 888 l 238 604 l 331 646 l 379 586 l 379 457 l 238 396 l 238 129 z "},"ł":{"ha":401,"x_min":-11,"x_max":379,"o":"m 207 0 l 207 488 l 306 529 l 306 613 l 207 572 l 207 919 l 108 919 l 108 533 l 13 493 l 13 411 l 108 451 l 108 0 l 207 0 m 281 629 l 331 650 l 379 592 l 379 463 l 281 421 l 281 -74 l 140 -74 l 83 -25 l 83 342 l 44 326 l -11 372 l -11 510 l 83 551 l 83 944 l 232 944 l 281 888 l 281 629 z "},"Ń":{"ha":736,"x_min":35,"x_max":668,"o":"m 533 1160 l 497 1211 l 199 1010 l 224 975 l 533 1160 m 594 0 l 594 919 l 503 919 l 503 219 l 169 919 l 58 919 l 58 0 l 153 0 l 153 728 l 496 0 l 594 0 m 235 888 l 478 378 l 478 944 l 619 944 l 668 888 l 668 -74 l 535 -74 l 481 -25 l 225 513 l 225 -74 l 90 -74 l 35 -25 l 35 944 l 185 944 l 235 888 m 219 943 l 163 1017 l 504 1246 l 554 1188 l 617 1100 l 271 896 l 219 943 z "},"ń":{"ha":742,"x_min":39,"x_max":669,"o":"m 536 913 l 500 965 l 200 763 l 226 729 l 536 913 m 597 0 l 597 467 q 446 672 597 672 l 297 672 q 210 654 242 672 q 158 590 178 636 l 158 672 l 64 672 l 64 0 l 163 0 l 163 458 q 183 544 163 517 q 254 571 203 571 l 421 571 q 500 460 500 571 l 500 0 l 597 0 m 356 697 l 446 697 q 542 672 500 697 q 612 606 583 646 q 655 515 640 565 q 669 414 669 464 l 669 -74 l 531 -74 l 475 -25 l 475 460 q 471 497 475 481 l 307 497 q 251 475 267 497 q 236 407 236 453 l 236 -74 l 96 -74 l 39 -25 l 39 697 l 183 697 l 196 676 q 231 692 211 688 l 224 697 l 222 696 l 165 769 l 506 999 l 557 942 l 619 854 l 356 697 z "},"Ņ":{"ha":736,"x_min":35,"x_max":668,"o":"m 344 -307 l 390 -53 l 274 -53 l 263 -307 l 344 -307 m 594 0 l 594 919 l 503 919 l 503 219 l 169 919 l 58 919 l 58 0 l 153 0 l 153 728 l 496 0 l 594 0 m 235 888 l 478 378 l 478 944 l 619 944 l 668 888 l 668 -74 l 535 -74 l 481 -25 l 225 513 l 225 -74 l 90 -74 l 35 -25 l 35 944 l 185 944 l 235 888 m 236 -332 l 250 -28 l 421 -28 l 468 -83 l 415 -381 l 293 -381 l 236 -332 z "},"ņ":{"ha":742,"x_min":39,"x_max":669,"o":"m 347 -307 l 393 -53 l 276 -53 l 265 -307 l 347 -307 m 597 0 l 597 467 q 446 672 597 672 l 297 672 q 210 654 242 672 q 158 590 178 636 l 158 672 l 64 672 l 64 0 l 163 0 l 163 458 q 183 544 163 517 q 254 571 203 571 l 421 571 q 500 460 500 571 l 500 0 l 597 0 m 39 -25 l 39 697 l 183 697 l 196 676 q 239 693 215 689 q 297 697 263 697 l 446 697 q 542 672 500 697 q 612 606 583 646 q 655 515 640 565 q 669 414 669 464 l 669 -74 l 531 -74 l 475 -25 l 475 460 q 471 497 475 481 l 307 497 q 251 475 267 497 q 236 407 236 453 l 236 -74 l 96 -74 l 39 -25 m 239 -332 l 253 -28 l 424 -28 l 471 -83 l 418 -381 l 294 -381 l 239 -332 z "},"Ň":{"ha":736,"x_min":35,"x_max":668,"o":"m 571 1181 l 533 1211 l 325 1044 l 118 1211 l 82 1181 l 296 975 l 354 975 l 571 1181 m 594 0 l 594 919 l 503 919 l 503 219 l 169 919 l 58 919 l 58 0 l 153 0 l 153 728 l 496 0 l 594 0 m 235 888 l 478 378 l 478 944 l 619 944 l 668 888 l 668 -74 l 535 -74 l 481 -25 l 225 513 l 225 -74 l 90 -74 l 35 -25 l 35 944 l 185 944 l 235 888 m 654 1128 l 415 903 l 340 903 l 44 1181 l 117 1244 l 325 1075 l 535 1244 l 607 1181 l 654 1128 z "},"ň":{"ha":742,"x_min":39,"x_max":669,"o":"m 586 933 l 550 965 l 340 799 l 133 965 l 97 933 l 313 729 l 369 729 l 586 933 m 597 0 l 597 467 q 446 672 597 672 l 297 672 q 210 654 242 672 q 158 590 178 636 l 158 672 l 64 672 l 64 0 l 163 0 l 163 458 q 183 544 163 517 q 254 571 203 571 l 421 571 q 500 460 500 571 l 500 0 l 597 0 m 669 881 l 474 696 q 558 663 521 690 q 619 594 594 635 q 657 507 644 554 q 669 414 669 460 l 669 -74 l 531 -74 l 475 -25 l 475 460 q 471 497 475 481 l 307 497 q 251 475 267 497 q 236 407 236 453 l 236 -74 l 96 -74 l 39 -25 l 39 697 l 183 697 l 196 676 q 239 693 215 689 q 297 697 263 697 l 311 697 l 60 933 l 132 997 l 340 829 l 551 997 l 669 881 z "},"Ŋ":{"ha":736,"x_min":35,"x_max":668,"o":"m 407 -307 q 594 -90 594 -307 l 594 919 l 503 919 l 503 219 l 169 919 l 58 919 l 58 0 l 153 0 l 153 728 l 503 0 l 503 -94 q 474 -184 503 -154 q 396 -214 444 -214 l 369 -214 l 369 -307 l 407 -307 m 235 888 l 478 378 l 478 944 l 619 944 l 668 888 l 668 -143 q 458 -381 668 -381 l 401 -381 l 344 -332 l 344 -189 l 396 -189 q 455 -165 432 -189 q 478 -94 478 -140 l 478 -6 l 225 518 l 225 -74 l 90 -74 l 35 -25 l 35 944 l 185 944 l 235 888 z "},"ŋ":{"ha":742,"x_min":39,"x_max":669,"o":"m 410 -307 q 597 -90 597 -307 l 597 482 q 446 672 597 672 l 297 672 q 210 654 242 672 q 158 590 178 636 l 158 672 l 64 672 l 64 0 l 163 0 l 163 458 q 183 544 163 517 q 254 571 203 571 l 421 571 q 479 547 458 571 q 500 471 500 522 l 500 -94 q 399 -214 500 -214 l 382 -214 l 382 -307 l 410 -307 m 39 -25 l 39 697 l 183 697 l 196 676 q 239 693 215 689 q 297 697 263 697 l 446 697 q 538 674 497 697 q 608 612 579 650 q 653 526 638 574 q 669 431 669 478 l 669 -143 q 461 -381 669 -381 l 413 -381 l 357 -332 l 357 -189 l 399 -189 q 475 -94 475 -189 l 475 471 q 474 484 475 478 q 472 497 474 490 l 307 497 q 251 475 267 497 q 236 407 236 453 l 236 -74 l 96 -74 l 39 -25 z "},"Ō":{"ha":775,"x_min":33,"x_max":707,"o":"m 561 1057 l 561 1136 l 129 1136 l 129 1057 l 561 1057 m 531 203 q 508 132 531 158 q 439 106 486 106 l 251 106 q 183 132 206 106 q 160 203 160 158 l 160 715 q 183 788 160 761 q 251 814 206 814 l 439 814 q 508 788 486 814 q 531 715 531 761 l 531 203 m 439 0 q 587 55 540 0 q 633 201 633 110 l 633 715 q 587 864 633 808 q 439 919 540 919 l 251 919 q 105 864 151 919 q 58 715 58 808 l 58 201 q 105 55 58 110 q 251 0 151 0 l 439 0 m 304 -74 q 201 -52 250 -74 q 115 7 151 -31 q 56 94 78 44 q 33 201 33 144 l 33 715 q 86 883 33 821 q 251 944 139 944 l 439 944 q 543 922 494 944 q 628 862 592 900 q 686 773 665 824 q 707 664 707 722 l 707 150 q 656 -14 707 46 q 492 -74 604 -74 l 304 -74 m 506 715 q 503 733 506 725 q 488 740 500 740 l 304 740 q 233 664 233 740 l 233 131 q 242 129 238 129 q 251 129 247 129 l 439 129 q 489 149 472 129 q 506 203 506 169 l 506 715 m 106 1032 l 106 1161 l 586 1161 l 635 1104 l 635 983 l 161 983 l 106 1032 z "},"ō":{"ha":729,"x_min":33,"x_max":661,"o":"m 538 810 l 538 889 l 106 889 l 106 810 l 538 810 m 489 194 q 404 101 489 101 l 240 101 q 174 130 193 101 q 156 210 156 158 l 156 478 q 240 571 156 571 l 404 571 q 469 542 450 571 q 489 461 489 514 l 489 194 m 408 0 q 549 57 510 0 q 588 228 588 114 l 588 444 q 578 552 588 508 q 544 622 568 596 q 477 660 519 649 q 369 672 435 672 l 275 672 q 171 662 213 672 q 104 626 129 651 q 69 556 79 600 q 58 444 58 511 l 58 228 q 68 120 58 164 q 102 50 78 76 q 168 12 126 24 q 275 0 210 0 l 408 0 m 328 -74 q 108 1 182 -74 q 33 228 33 76 l 33 444 q 45 568 33 519 q 85 646 57 617 q 160 686 114 675 q 275 697 206 697 l 369 697 q 588 618 515 697 q 661 392 661 539 l 661 176 q 617 -12 661 50 q 460 -74 574 -74 l 328 -74 m 82 786 l 82 914 l 563 914 l 611 857 l 611 738 l 138 738 l 82 786 m 464 461 q 460 497 464 481 l 293 497 q 229 425 229 497 l 229 157 q 229 141 229 149 q 231 126 229 133 l 404 126 q 464 194 464 126 l 464 461 z "},"Ŏ":{"ha":775,"x_min":33,"x_max":707,"o":"m 540 1189 q 468 1081 518 1122 q 343 1040 418 1040 q 219 1083 272 1040 q 150 1189 165 1125 l 101 1160 q 125 1095 106 1128 q 176 1035 144 1063 q 251 992 208 1008 q 344 975 294 975 q 438 992 396 975 q 510 1035 479 1008 q 560 1095 540 1063 q 589 1160 581 1128 l 540 1189 m 531 203 q 508 132 531 158 q 439 106 486 106 l 251 106 q 183 132 206 106 q 160 203 160 158 l 160 715 q 183 788 160 761 q 251 814 206 814 l 439 814 q 508 788 486 814 q 531 715 531 761 l 531 203 m 439 0 q 587 55 540 0 q 633 201 633 110 l 633 715 q 587 864 633 808 q 439 919 540 919 l 251 919 q 105 864 151 919 q 58 715 58 808 l 58 201 q 105 55 58 110 q 251 0 151 0 l 439 0 m 619 1172 l 667 1117 q 617 1015 653 1067 q 524 932 582 964 q 598 891 564 918 q 656 828 632 864 q 694 751 681 793 q 707 664 707 708 l 707 150 q 656 -14 707 46 q 492 -74 604 -74 l 304 -74 q 201 -52 250 -74 q 115 7 151 -31 q 56 94 78 44 q 33 201 33 144 l 33 715 q 86 883 33 821 q 251 944 139 944 q 188 994 219 965 q 131 1055 156 1024 q 90 1117 106 1086 q 75 1172 75 1147 l 167 1229 l 169 1215 l 217 1169 q 258 1093 228 1121 q 343 1065 289 1065 q 456 1110 410 1065 q 526 1228 503 1156 l 619 1172 m 506 715 q 502 733 506 725 q 486 740 499 740 l 304 740 q 233 664 233 740 l 233 131 q 242 129 238 129 q 251 129 247 129 l 439 129 q 489 149 472 129 q 506 203 506 169 l 506 715 z "},"ŏ":{"ha":729,"x_min":33,"x_max":661,"o":"m 518 943 q 446 835 496 876 q 321 793 396 793 q 197 835 250 793 q 128 943 143 876 l 79 913 q 103 849 83 881 q 154 790 122 817 q 229 746 186 763 q 322 729 272 729 q 415 746 374 729 q 488 790 457 763 q 538 849 518 817 q 567 913 558 881 l 518 943 m 489 194 q 404 101 489 101 l 240 101 q 174 130 193 101 q 156 210 156 158 l 156 478 q 240 571 156 571 l 404 571 q 469 542 450 571 q 489 461 489 514 l 489 194 m 408 0 q 549 57 510 0 q 588 228 588 114 l 588 444 q 578 552 588 508 q 544 622 568 596 q 477 660 519 649 q 369 672 435 672 l 275 672 q 171 662 213 672 q 104 626 129 651 q 69 556 79 600 q 58 444 58 511 l 58 228 q 68 120 58 164 q 102 50 78 76 q 168 12 126 24 q 275 0 210 0 l 408 0 m 597 926 l 644 871 q 592 765 629 818 q 493 683 556 713 q 571 638 539 668 q 623 569 603 608 q 652 485 643 531 q 661 392 661 439 l 661 176 q 617 -12 661 50 q 460 -74 574 -74 l 328 -74 q 108 1 182 -74 q 33 228 33 76 l 33 444 q 43 559 33 513 q 76 635 53 606 q 136 679 99 665 q 231 696 174 693 q 167 747 199 718 q 110 808 136 776 q 69 869 85 839 q 53 926 53 900 l 144 982 l 194 924 q 236 847 206 876 q 321 818 267 818 q 434 863 388 818 q 504 981 481 908 l 597 926 m 464 461 q 460 497 464 481 l 293 497 q 229 425 229 497 l 229 157 q 229 141 229 149 q 231 126 229 133 l 404 126 q 464 194 464 126 l 464 461 z "},"Ő":{"ha":775,"x_min":33,"x_max":707,"o":"m 254 976 l 358 1211 l 272 1211 l 176 976 l 254 976 m 478 976 l 593 1211 l 506 1211 l 400 976 l 478 976 m 531 203 q 508 132 531 158 q 439 106 486 106 l 251 106 q 183 132 206 106 q 160 203 160 158 l 160 715 q 183 788 160 761 q 251 814 206 814 l 439 814 q 508 788 486 814 q 531 715 531 761 l 531 203 m 439 0 q 587 55 540 0 q 633 201 633 110 l 633 715 q 587 864 633 808 q 439 919 540 919 l 251 919 q 105 864 151 919 q 58 715 58 808 l 58 201 q 105 55 58 110 q 251 0 151 0 l 439 0 m 551 922 q 615 892 586 910 q 664 844 643 874 q 696 770 685 814 q 707 664 707 726 l 707 150 q 656 -14 707 46 q 492 -74 604 -74 l 304 -74 q 201 -52 250 -74 q 115 7 151 -31 q 56 94 78 44 q 33 201 33 144 l 33 715 q 65 855 33 799 q 168 932 97 911 l 139 951 l 256 1236 l 397 1236 l 443 1181 l 339 944 l 378 944 l 360 951 l 489 1236 l 632 1236 l 678 1181 l 551 922 m 506 715 q 503 733 506 725 q 488 740 500 740 l 304 740 q 233 664 233 740 l 233 131 q 242 129 238 129 q 251 129 247 129 l 439 129 q 489 149 472 129 q 506 203 506 169 l 506 715 z "},"ő":{"ha":729,"x_min":33,"x_max":661,"o":"m 231 731 l 335 965 l 249 965 l 153 731 l 231 731 m 454 731 l 569 965 l 482 965 l 376 731 l 454 731 m 489 194 q 404 101 489 101 l 240 101 q 174 130 193 101 q 156 210 156 158 l 156 478 q 240 571 156 571 l 404 571 q 469 542 450 571 q 489 461 489 514 l 489 194 m 408 0 q 549 57 510 0 q 588 228 588 114 l 588 444 q 578 552 588 508 q 544 622 568 596 q 477 660 519 649 q 369 672 435 672 l 275 672 q 171 662 213 672 q 104 626 129 651 q 69 556 79 600 q 58 444 58 511 l 58 228 q 68 120 58 164 q 102 50 78 76 q 168 12 126 24 q 275 0 210 0 l 408 0 m 525 669 q 628 562 594 625 q 661 392 661 499 l 661 176 q 617 -12 661 50 q 460 -74 574 -74 l 328 -74 q 108 1 182 -74 q 33 228 33 76 l 33 444 q 58 607 33 551 q 149 682 83 663 l 115 706 l 232 990 l 374 990 l 419 933 l 315 697 l 354 697 l 336 706 l 465 990 l 608 990 l 654 933 l 525 669 m 464 461 q 460 497 464 481 l 293 497 q 229 425 229 497 l 229 157 q 229 141 229 149 q 231 126 229 133 l 404 126 q 464 194 464 126 l 464 461 z "},"Œ":{"ha":1154,"x_min":33,"x_max":1090,"o":"m 518 203 q 495 132 518 158 q 426 106 472 106 l 251 106 q 183 132 206 106 q 160 203 160 158 l 160 715 q 183 788 160 761 q 251 814 206 814 l 426 814 q 495 788 472 814 q 518 715 518 761 l 518 203 m 1017 0 l 1017 106 l 621 106 l 621 418 l 857 418 l 857 515 l 621 515 l 621 814 l 1017 814 l 1017 919 l 518 919 l 518 903 q 476 915 499 910 q 426 919 453 919 l 251 919 q 105 864 151 919 q 58 715 58 808 l 58 201 q 105 55 58 110 q 251 0 151 0 l 426 0 q 518 15 475 0 l 518 0 l 1017 0 m 693 129 l 1042 129 l 1090 74 l 1090 -74 l 550 -74 l 543 -67 q 479 -74 508 -74 l 304 -74 q 201 -52 250 -74 q 115 7 151 -31 q 56 94 78 44 q 33 201 33 144 l 33 715 q 86 883 33 821 q 251 944 139 944 l 426 944 q 462 942 446 944 q 493 938 478 940 l 493 944 l 1042 944 l 1090 888 l 1090 740 l 693 740 l 693 540 l 881 540 l 929 483 l 929 344 l 693 344 l 693 129 m 493 715 q 490 733 493 725 q 475 740 488 740 l 304 740 q 233 664 233 740 l 233 131 q 242 129 238 129 q 251 129 247 129 l 426 129 q 476 149 460 129 q 493 203 493 169 l 493 715 z "},"œ":{"ha":1143,"x_min":33,"x_max":1075,"o":"m 907 382 l 585 382 l 585 464 q 686 576 585 576 l 807 576 q 907 464 907 576 l 907 382 m 489 194 q 404 101 489 101 l 240 101 q 156 194 156 101 l 156 478 q 240 571 156 571 l 404 571 q 489 478 489 571 l 489 194 m 983 0 l 983 101 l 686 101 q 585 214 585 101 l 585 293 l 1001 293 l 1001 461 q 806 672 1001 672 l 693 672 q 539 596 574 672 q 401 672 513 672 l 238 672 q 58 481 58 672 l 58 192 q 238 0 58 0 l 401 0 q 539 75 511 0 q 693 0 574 0 l 983 0 m 658 161 q 665 134 658 142 q 693 126 671 126 l 1008 126 l 1057 69 l 1057 -74 l 744 -74 q 656 -58 696 -74 q 593 -18 617 -42 q 454 -74 551 -74 l 290 -74 q 190 -53 238 -74 q 108 3 143 -32 q 53 88 74 39 q 33 192 33 136 l 33 481 q 238 697 33 697 l 401 697 q 485 685 451 697 q 542 644 519 674 q 693 697 590 697 l 806 697 q 913 674 864 697 q 999 612 963 651 q 1055 520 1035 572 q 1075 410 1075 468 l 1075 221 l 658 221 l 658 161 m 464 478 q 463 487 464 482 q 463 497 463 492 l 293 497 q 229 425 229 497 l 229 126 l 404 126 q 464 194 464 126 l 464 478 m 882 464 q 878 492 882 479 q 854 504 874 504 l 739 504 q 658 411 658 504 l 658 407 l 882 407 l 882 464 z "},"Ŕ":{"ha":746,"x_min":39,"x_max":681,"o":"m 357 944 l 393 944 q 500 923 450 944 q 588 863 550 901 q 647 774 625 825 q 668 663 668 722 l 668 522 q 653 423 668 460 q 608 367 639 386 q 663 290 646 329 q 681 201 681 250 l 681 -74 l 536 -74 l 481 -25 l 481 249 q 476 281 481 268 q 444 293 472 293 l 240 293 l 240 -74 l 96 -74 l 39 -25 l 39 944 l 222 944 l 167 1017 l 507 1246 l 621 1100 l 357 944 m 607 0 l 607 254 q 575 368 607 325 q 497 417 543 411 q 568 465 542 428 q 594 575 594 503 l 594 715 q 544 870 594 821 q 393 919 494 919 l 64 919 l 64 0 l 167 0 l 167 365 l 392 365 q 476 333 447 365 q 504 249 504 300 l 504 0 l 607 0 m 499 563 q 474 490 499 518 q 401 463 450 463 l 167 463 l 167 814 l 393 814 q 499 693 499 814 l 499 563 m 474 693 q 469 725 474 710 q 443 740 465 740 l 240 740 l 240 488 l 401 488 q 456 508 439 488 q 474 563 474 529 l 474 693 m 538 1160 l 501 1211 l 201 1010 l 228 975 l 538 1160 z "},"ŕ":{"ha":556,"x_min":39,"x_max":526,"o":"m 263 696 q 278 697 269 696 q 297 697 288 697 l 460 697 l 508 642 l 508 497 l 307 497 q 251 475 267 497 q 236 407 236 453 l 236 -74 l 96 -74 l 39 -25 l 39 697 l 128 697 l 72 769 l 413 999 l 526 854 l 263 696 m 163 0 l 163 458 q 183 544 163 517 q 254 571 203 571 l 435 571 l 435 672 l 297 672 q 210 654 242 672 q 158 590 178 636 l 158 672 l 64 672 l 64 0 l 163 0 m 443 913 l 407 965 l 107 763 l 133 729 l 443 913 z "},"Ŗ":{"ha":746,"x_min":39,"x_max":681,"o":"m 349 -307 l 394 -53 l 278 -53 l 267 -307 l 349 -307 m 499 563 q 474 490 499 518 q 401 463 450 463 l 167 463 l 167 814 l 393 814 q 499 693 499 814 l 499 563 m 607 0 l 607 254 q 575 368 607 325 q 497 417 543 411 q 568 465 542 428 q 594 575 594 503 l 594 715 q 544 870 594 821 q 393 919 494 919 l 64 919 l 64 0 l 167 0 l 167 365 l 392 365 q 476 333 447 365 q 504 249 504 300 l 504 0 l 607 0 m 39 -25 l 39 944 l 393 944 q 506 921 456 944 q 593 858 557 897 q 649 767 629 818 q 668 663 668 717 l 668 522 q 653 423 668 460 q 608 367 639 386 q 663 290 646 329 q 681 201 681 250 l 681 -74 l 536 -74 l 481 -25 l 481 249 q 476 281 481 268 q 444 293 472 293 l 240 293 l 240 -74 l 96 -74 l 39 -25 m 240 -332 l 254 -28 l 425 -28 l 472 -83 l 419 -381 l 296 -381 l 240 -332 m 474 693 q 469 725 474 710 q 442 740 464 740 l 240 740 l 240 488 l 401 488 q 456 508 439 488 q 474 563 474 529 l 474 693 z "},"ŗ":{"ha":556,"x_min":24,"x_max":508,"o":"m 132 -307 l 178 -53 l 61 -53 l 50 -307 l 132 -307 m 163 0 l 163 458 q 183 544 163 517 q 254 571 203 571 l 435 571 l 435 672 l 297 672 q 210 654 242 672 q 158 590 178 636 l 158 672 l 64 672 l 64 0 l 163 0 m 39 697 l 183 697 l 183 690 l 196 676 q 239 693 215 689 q 297 697 263 697 l 460 697 l 508 642 l 508 497 l 307 497 q 251 475 267 497 q 236 407 236 453 l 236 -64 l 256 -83 l 203 -381 l 81 -381 l 24 -332 l 39 -32 l 39 697 z "},"Ř":{"ha":746,"x_min":36,"x_max":681,"o":"m 563 1181 l 526 1211 l 317 1044 l 110 1211 l 74 1181 l 289 975 l 346 975 l 563 1181 m 499 563 q 474 490 499 518 q 401 463 450 463 l 167 463 l 167 814 l 393 814 q 499 693 499 814 l 499 563 m 607 0 l 607 254 q 575 368 607 325 q 497 417 543 411 q 568 465 542 428 q 594 575 594 503 l 594 715 q 544 870 594 821 q 393 919 494 919 l 64 919 l 64 0 l 167 0 l 167 365 l 392 365 q 476 333 447 365 q 504 249 504 300 l 504 0 l 607 0 m 646 1128 l 449 940 q 538 908 497 933 q 607 844 578 882 q 652 758 636 806 q 668 663 668 711 l 668 522 q 653 423 668 460 q 608 367 639 386 q 663 290 646 329 q 681 201 681 250 l 681 -74 l 536 -74 l 481 -25 l 481 249 q 476 281 481 268 q 444 293 472 293 l 240 293 l 240 -74 l 96 -74 l 39 -25 l 39 944 l 288 944 l 36 1181 l 108 1244 l 317 1075 l 528 1244 l 646 1128 m 474 693 q 469 725 474 710 q 443 740 465 740 l 240 740 l 240 488 l 401 488 q 456 508 439 488 q 474 563 474 529 l 474 693 z "},"ř":{"ha":556,"x_min":-44,"x_max":565,"o":"m 481 933 l 444 965 l 236 799 l 29 965 l -8 933 l 207 729 l 265 729 l 481 933 m 163 0 l 163 458 q 183 544 163 517 q 254 571 203 571 l 435 571 l 435 672 l 297 672 q 210 654 242 672 q 158 590 178 636 l 158 672 l 64 672 l 64 0 l 163 0 m 565 881 l 369 697 l 460 697 l 508 642 l 508 497 l 307 497 q 251 475 267 497 q 236 407 236 453 l 236 -74 l 96 -74 l 39 -25 l 39 697 l 183 697 l 183 690 l 196 676 q 218 688 206 685 l 200 704 l 197 704 l -44 933 l 28 997 l 236 829 l 446 997 l 565 881 z "},"Ś":{"ha":729,"x_min":21,"x_max":669,"o":"m 529 1160 l 493 1211 l 194 1010 l 221 975 l 529 1160 m 374 0 q 597 226 597 0 l 597 307 q 390 510 597 510 l 261 510 q 149 619 149 510 l 149 690 q 263 814 149 814 l 565 814 l 565 919 l 263 919 q 46 690 46 919 l 46 619 q 251 413 46 413 l 382 413 q 494 307 494 413 l 494 226 q 374 106 494 106 l 54 106 l 54 0 l 374 0 m 222 567 q 222 553 222 560 q 224 539 222 546 q 261 535 238 535 l 390 535 q 498 513 447 535 q 587 454 549 492 q 647 365 625 417 q 669 254 669 314 l 669 175 q 426 -74 669 -74 l 85 -74 l 29 -25 l 29 129 l 374 129 q 469 226 469 129 l 469 307 q 465 338 469 322 q 450 340 458 339 q 435 340 442 340 l 304 340 q 197 361 247 340 q 106 419 146 382 q 44 508 67 457 q 21 619 21 558 l 21 690 q 215 943 21 919 l 158 1017 l 500 1246 l 613 1100 l 349 944 l 590 944 l 639 888 l 639 740 l 315 740 q 222 638 222 740 l 222 567 z "},"ś":{"ha":708,"x_min":19,"x_max":649,"o":"m 519 913 l 482 965 l 183 763 l 210 729 l 519 913 m 401 0 q 536 47 497 0 q 575 190 575 94 l 575 233 q 528 349 575 315 q 403 382 482 382 l 228 382 q 160 405 183 382 q 138 468 138 428 l 138 489 q 158 551 138 531 q 217 571 179 571 l 544 571 l 544 672 l 243 672 q 154 663 192 672 q 92 633 117 654 q 56 577 68 613 q 44 488 44 542 l 44 458 q 92 334 44 368 q 228 300 140 300 l 399 300 q 459 281 438 300 q 481 225 481 261 l 481 178 q 399 101 481 101 l 60 101 l 60 0 l 401 0 m 211 408 q 228 407 215 407 l 403 407 q 493 390 449 407 q 572 344 538 374 q 628 272 607 314 q 649 181 649 231 l 649 138 q 605 -22 649 31 q 454 -74 561 -74 l 92 -74 l 35 -25 l 35 126 l 399 126 q 457 178 457 126 l 457 226 l 281 226 q 185 242 232 226 q 102 287 139 257 q 42 360 65 317 q 19 458 19 403 l 19 488 q 64 644 19 599 q 204 696 108 690 l 149 769 l 489 999 l 601 854 l 339 697 l 569 697 l 618 642 l 618 497 l 269 497 q 211 436 211 497 l 211 408 z "},"Ŝ":{"ha":729,"x_min":21,"x_max":669,"o":"m 554 1007 l 340 1211 l 281 1211 l 65 1007 l 103 975 l 310 1140 l 518 975 l 554 1007 m 374 0 q 597 226 597 0 l 597 307 q 390 510 597 510 l 261 510 q 149 619 149 510 l 149 690 q 263 814 149 814 l 565 814 l 565 919 l 263 919 q 46 690 46 919 l 46 619 q 251 413 46 413 l 382 413 q 494 307 494 413 l 494 226 q 374 106 494 106 l 54 106 l 54 0 l 374 0 m 639 954 l 603 924 l 639 888 l 639 740 l 315 740 q 222 638 222 740 l 222 567 q 222 553 222 560 q 224 539 222 546 q 261 535 238 535 l 390 535 q 498 513 447 535 q 587 454 549 492 q 647 365 625 417 q 669 254 669 314 l 669 175 q 426 -74 669 -74 l 85 -74 l 29 -25 l 29 129 l 374 129 q 469 226 469 129 l 469 307 q 465 338 469 322 q 450 340 458 339 q 435 340 442 340 l 304 340 q 197 361 247 340 q 106 419 146 382 q 44 508 67 457 q 21 619 21 558 l 21 690 q 129 917 21 860 l 29 1007 l 269 1236 l 350 1236 l 592 1007 l 639 954 m 210 940 q 263 944 235 944 l 510 944 l 363 1063 l 210 940 z "},"ŝ":{"ha":708,"x_min":18,"x_max":649,"o":"m 544 761 l 329 965 l 269 965 l 56 761 l 92 729 l 299 894 l 507 729 l 544 761 m 401 0 q 536 47 497 0 q 575 190 575 94 l 575 233 q 528 349 575 315 q 403 382 482 382 l 228 382 q 160 405 183 382 q 138 468 138 428 l 138 489 q 158 551 138 531 q 217 571 179 571 l 544 571 l 544 672 l 243 672 q 154 663 192 672 q 92 633 117 654 q 56 577 68 613 q 44 488 44 542 l 44 458 q 92 334 44 368 q 228 300 140 300 l 399 300 q 459 281 438 300 q 481 225 481 261 l 481 178 q 399 101 481 101 l 60 101 l 60 0 l 401 0 m 628 708 l 586 671 l 618 642 l 618 497 l 269 497 q 211 436 211 497 l 211 408 q 228 407 215 407 l 403 407 q 493 390 449 407 q 572 344 538 374 q 628 272 607 314 q 649 181 649 231 l 649 138 q 605 -22 649 31 q 454 -74 561 -74 l 92 -74 l 35 -25 l 35 126 l 399 126 q 457 178 457 126 l 457 226 l 281 226 q 185 242 232 226 q 102 287 139 257 q 42 360 65 317 q 19 458 19 403 l 19 488 q 42 611 19 567 q 110 676 64 656 l 18 761 l 260 990 l 340 990 l 581 761 l 628 708 m 201 696 q 222 697 213 696 q 243 697 232 697 l 500 697 l 351 815 l 201 696 z "},"Ş":{"ha":729,"x_min":21,"x_max":669,"o":"m 340 -307 l 388 -53 l 269 -53 l 258 -307 l 340 -307 m 374 0 q 597 226 597 0 l 597 307 q 390 510 597 510 l 261 510 q 149 619 149 510 l 149 690 q 263 814 149 814 l 565 814 l 565 919 l 263 919 q 46 690 46 919 l 46 619 q 251 413 46 413 l 382 413 q 494 307 494 413 l 494 226 q 374 106 494 106 l 54 106 l 54 0 l 374 0 m 222 567 q 222 553 222 560 q 224 539 222 546 q 261 535 238 535 l 390 535 q 498 513 447 535 q 587 454 549 492 q 647 365 625 417 q 669 254 669 314 l 669 175 q 453 -72 669 -60 l 464 -83 l 411 -381 l 289 -381 l 232 -332 l 244 -74 l 85 -74 l 29 -25 l 29 129 l 374 129 q 469 226 469 129 l 469 307 q 465 338 469 322 q 450 340 458 339 q 435 340 442 340 l 304 340 q 197 361 247 340 q 106 419 146 382 q 44 508 67 457 q 21 619 21 558 l 21 690 q 263 944 21 944 l 590 944 l 639 888 l 639 740 l 315 740 q 222 638 222 740 l 222 567 z "},"ş":{"ha":708,"x_min":19,"x_max":649,"o":"m 331 -307 l 376 -53 l 260 -53 l 247 -307 l 331 -307 m 401 0 q 536 47 497 0 q 575 190 575 94 l 575 233 q 528 349 575 315 q 403 382 482 382 l 228 382 q 160 405 183 382 q 138 468 138 428 l 138 489 q 158 551 138 531 q 217 571 179 571 l 544 571 l 544 672 l 243 672 q 154 663 192 672 q 92 633 117 654 q 56 577 68 613 q 44 488 44 542 l 44 458 q 92 334 44 368 q 228 300 140 300 l 399 300 q 459 281 438 300 q 481 225 481 261 l 481 178 q 399 101 481 101 l 60 101 l 60 0 l 401 0 m 211 408 q 228 407 215 407 l 403 407 q 493 390 449 407 q 572 344 538 374 q 628 272 607 314 q 649 181 649 231 l 649 138 q 605 -22 649 31 q 454 -74 561 -74 l 443 -74 l 454 -83 l 401 -381 l 278 -381 l 222 -332 l 233 -74 l 92 -74 l 35 -25 l 35 126 l 399 126 q 457 178 457 126 l 457 226 l 281 226 q 119 275 171 226 l 90 303 q 38 359 56 322 q 19 458 19 396 l 19 488 q 33 588 19 547 q 74 653 46 629 q 143 687 101 676 q 243 697 185 697 l 569 697 l 618 642 l 618 497 l 269 497 q 211 436 211 497 l 211 408 z "},"Š":{"ha":729,"x_min":21,"x_max":669,"o":"m 581 1181 l 544 1211 l 336 1044 l 129 1211 l 92 1181 l 307 975 l 364 975 l 581 1181 m 374 0 q 597 226 597 0 l 597 307 q 390 510 597 510 l 261 510 q 149 619 149 510 l 149 690 q 263 814 149 814 l 565 814 l 565 919 l 263 919 q 46 690 46 919 l 46 619 q 251 413 46 413 l 382 413 q 494 307 494 413 l 494 226 q 374 106 494 106 l 54 106 l 54 0 l 374 0 m 665 1128 l 469 944 l 590 944 l 639 888 l 639 740 l 315 740 q 222 638 222 740 l 222 567 q 222 553 222 560 q 224 539 222 546 q 261 535 238 535 l 390 535 q 498 513 447 535 q 587 454 549 492 q 647 365 625 417 q 669 254 669 314 l 669 175 q 426 -74 669 -74 l 85 -74 l 36 -25 l 29 -25 l 29 129 l 374 129 q 469 226 469 129 l 469 307 q 465 338 469 322 q 450 340 458 339 q 435 340 442 340 l 304 340 q 197 361 247 340 q 106 419 146 382 q 44 508 67 457 q 21 619 21 558 l 21 690 q 263 944 21 944 l 306 944 l 56 1181 l 128 1244 l 336 1075 l 546 1244 l 618 1181 l 665 1128 z "},"š":{"ha":708,"x_min":19,"x_max":649,"o":"m 557 933 l 521 965 l 313 799 l 106 965 l 68 933 l 283 729 l 340 729 l 557 933 m 401 0 q 536 47 497 0 q 575 190 575 94 l 575 233 q 528 349 575 315 q 403 382 482 382 l 228 382 q 160 405 183 382 q 138 468 138 428 l 138 489 q 158 551 138 531 q 217 571 179 571 l 544 571 l 544 672 l 243 672 q 154 663 192 672 q 92 633 117 654 q 56 577 68 613 q 44 488 44 542 l 44 458 q 92 334 44 368 q 228 300 140 300 l 399 300 q 459 281 438 300 q 481 225 481 261 l 481 178 q 399 101 481 101 l 60 101 l 60 0 l 401 0 m 642 881 l 446 697 l 569 697 l 618 642 l 618 497 l 269 497 q 211 436 211 497 l 211 408 q 228 407 215 407 l 403 407 q 493 390 449 407 q 572 344 538 374 q 628 272 607 314 q 649 181 649 231 l 649 138 q 605 -22 649 31 q 454 -74 561 -74 l 92 -74 l 35 -25 l 35 126 l 399 126 q 457 178 457 126 l 457 226 l 281 226 q 185 242 232 226 q 102 287 139 257 q 42 360 65 317 q 19 458 19 403 l 19 488 q 33 588 19 547 q 74 653 46 629 q 143 687 101 676 q 243 697 185 697 l 282 697 l 32 933 l 104 997 l 313 829 l 522 997 l 642 881 z "},"Ţ":{"ha":653,"x_min":4,"x_max":614,"o":"m 299 -307 l 344 -53 l 228 -53 l 217 -307 l 299 -307 m 335 0 l 335 814 l 540 814 l 540 919 l 29 919 l 29 814 l 232 814 l 232 0 l 335 0 m 4 789 l 4 944 l 565 944 l 614 888 l 614 740 l 408 740 l 408 -69 l 422 -83 l 369 -381 l 246 -381 l 190 -332 l 207 -25 l 207 740 l 60 740 l 4 789 z "},"ţ":{"ha":463,"x_min":35,"x_max":403,"o":"m 207 -307 l 253 -53 l 136 -53 l 125 -307 l 207 -307 m 326 0 l 326 93 l 257 93 q 160 211 160 93 l 160 586 l 329 586 l 329 672 l 160 672 l 160 903 l 60 903 l 60 215 q 247 0 60 0 l 326 0 m 233 158 q 237 131 233 143 q 260 118 240 118 l 351 118 l 400 61 l 400 -74 l 319 -74 l 331 -83 l 278 -381 l 154 -381 l 99 -332 l 113 -28 l 157 -28 q 61 78 88 21 q 35 215 35 136 l 35 926 l 185 926 l 233 871 l 233 697 l 354 697 l 403 642 l 403 513 l 233 513 l 233 158 z "},"Ť":{"ha":653,"x_min":4,"x_max":614,"o":"m 529 1181 l 493 1211 l 285 1044 l 78 1211 l 40 1181 l 256 975 l 314 975 l 529 1181 m 335 0 l 335 814 l 540 814 l 540 919 l 29 919 l 29 814 l 232 814 l 232 0 l 335 0 m 614 1128 l 418 944 l 565 944 l 614 888 l 614 740 l 408 740 l 408 -74 l 264 -74 l 207 -25 l 207 740 l 60 740 l 4 789 l 4 944 l 254 944 l 4 1181 l 76 1244 l 285 1075 l 494 1244 l 567 1181 l 614 1128 z "},"ť":{"ha":568,"x_min":35,"x_max":561,"o":"m 439 600 l 485 919 l 379 919 l 365 600 l 439 600 m 326 0 l 326 93 l 261 93 q 160 211 160 93 l 160 586 l 329 586 l 329 672 l 160 672 l 160 903 l 60 903 l 60 215 q 247 0 60 0 l 326 0 m 233 158 q 238 131 233 143 q 261 118 242 118 l 351 118 l 400 61 l 400 -74 l 300 -74 q 195 -50 243 -74 q 111 13 147 -26 q 55 105 75 53 q 35 215 35 157 l 35 926 l 185 926 l 233 871 l 233 697 l 344 697 l 356 944 l 513 944 l 561 888 l 510 518 l 233 518 l 233 158 z "},"Ŧ":{"ha":653,"x_min":4,"x_max":614,"o":"m 335 0 l 335 396 l 435 396 l 435 464 l 335 464 l 335 814 l 540 814 l 540 919 l 29 919 l 29 814 l 232 814 l 232 464 l 133 464 l 133 396 l 232 396 l 232 0 l 335 0 m 408 489 l 460 489 l 508 433 l 508 322 l 408 322 l 408 -74 l 264 -74 l 207 -25 l 207 322 l 165 322 l 108 371 l 108 489 l 207 489 l 207 740 l 60 740 l 4 789 l 4 944 l 565 944 l 614 888 l 614 740 l 408 740 l 408 489 z "},"ŧ":{"ha":463,"x_min":35,"x_max":403,"o":"m 321 310 l 321 378 l 160 378 l 160 586 l 329 586 l 329 672 l 160 672 l 160 903 l 60 903 l 60 215 q 247 0 60 0 l 326 0 l 326 93 l 257 93 q 160 211 160 93 l 160 310 l 321 310 m 233 403 l 346 403 l 394 346 l 394 236 l 233 236 l 233 158 q 238 131 233 143 q 261 118 242 118 l 351 118 l 400 61 l 400 -74 l 300 -74 q 195 -50 243 -74 q 111 13 147 -26 q 55 105 75 53 q 35 215 35 157 l 35 926 l 185 926 l 233 871 l 233 697 l 354 697 l 403 642 l 403 513 l 233 513 l 233 403 z "},"Ũ":{"ha":768,"x_min":35,"x_max":697,"o":"m 531 1161 q 501 1110 524 1126 q 447 1093 479 1093 q 394 1103 418 1093 q 347 1125 371 1113 q 297 1147 324 1138 q 235 1157 271 1157 q 142 1125 176 1157 q 96 1049 107 1093 l 150 1021 q 236 1089 168 1089 q 290 1078 267 1089 q 337 1056 314 1068 q 386 1034 360 1044 q 449 1024 413 1024 q 542 1057 507 1024 q 588 1135 576 1090 l 531 1161 m 404 0 q 624 224 624 0 l 624 919 l 522 919 l 522 224 q 408 106 522 106 l 278 106 q 163 224 163 106 l 163 919 l 60 919 l 60 224 q 281 0 60 0 l 404 0 m 236 172 q 242 139 236 149 q 278 129 247 129 l 408 129 q 497 224 497 129 l 497 944 l 649 944 l 697 888 l 697 172 q 457 -74 697 -74 l 333 -74 q 219 -51 274 -74 q 124 10 165 -29 q 59 104 83 50 q 35 224 35 158 l 35 944 l 188 944 l 236 888 l 236 172 m 618 1147 l 665 1092 q 644 1038 658 1064 q 610 993 631 1013 q 562 962 589 974 q 501 950 535 950 q 436 960 464 950 q 385 983 408 971 q 340 1005 363 994 q 289 1015 317 1015 q 245 997 264 1015 q 215 939 226 979 l 124 986 l 65 1036 q 123 1139 81 1096 q 235 1182 165 1182 q 292 1172 265 1182 q 344 1150 319 1163 q 394 1128 369 1138 q 447 1118 419 1118 q 515 1197 496 1118 l 618 1147 z "},"ũ":{"ha":731,"x_min":35,"x_max":657,"o":"m 231 140 q 232 126 231 128 l 392 126 q 444 147 429 126 q 460 213 460 168 l 460 697 l 608 697 l 657 642 l 657 -74 l 519 -74 l 499 -53 q 401 -74 461 -74 l 265 -74 q 169 -49 213 -74 q 97 15 126 -25 q 51 104 67 54 q 35 206 35 154 l 35 697 l 182 697 l 231 642 l 231 140 m 583 0 l 583 672 l 485 672 l 485 213 q 464 128 485 154 q 392 101 443 101 l 238 101 q 157 211 157 101 l 157 672 l 60 672 l 60 206 q 213 0 60 0 l 349 0 q 438 18 407 0 q 488 82 468 36 l 488 0 l 583 0 m 599 901 l 646 846 q 625 792 639 818 q 591 747 611 767 q 543 716 571 728 q 482 704 515 704 q 417 714 444 704 q 367 736 390 724 q 321 758 343 749 q 269 768 299 768 q 227 751 246 768 q 197 693 208 733 l 106 739 l 47 789 q 105 892 63 849 q 217 935 147 935 q 274 925 247 935 q 326 903 301 915 q 376 882 351 892 q 429 872 401 872 q 497 950 476 872 l 599 901 m 513 915 q 429 847 496 847 q 376 857 400 847 q 329 878 353 867 q 279 900 306 890 q 217 910 253 910 q 124 878 158 910 q 78 803 89 846 l 131 775 q 164 826 142 811 q 218 842 186 842 q 272 832 249 842 q 319 810 296 822 q 368 788 342 797 q 431 778 394 778 q 524 811 489 778 q 569 888 558 844 l 513 915 z "},"Ū":{"ha":768,"x_min":35,"x_max":697,"o":"m 557 1057 l 557 1136 l 126 1136 l 126 1057 l 557 1057 m 404 0 q 624 224 624 0 l 624 919 l 522 919 l 522 224 q 408 106 522 106 l 278 106 q 163 224 163 106 l 163 919 l 60 919 l 60 224 q 281 0 60 0 l 404 0 m 236 172 q 242 139 236 149 q 278 129 247 129 l 408 129 q 497 224 497 129 l 497 944 l 649 944 l 697 888 l 697 172 q 457 -74 697 -74 l 333 -74 q 219 -51 274 -74 q 124 10 165 -29 q 59 104 83 50 q 35 224 35 158 l 35 944 l 188 944 l 236 888 l 236 172 m 101 1032 l 101 1161 l 582 1161 l 631 1104 l 631 983 l 157 983 l 101 1032 z "},"ū":{"ha":731,"x_min":35,"x_max":657,"o":"m 231 140 q 232 126 231 128 l 392 126 q 444 147 429 126 q 460 213 460 168 l 460 697 l 608 697 l 657 642 l 657 -74 l 519 -74 l 499 -53 q 401 -74 461 -74 l 265 -74 q 169 -49 213 -74 q 97 15 126 -25 q 51 104 67 54 q 35 206 35 154 l 35 697 l 182 697 l 231 642 l 231 140 m 583 0 l 583 672 l 485 672 l 485 213 q 464 128 485 154 q 392 101 443 101 l 238 101 q 157 211 157 101 l 157 672 l 60 672 l 60 206 q 213 0 60 0 l 349 0 q 438 18 407 0 q 488 82 468 36 l 488 0 l 583 0 m 82 786 l 82 914 l 564 914 l 613 857 l 613 738 l 139 738 l 82 786 m 539 810 l 539 889 l 107 889 l 107 810 l 539 810 z "},"Ŭ":{"ha":768,"x_min":35,"x_max":697,"o":"m 538 1189 q 465 1081 515 1122 q 340 1040 415 1040 q 216 1083 269 1040 q 147 1189 163 1125 l 99 1160 q 122 1095 103 1128 q 174 1035 142 1063 q 249 992 206 1008 q 342 975 292 975 q 436 992 394 975 q 508 1035 478 1008 q 558 1095 539 1063 q 586 1160 578 1128 l 538 1189 m 404 0 q 624 224 624 0 l 624 919 l 522 919 l 522 224 q 408 106 522 106 l 278 106 q 163 224 163 106 l 163 919 l 60 919 l 60 224 q 281 0 60 0 l 404 0 m 617 1172 l 664 1117 q 619 1023 650 1069 q 539 944 588 976 l 649 944 l 697 888 l 697 172 q 457 -74 697 -74 l 333 -74 q 219 -51 274 -74 q 124 10 165 -29 q 59 104 83 50 q 35 224 35 158 l 35 944 l 188 944 l 236 888 l 236 172 q 242 139 236 149 q 278 129 247 129 l 408 129 q 497 224 497 129 l 497 921 q 394 903 456 903 q 290 926 343 903 q 192 986 238 949 q 115 1072 147 1024 q 72 1172 82 1121 l 164 1229 l 214 1169 q 256 1093 225 1121 q 340 1065 286 1065 q 453 1110 407 1065 q 524 1228 500 1156 l 617 1172 z "},"ŭ":{"ha":731,"x_min":35,"x_max":657,"o":"m 599 926 l 646 871 q 601 776 632 824 q 521 697 569 729 l 608 697 l 657 642 l 657 -74 l 519 -74 l 499 -53 q 401 -74 461 -74 l 265 -74 q 169 -49 213 -74 q 97 15 126 -25 q 51 104 67 54 q 35 206 35 154 l 35 697 l 182 697 l 231 642 l 231 140 q 232 126 231 128 l 392 126 q 444 147 429 126 q 460 213 460 168 l 460 669 q 376 656 426 656 q 274 678 328 656 q 175 740 221 701 q 96 826 129 778 q 54 926 63 875 l 146 982 l 196 924 q 237 847 203 875 q 322 818 271 818 q 435 863 389 818 q 504 981 481 908 l 599 926 m 583 0 l 583 672 l 485 672 l 485 213 q 464 128 485 154 q 392 101 443 101 l 238 101 q 157 211 157 101 l 157 672 l 60 672 l 60 206 q 213 0 60 0 l 349 0 q 438 18 407 0 q 488 82 468 36 l 488 0 l 583 0 m 519 943 q 447 835 497 876 q 322 793 397 793 q 198 835 251 793 q 129 943 144 876 l 81 913 q 104 849 85 881 q 156 790 124 817 q 231 746 188 763 q 324 729 274 729 q 417 746 375 729 q 489 790 458 763 q 540 849 519 817 q 568 913 560 881 l 519 943 z "},"Ů":{"ha":768,"x_min":35,"x_max":697,"o":"m 461 1099 q 434 1022 461 1050 q 340 994 407 994 q 249 1022 274 994 q 224 1099 224 1050 q 249 1173 224 1146 q 340 1200 274 1200 q 434 1173 407 1200 q 461 1099 461 1146 m 522 1099 q 481 1208 522 1167 q 340 1250 439 1250 q 202 1209 242 1250 q 163 1099 163 1168 q 202 987 163 1028 q 340 946 242 946 q 481 987 440 946 q 522 1099 522 1028 m 404 0 q 624 224 624 0 l 624 919 l 522 919 l 522 224 q 408 106 522 106 l 278 106 q 163 224 163 106 l 163 919 l 60 919 l 60 224 q 281 0 60 0 l 404 0 m 596 1046 q 569 944 596 985 l 649 944 l 697 888 l 697 172 q 457 -74 697 -74 l 333 -74 q 219 -51 274 -74 q 124 10 165 -29 q 59 104 83 50 q 35 224 35 158 l 35 944 l 188 944 l 236 888 l 236 172 q 242 139 236 149 q 278 129 247 129 l 408 129 q 497 224 497 129 l 497 886 q 392 872 457 872 q 300 888 346 872 q 218 933 254 904 q 160 1004 182 963 q 138 1099 138 1046 q 183 1227 138 1179 q 340 1275 229 1275 q 433 1259 389 1275 q 513 1213 478 1243 q 569 1140 547 1182 q 596 1046 592 1097 m 436 1099 q 428 1122 436 1118 q 407 1126 421 1126 q 320 1107 344 1126 q 296 1046 296 1088 q 296 1035 296 1040 q 297 1024 296 1029 q 340 1019 315 1019 q 415 1041 393 1019 q 436 1099 436 1063 z "},"ů":{"ha":731,"x_min":35,"x_max":657,"o":"m 576 800 q 551 697 576 736 l 608 697 l 657 642 l 657 -74 l 519 -74 l 499 -53 q 401 -74 461 -74 l 265 -74 q 169 -49 213 -74 q 97 15 126 -25 q 51 104 67 54 q 35 206 35 154 l 35 697 l 182 697 l 231 642 l 231 140 q 232 126 231 128 l 392 126 q 444 147 429 126 q 460 213 460 168 l 460 635 q 374 625 426 625 q 282 641 328 625 q 200 687 236 657 q 142 758 164 717 q 119 853 119 800 q 165 980 119 932 q 321 1028 210 1028 q 414 1012 368 1028 q 496 966 460 996 q 554 894 532 936 q 576 800 576 851 m 583 0 l 583 672 l 485 672 l 485 213 q 464 128 485 154 q 392 101 443 101 l 238 101 q 157 211 157 101 l 157 672 l 60 672 l 60 206 q 213 0 60 0 l 349 0 q 438 18 407 0 q 488 82 468 36 l 488 0 l 583 0 m 504 853 q 463 963 504 924 q 321 1003 421 1003 q 184 963 224 1003 q 144 853 144 924 q 184 740 144 782 q 321 699 224 699 q 463 740 421 699 q 504 853 504 782 m 443 853 q 416 776 443 804 q 321 747 389 747 q 229 776 254 747 q 204 853 204 804 q 229 926 204 899 q 321 953 254 953 q 416 926 389 953 q 443 853 443 899 m 418 853 q 410 876 418 872 q 388 881 403 881 q 301 861 325 881 q 278 800 278 842 q 290 774 278 775 q 321 772 301 772 q 396 794 374 772 q 418 853 418 817 z "},"Ű":{"ha":768,"x_min":35,"x_max":697,"o":"m 250 976 l 354 1211 l 269 1211 l 174 976 l 250 976 m 474 976 l 589 1211 l 503 1211 l 396 976 l 474 976 m 404 0 q 624 224 624 0 l 624 919 l 522 919 l 522 224 q 408 106 522 106 l 278 106 q 163 224 163 106 l 163 919 l 60 919 l 60 224 q 281 0 60 0 l 404 0 m 557 944 l 649 944 l 697 888 l 697 172 q 457 -74 697 -74 l 333 -74 q 219 -51 274 -74 q 124 10 165 -29 q 59 104 83 50 q 35 224 35 158 l 35 944 l 153 944 l 135 951 l 251 1236 l 393 1236 l 439 1181 l 317 904 l 221 904 l 236 888 l 236 172 q 242 139 236 149 q 278 129 247 129 l 408 129 q 497 224 497 129 l 497 904 l 414 904 l 356 951 l 485 1236 l 628 1236 l 674 1181 l 557 944 z "},"ű":{"ha":731,"x_min":35,"x_max":657,"o":"m 539 697 l 608 697 l 657 642 l 657 -74 l 519 -74 l 499 -53 q 401 -74 461 -74 l 265 -74 q 169 -49 213 -74 q 97 15 126 -25 q 51 104 67 54 q 35 206 35 154 l 35 697 l 135 697 l 117 706 l 233 990 l 375 990 l 421 933 l 299 657 l 215 657 l 231 642 l 231 140 q 232 126 231 128 l 392 126 q 444 147 429 126 q 460 213 460 168 l 460 657 l 396 657 l 338 706 l 467 990 l 610 990 l 656 933 l 539 697 m 583 0 l 583 672 l 485 672 l 485 213 q 464 128 485 154 q 392 101 443 101 l 238 101 q 157 211 157 101 l 157 672 l 60 672 l 60 206 q 213 0 60 0 l 349 0 q 438 18 407 0 q 488 82 468 36 l 488 0 l 583 0 m 456 731 l 571 965 l 483 965 l 378 731 l 456 731 m 232 731 l 336 965 l 250 965 l 154 731 l 232 731 z "},"Ų":{"ha":768,"x_min":35,"x_max":697,"o":"m 415 -307 l 415 -197 l 292 -197 q 231 -180 250 -197 q 211 -136 211 -162 q 264 -69 211 -94 l 415 0 q 624 224 624 6 l 624 919 l 522 919 l 522 224 q 408 106 522 106 l 278 106 q 163 224 163 106 l 163 919 l 60 919 l 60 224 q 281 0 60 0 l 354 0 l 238 -50 q 153 -108 179 -75 q 128 -185 128 -142 q 164 -275 128 -243 q 272 -307 200 -307 l 415 -307 m 324 -142 q 288 -172 293 -154 l 440 -172 l 489 -228 l 489 -381 l 325 -381 q 248 -366 288 -381 q 176 -326 208 -351 q 124 -264 144 -300 q 103 -185 103 -228 q 124 -107 103 -143 q 193 -43 144 -71 q 78 66 121 -3 q 35 224 35 135 l 35 944 l 188 944 l 236 888 l 236 172 q 242 139 236 149 q 278 129 247 129 l 408 129 q 497 224 497 129 l 497 944 l 649 944 l 697 888 l 697 172 q 474 -74 697 -65 l 324 -142 z "},"ų":{"ha":731,"x_min":35,"x_max":657,"o":"m 492 -142 q 467 -155 476 -149 q 456 -172 458 -161 l 608 -172 l 608 -179 l 657 -228 l 657 -381 l 493 -381 q 416 -366 456 -381 q 344 -326 376 -351 q 290 -264 311 -300 q 269 -185 269 -228 q 318 -74 269 -122 l 265 -74 q 169 -49 213 -74 q 97 15 126 -25 q 51 104 67 54 q 35 206 35 154 l 35 697 l 182 697 l 231 642 l 231 140 q 232 126 231 128 l 392 126 q 444 147 429 126 q 460 213 460 168 l 460 697 l 608 697 l 657 642 l 657 -67 l 492 -142 m 583 -307 l 583 -197 l 458 -197 q 399 -180 418 -197 q 379 -136 379 -162 q 432 -69 379 -94 l 583 0 l 583 672 l 485 672 l 485 213 q 464 128 485 154 q 392 101 443 101 l 238 101 q 157 211 157 101 l 157 672 l 60 672 l 60 206 q 213 0 60 0 l 349 0 q 438 18 407 0 q 488 82 468 36 l 488 0 l 522 0 l 406 -50 q 321 -108 347 -75 q 294 -185 294 -142 q 331 -275 294 -243 q 440 -307 368 -307 l 583 -307 z "},"Ŵ":{"ha":1101,"x_min":-11,"x_max":1076,"o":"m 753 1007 l 538 1211 l 479 1211 l 264 1007 l 300 975 l 507 1140 l 715 975 l 753 1007 m 788 0 l 997 919 l 897 919 l 733 167 l 560 919 l 465 919 l 292 167 l 128 919 l 21 919 l 232 0 l 343 0 l 511 715 l 672 0 l 788 0 m 629 888 l 749 364 l 876 944 l 1029 944 l 1076 888 l 857 -74 l 708 -74 l 651 -25 l 540 467 l 413 -74 l 268 -74 l 211 -25 l -11 944 l 149 944 l 197 888 l 311 368 l 444 944 l 581 944 l 629 888 m 836 954 l 769 896 l 560 1063 l 351 896 l 226 1007 l 468 1236 l 549 1236 l 789 1007 l 836 954 z "},"ŵ":{"ha":983,"x_min":-11,"x_max":958,"o":"m 693 761 l 479 965 l 419 965 l 204 761 l 242 729 l 449 894 l 657 729 l 693 761 m 686 0 l 879 672 l 781 672 l 639 139 l 497 672 l 406 672 l 265 139 l 124 672 l 21 672 l 214 0 l 308 0 l 447 525 l 586 0 l 686 0 m 778 708 l 765 697 l 911 697 l 958 642 l 754 -74 l 622 -74 l 568 -25 l 478 310 l 376 -74 l 250 -74 l 196 -25 l -11 697 l 142 697 l 192 642 l 281 299 l 388 697 l 515 697 l 565 642 l 654 296 l 761 693 l 711 649 l 501 815 l 293 649 l 168 761 l 410 990 l 489 990 l 731 761 l 778 708 z "},"Ŷ":{"ha":728,"x_min":-25,"x_max":715,"o":"m 569 1007 l 354 1211 l 294 1211 l 81 1007 l 117 975 l 324 1140 l 532 975 l 569 1007 m 371 0 l 371 424 l 628 919 l 525 919 l 325 533 l 128 919 l 15 919 l 269 424 l 269 0 l 371 0 m 715 888 l 444 367 l 444 -74 l 300 -74 l 244 -25 l 244 418 l -25 944 l 111 944 l 43 1007 l 285 1236 l 371 1236 l 715 888 m 510 944 l 525 944 l 376 1063 l 176 903 l 335 607 l 510 944 z "},"ŷ":{"ha":713,"x_min":33,"x_max":643,"o":"m 558 761 l 343 965 l 285 965 l 69 761 l 106 729 l 314 894 l 522 729 l 558 761 m 379 -208 q 567 8 567 -208 l 567 672 l 467 672 l 467 151 l 261 151 q 158 261 158 151 l 158 672 l 60 672 l 60 265 q 257 58 60 58 l 467 58 l 467 4 q 369 -115 467 -115 l 179 -115 l 179 -208 l 379 -208 m 643 708 l 606 675 l 640 642 l 640 -44 q 432 -282 640 -282 l 211 -282 l 154 -233 l 154 -90 l 369 -90 q 440 -14 435 -90 l 310 -14 q 203 7 253 -14 q 115 65 153 28 q 56 153 78 103 q 35 265 35 204 l 35 697 l 101 697 l 33 761 l 274 990 l 354 990 l 596 761 l 643 708 m 442 697 l 514 697 l 365 815 l 194 678 l 232 642 l 232 208 q 236 184 232 192 q 261 176 240 176 l 442 176 l 442 697 z "},"Ÿ":{"ha":728,"x_min":-25,"x_max":715,"o":"m 235 1015 l 235 1171 l 129 1171 l 129 1015 l 235 1015 m 522 1015 l 522 1171 l 417 1171 l 417 1015 l 522 1015 m 371 0 l 371 424 l 628 919 l 525 919 l 325 533 l 128 919 l 15 919 l 269 424 l 269 0 l 371 0 m 192 888 l 335 607 l 508 942 l 449 942 l 392 990 l 392 1196 l 547 1196 l 596 1139 l 596 944 l 669 944 l 715 888 l 444 367 l 444 -74 l 300 -74 l 244 -25 l 244 418 l -25 944 l 142 944 l 192 888 m 104 990 l 104 1196 l 260 1196 l 308 1139 l 308 942 l 160 942 l 104 990 z "},"Ź":{"ha":668,"x_min":22,"x_max":610,"o":"m 279 129 l 561 129 l 610 74 l 610 -74 l 79 -74 l 22 -25 l 22 88 l 343 740 l 79 740 l 22 789 l 22 944 l 183 944 l 129 1017 l 469 1246 l 521 1188 l 582 1100 l 318 944 l 561 944 l 610 888 l 610 804 l 279 129 m 536 0 l 536 106 l 168 106 l 536 860 l 536 919 l 47 919 l 47 814 l 410 814 l 47 82 l 47 0 l 536 0 m 500 1160 l 463 1211 l 164 1010 l 190 975 l 500 1160 z "},"ź":{"ha":650,"x_min":22,"x_max":593,"o":"m 315 122 l 544 122 l 593 65 l 593 -74 l 79 -74 l 22 -25 l 22 76 l 300 501 l 79 501 l 22 550 l 22 697 l 175 697 l 119 769 l 460 999 l 511 942 l 574 854 l 310 697 l 544 697 l 593 642 l 593 553 l 315 122 m 519 0 l 519 97 l 188 97 l 519 611 l 519 672 l 47 672 l 47 575 l 379 575 l 47 68 l 47 0 l 519 0 m 490 913 l 454 965 l 154 763 l 181 729 l 490 913 z "},"Ż":{"ha":668,"x_min":22,"x_max":610,"o":"m 344 1015 l 344 1171 l 240 1171 l 240 1015 l 344 1015 m 536 0 l 536 106 l 168 106 l 536 860 l 536 919 l 47 919 l 47 814 l 410 814 l 47 82 l 47 0 l 536 0 m 279 129 l 561 129 l 610 74 l 610 -74 l 79 -74 l 22 -25 l 22 88 l 343 740 l 79 740 l 22 789 l 22 944 l 269 944 l 215 990 l 215 1196 l 369 1196 l 418 1139 l 418 944 l 561 944 l 610 888 l 610 804 l 279 129 z "},"ż":{"ha":650,"x_min":22,"x_max":593,"o":"m 336 768 l 336 925 l 231 925 l 231 768 l 336 768 m 519 0 l 519 97 l 188 97 l 519 611 l 519 672 l 47 672 l 47 575 l 379 575 l 47 68 l 47 0 l 519 0 m 315 122 l 544 122 l 593 65 l 593 -74 l 79 -74 l 22 -25 l 22 76 l 300 501 l 79 501 l 22 550 l 22 697 l 260 697 l 206 743 l 206 950 l 361 950 l 410 893 l 410 697 l 544 697 l 593 642 l 593 553 l 315 122 z "},"Ž":{"ha":668,"x_min":11,"x_max":622,"o":"m 538 1181 l 501 1211 l 293 1044 l 85 1211 l 49 1181 l 264 975 l 321 975 l 538 1181 m 536 0 l 536 106 l 168 106 l 536 860 l 536 919 l 47 919 l 47 814 l 410 814 l 47 82 l 47 0 l 536 0 m 622 1128 l 426 944 l 561 944 l 610 888 l 610 804 l 279 129 l 561 129 l 610 74 l 610 -74 l 79 -74 l 22 -25 l 22 88 l 343 740 l 79 740 l 22 789 l 22 944 l 263 944 l 11 1181 l 83 1244 l 293 1075 l 503 1244 l 575 1181 l 622 1128 z "},"ž":{"ha":650,"x_min":3,"x_max":613,"o":"m 528 933 l 492 965 l 283 799 l 76 965 l 39 933 l 254 729 l 313 729 l 528 933 m 519 0 l 519 97 l 188 97 l 519 611 l 519 672 l 47 672 l 47 575 l 379 575 l 47 68 l 47 0 l 519 0 m 613 881 l 417 697 l 544 697 l 593 642 l 593 553 l 315 122 l 544 122 l 593 65 l 593 -74 l 79 -74 l 22 -25 l 22 76 l 300 501 l 79 501 l 22 550 l 22 697 l 253 697 l 3 933 l 75 997 l 283 829 l 493 997 l 565 933 l 613 881 z "},"ƒ":{"ha":956,"x_min":35,"x_max":885,"o":"m 321 36 q 261 -85 306 -51 q 150 -119 217 -119 q 102 -115 122 -119 q 58 -99 82 -110 l 58 -197 q 99 -207 76 -204 q 157 -210 121 -210 q 263 -198 215 -210 q 346 -156 310 -186 q 406 -73 382 -125 q 444 60 431 -21 l 511 458 l 642 458 l 642 536 l 528 536 l 549 672 q 608 797 563 763 q 721 831 653 831 q 768 826 747 831 q 811 810 789 821 l 811 907 q 770 917 792 914 q 714 921 749 921 q 608 908 654 921 q 526 865 561 896 q 467 782 492 835 q 428 649 443 729 l 407 536 l 294 536 l 294 458 l 394 458 l 321 36 m 356 385 l 326 385 l 269 433 l 269 561 l 385 561 q 430 750 404 675 q 494 868 456 825 q 585 928 532 911 q 714 946 639 946 q 778 941 750 946 q 836 925 807 936 l 885 869 l 885 722 q 823 749 849 742 q 774 757 797 757 q 675 725 713 757 q 622 618 638 693 l 611 561 l 667 561 l 715 504 l 715 385 l 582 385 l 518 4 q 476 -137 503 -82 q 412 -225 450 -193 q 323 -270 374 -257 q 210 -283 272 -283 q 174 -281 190 -283 q 138 -272 157 -279 q 94 -251 118 -265 q 35 -214 69 -237 l 35 -58 q 100 -86 74 -78 q 150 -94 126 -94 q 245 -65 208 -94 q 296 40 282 -35 l 356 385 z "}}}
